<?xml version="1.0" encoding="UTF-8"?>
<svg id="Layer_2" data-name="Layer 2" xmlns="http://www.w3.org/2000/svg" viewBox="0 0 139 139">
  <defs>
    <style>
      .cls-1 {
        fill: #fdfdfe;
      }

      .cls-2 {
        fill: #c2332f;
      }

      .cls-3 {
        fill: #08058d;
      }

      .cls-4 {
        fill: #1e451f;
      }

      .cls-5 {
        fill: #06038d;
      }

      .cls-6 {
        fill: #fff;
        stroke-width: 1.45px;
      }

      .cls-6, .cls-7 {
        stroke: #1e451f;
        stroke-miterlimit: 10;
      }

      .cls-7 {
        fill: none;
        stroke-width: 5.79px;
      }
    </style>
  </defs>
  <g id="Brothers_in_arms_logo" data-name="Brothers in arms_logo">
    <g>
      <circle class="cls-7" cx="69.5" cy="69.5" r="66.61"/>
      <circle class="cls-4" cx="69.5" cy="69.5" r="54.95"/>
      <path class="cls-2" d="M61.37,37.61c5.26-.28,11.57-.13,16.83.16"/>
      <path class="cls-2" d="M97.13,100.81s-5.67-.81-17.23-2.75c-.74-.12-1.5-.25-2.29-.39-7.16,0-17.32,1.12-17.32,1.12,0,0-16.59,2.3-16.57,2.02.26-4.95,1.92-9.38.59-10.05-6.85-7.05-12.73-13.62-21.06-21.67-.42-.4-.95-.81-.98-1.45.05-.27,4.55-.99,5.25-1.27,1.07-.42,1.21-1.07,1.07-2.15-.45-3.57-1.76-7.4-2.54-10.93-.28-1.24-.92-3.73-1.01-4.85-.05-.73.18-.77.84-.67,3.23.46,8.45,3.39,11.57,3.39,1.97,0,1.59-1.04,1.91-2.33.4-1.64.83-3.27,1.06-4.95.16-.42.69-.44,1.07-.36.09.02,1.27,1.06,1.42,1.21,2.81,2.75,5.94,6.6,9.01,9.01.67.53,1.24,1.06,1.97.43.69-.6.81-1.23.69-2.12-.81-6.38-3.02-13.28-4.16-19.71-.2-1.14-.43-2.29-.37-3.44.39-.02.75-.02,1.14.08,1.85.46,4.1,2.26,6,2.93,4.04,1.42,3.61.05,5.36-2.77,2.15-3.46,4.23-7.04,6.43-10.46.68-1.06,1.24-1.75,2.15-.39,2.63,4.12,4.91,8.49,7.53,12.61.94,1.48,1.15,2.08,3.05,1.48,2.38-.74,5.34-2.83,7.6-3.44.22-.06.72-.15.87.05.16.42.17.82.13,1.27-.31,3.05-1.35,7.4-1.97,10.53-.71,3.61-2.09,7.91-2.54,11.42-.21,1.63.95,2.75,2.46,1.69,1.36-.95,3.44-3.44,4.75-4.72.77-.75,1.7-1.4,2.46-2.16.83-.82,1.51-1.94,2.41-2.71.54-.46,1.18-1.18,1.89-.58.91.77,1.3,5.3,1.69,6.59.46.55,1.15,1.09,1.9.95,1.88-.74,3.88-1.08,5.8-1.68,1.5-.47,3.61-1.55,5-1.82,1.58-.31.99,1.51.81,2.6-.7,4.14-2.66,8.93-3.19,12.88-.08.56-.12,2.13.23,2.52.76.83,5,1.16,6.1,1.87.11.38.54,1.33.22,1.62-6.52,6.76-12.16,10.19-15.38,13.62-2.82,2.21-8.49,5.41-8.37,9.94,1.24,3.33,2.59,8,2.59,8"/>
      <path class="cls-6" d="M59.57,34.89c1.81,3.44,3.32,9.89,4.35,17.09-4.89,1.76-8.86,5.35-11.07,9.93-4.87-1.08-10.16-2.6-13.91-4.62v24.94c4.35-2.29,8.77-4.05,13.27-5.22,2.08,5.47,6.59,9.76,12.24,11.62l-1.53,14.03c3.71,3.57,2.75,10.54,1.95,19.83h11.15c-1.16-7.39-1.97-16.25,1.09-19.53l-.24-14.31c5.46-1.77,9.87-5.81,12.06-10.99,5.27.06,12.46,3.09,12.46,3.09v-22.56c-3.92,1.95-8.16,3.28-12.63,4.21-2.12-4.74-6.11-8.47-11.05-10.32.94-7.73,4.43-17.31,4.43-17.31l-22.59.12Z"/>
      <g>
        <path class="cls-5" d="M85.51,70.49c0,8.14-6.6,14.73-14.73,14.73s-14.73-6.6-14.73-14.73,6.6-14.73,14.73-14.73,14.73,6.6,14.73,14.73ZM71.9,57.8l-.74-.05h-.73s-.76.05-.76.05c.04.25-.13.51-.37.59-.34.11-.66-.11-.73-.45-.72.14-1.43.31-2.12.57,0,.07.03.14.03.22-.02.59-.82.76-1.07.22h-.02c-.65.32-1.3.66-1.89,1.1.01.06.05.09.07.15.15.47-.34.9-.79.67-.05-.03-.15-.13-.17-.13-.02,0-.03,0-.05.01-.54.46-1.05.97-1.51,1.51-.03.05.04.08.07.12.33.46-.11,1.05-.64.86-.05-.02-.1-.08-.15-.05-.42.59-.78,1.23-1.09,1.89.63.33.28,1.24-.41,1.05l-.03.02c-.25.69-.44,1.4-.57,2.12.33.05.55.39.45.71-.07.25-.34.43-.59.39l-.05.72v.78l.05.72c.25-.05.51.13.59.37.11.34-.11.66-.45.73.14.72.31,1.43.57,2.12.16-.03.29-.04.45.03.43.19.42.82,0,1.01v.02c.32.65.66,1.31,1.1,1.89.06-.01.09-.05.15-.07.47-.15.9.34.67.79-.04.07-.1.11-.14.18.45.57.98,1.07,1.53,1.55.05.03.08-.04.12-.07.46-.33,1.05.11.86.64-.02.05-.08.1-.05.15.6.42,1.23.78,1.89,1.09.33-.63,1.24-.28,1.05.41l.02.03c.69.25,1.4.44,2.12.57.14-.71,1.16-.58,1.1.14l.74.05h.75l.74-.05c-.05-.25.14-.51.37-.59.34-.11.66.11.73.45.72-.14,1.43-.31,2.12-.57-.03-.16-.04-.29.03-.45.19-.43.82-.42,1.01,0h.02c.65-.32,1.31-.66,1.89-1.1-.01-.06-.05-.09-.07-.15-.15-.47.34-.9.79-.67.07.04.11.1.18.14.57-.45,1.07-.98,1.55-1.53.03-.05-.04-.08-.07-.12-.33-.46.11-1.05.64-.86.05.02.1.08.15.05.42-.59.78-1.23,1.09-1.89-.52-.24-.39-1.03.18-1.08.06,0,.23.04.25.02.25-.69.44-1.4.57-2.12-.33-.05-.55-.39-.45-.71.07-.24.34-.43.59-.39l.05-.74v-.75l-.05-.74c-.25.05-.51-.14-.59-.37-.11-.34.11-.66.45-.73-.14-.72-.31-1.43-.57-2.12-.07,0-.14.03-.22.03-.59-.02-.76-.82-.22-1.07v-.02c-.32-.65-.66-1.31-1.1-1.89-.06.01-.09.05-.15.07-.47.15-.9-.34-.67-.79.04-.07.1-.11.14-.18-.45-.57-.98-1.07-1.53-1.55-.05-.03-.08.04-.12.07-.46.33-1.05-.11-.86-.64.02-.05.08-.1.05-.15-.59-.42-1.23-.78-1.89-1.09-.33.63-1.24.28-1.05-.41l-.02-.03c-.69-.25-1.4-.44-2.12-.57-.05.33-.39.55-.71.45-.24-.07-.43-.34-.39-.59Z"/>
        <path class="cls-1" d="M71.9,57.8c-.05.26.14.52.39.59.33.1.66-.12.71-.45.72.13,1.43.31,2.12.57l.02.03c-.2.69.72,1.04,1.05.41.66.31,1.29.67,1.89,1.09.04.05-.03.09-.05.15-.18.54.4.97.86.64.04-.03.07-.1.12-.07.55.47,1.08.98,1.53,1.55-.04.07-.1.11-.14.18-.22.45.2.94.67.79.06-.02.1-.06.15-.07.44.58.78,1.23,1.11,1.89v.02c-.54.25-.38,1.05.22,1.07.08,0,.14-.03.22-.03.26.68.44,1.4.57,2.12-.34.07-.56.39-.45.73.08.24.34.42.59.37l.05.74v.75l-.05.74c-.26-.05-.52.14-.59.39-.1.33.12.66.45.71-.13.72-.31,1.43-.57,2.12-.02.03-.19-.02-.25-.02-.58.04-.71.83-.18,1.08-.31.66-.67,1.29-1.09,1.89-.05.04-.09-.03-.15-.05-.54-.18-.97.4-.64.86.03.04.1.07.07.12-.47.55-.98,1.08-1.55,1.53-.07-.04-.11-.1-.18-.14-.45-.22-.94.2-.79.67.02.06.06.1.07.15-.58.44-1.23.79-1.89,1.11h-.02c-.19-.43-.82-.44-1.01-.01-.07.16-.06.28-.03.45-.68.26-1.4.44-2.12.57-.07-.34-.39-.56-.73-.45-.24.08-.42.34-.37.59l-.74.05h-.75l-.74-.05c.06-.72-.96-.86-1.1-.14-.72-.13-1.43-.31-2.12-.57l-.02-.03c.19-.69-.72-1.04-1.05-.41-.66-.31-1.29-.67-1.89-1.09-.04-.05.03-.09.05-.15.18-.54-.4-.97-.86-.64-.04.03-.07.1-.12.07-.55-.47-1.08-.98-1.53-1.55.04-.07.1-.11.14-.18.22-.45-.2-.94-.67-.79-.06.02-.1.06-.15.07-.44-.58-.79-1.23-1.11-1.89v-.02c.43-.19.44-.82.01-1.01-.16-.07-.28-.06-.45-.03-.26-.68-.44-1.4-.57-2.12.34-.07.56-.39.45-.73-.08-.24-.34-.42-.59-.37l-.05-.72v-.78l.05-.72c.26.05.52-.14.59-.39.1-.33-.12-.66-.45-.71.13-.72.31-1.43.57-2.12l.03-.02c.69.19,1.04-.72.41-1.05.31-.66.67-1.29,1.09-1.89.05-.04.09.03.15.05.54.18.97-.4.64-.86-.03-.04-.1-.07-.07-.12.46-.55.97-1.05,1.51-1.51.01-.01.03-.02.05-.01.02,0,.12.11.17.13.45.22.94-.2.79-.67-.02-.06-.06-.1-.07-.15.58-.44,1.23-.79,1.89-1.11h.02c.25.54,1.05.37,1.07-.22,0-.08-.03-.14-.03-.22.68-.26,1.4-.44,2.12-.57.07.34.39.56.73.45.24-.08.42-.34.37-.59l.76-.05h.73s.74.05.74.05ZM70.8,57.93l-.03.02-.46,7.39.32,2.6-.35.05-.34-2.53-2.38-7.09-.03.02,1.48,7.31.97,2.39-.33.11-.99-2.36-4.11-6.21-.03.02,3.31,6.66,1.55,2.04s-.01.03-.02.04c-.01.01-.2.16-.22.17s-.02.01-.04,0l-1.58-2.02-5.61-4.95-.02.02,4.95,5.61,2.01,1.56.02.03s0,.02,0,.02c0,.01-.17.23-.18.23-.02.01-.03,0-.04,0l-2.02-1.53c-2.13-1.02-4.22-2.14-6.36-3.16-.09-.05-.23-.12-.32-.15-.02,0-.05-.02-.05,0,.03,0,.03,0,.05.02,2.01,1.44,4.18,2.7,6.2,4.12l2.36.99-.11.32s-.07,0-.1-.02c-.76-.25-1.51-.66-2.27-.93l-7.36-1.47,7.1,2.4,2.53.34-.05.35-2.6-.32-7.4.47s.03.02.06.02c2.45.11,4.89.33,7.34.46l2.6-.32.05.35-2.53.34-7.1,2.39s.12,0,.16-.01c2.41-.42,4.79-1.02,7.19-1.45.76-.26,1.52-.68,2.27-.93.03-.01.06-.03.1-.02l.11.32-2.36.99c-2.02,1.42-4.2,2.68-6.2,4.12-.02.01-.02.02-.05.02,0,.03.03.01.05,0,.09-.03.23-.11.32-.15,2.13-1.02,4.23-2.14,6.36-3.16l2.02-1.53s.02-.02.04,0c.01,0,.18.22.18.23,0,0,0,.01,0,.02l-.02.03-2.01,1.56-4.95,5.61.02.02,5.61-4.95,1.58-2.02s.02,0,.04,0,.2.15.22.17c.01.01.03.02.02.04l-1.55,2.04-3.31,6.66.03.02,4.11-6.21.99-2.36.33.11-.97,2.39-1.48,7.31.03.02,2.38-7.09.34-2.53.35.05-.32,2.6c.2,2.39.25,4.79.45,7.18,0,.03.01.2.02.2.04.01.02-.03.02-.06.19-2.44.27-4.89.46-7.33l-.32-2.6.35-.05.34,2.53,2.38,7.1v-.1s-1.45-7.25-1.45-7.25c-.25-.76-.71-1.54-.94-2.3,0-.03-.02-.06-.01-.09l.32-.11.99,2.36c1.42,2.02,2.68,4.2,4.12,6.2.01.02.02.02.02.05v-.05s-3.31-6.68-3.31-6.68l-1.53-2.02v-.04s.25-.19.25-.19l.03.02,1.56,2.01,5.59,4.94.02-.02-4.94-5.59-2.02-1.58s0-.02,0-.04.15-.2.17-.22c.01-.01.02-.03.04-.02l2.04,1.55,6.68,3.31s-.01-.03-.03-.04c-.15-.11-.33-.22-.49-.33l-5.69-3.77-2.36-.99.11-.32s.06,0,.09.01c.75.23,1.54.69,2.3.94l7.39,1.49-7.15-2.41-2.53-.34.05-.35,2.6.32,7.41-.46s-.03-.03-.06-.03c-.06,0-.12-.01-.18-.02-2.39-.2-4.78-.25-7.17-.45l-2.62.32-.05-.35,2.53-.34,7.15-2.4h-.07s-7.33,1.47-7.33,1.47c-.76.25-1.54.71-2.3.94-.03,0-.06.02-.09.01l-.11-.32,2.36-.99,6.21-4.11-.02-.03-6.66,3.31-2.04,1.55s-.03-.01-.04-.02c-.01-.01-.16-.2-.17-.22s-.01-.02,0-.04l2.02-1.58,4.94-5.59-.02-.02-5.59,4.94-1.56,2.01-.03.02-.26-.19v-.04s1.54-2.02,1.54-2.02c1-2.05,2.05-4.08,3.05-6.14.09-.18.21-.39.28-.57,0-.01.03-.05,0-.04l-.02.06-4.13,6.21-.99,2.36-.32-.11s0-.06.01-.09c.22-.75.69-1.54.94-2.3l1.47-7.33s-.02.03-.03.04c-.05.14-.1.29-.15.43-.76,2.2-1.46,4.42-2.22,6.62l-.34,2.53-.35-.05.32-2.6-.46-7.41ZM64.49,59.57h-.03s.04.05.04.05v-.05ZM81.71,64.18h-.02s-.02.02-.02.02h.05v-.02ZM81.71,76.78h-.05s.04.03.04.03v-.03ZM64.49,81.42v-.05s-.03.04-.03.04h.03Z"/>
        <path class="cls-3" d="M70.8,57.93l.46,7.41-.32,2.6.35.05.34-2.53c.76-2.2,1.46-4.42,2.22-6.62.05-.14.09-.29.15-.43,0-.02,0-.05.03-.04l-1.47,7.33c-.24.76-.71,1.55-.94,2.3,0,.03-.02.06-.01.09l.32.11.99-2.36,4.13-6.21.02-.06s0,.03,0,.04c-.07.18-.19.39-.28.57-1,2.05-2.05,4.08-3.05,6.14l-1.53,2.02v.04s.25.19.25.19l.03-.02,1.56-2.01,5.59-4.94.02.02-4.94,5.59-2.02,1.58s0,.03,0,.04.15.2.17.22c.01.01.02.03.04.02l2.04-1.55,6.66-3.31.02.03-6.21,4.11-2.36.99.11.32s.06,0,.09-.01c.75-.23,1.54-.69,2.3-.94l7.33-1.48h.07s-7.15,2.41-7.15,2.41l-2.53.34.05.35,2.62-.32c2.39.2,4.78.25,7.17.45.06,0,.12,0,.18.02.02,0,.05,0,.06.03l-7.41.46-2.6-.32-.05.35,2.53.34,7.15,2.41-7.39-1.49c-.76-.25-1.54-.71-2.3-.94-.03,0-.06-.02-.09-.01l-.11.32,2.36.99,5.69,3.77c.16.11.33.21.49.33.02.01.04,0,.03.04l-6.68-3.31-2.04-1.55s-.03.01-.04.02c-.01.01-.16.2-.17.22s-.01.02,0,.04l2.02,1.58,4.94,5.59-.02.02-5.59-4.94-1.56-2.01-.03-.02-.26.19v.04s1.54,2.02,1.54,2.02l3.32,6.68v.05s-.01-.03-.03-.05c-1.44-2.01-2.7-4.18-4.12-6.2l-.99-2.36-.32.11s0,.06.01.09c.23.75.69,1.54.94,2.3l1.47,7.25v.1s-2.39-7.1-2.39-7.1l-.34-2.53-.35.05.32,2.6c-.19,2.44-.27,4.89-.46,7.33,0,.02.01.07-.02.06,0,0-.02-.17-.02-.2-.19-2.39-.25-4.79-.45-7.18l.32-2.6-.35-.05-.34,2.53-2.38,7.09-.03-.02,1.48-7.31.97-2.39-.33-.11-.99,2.36-4.11,6.21-.03-.02,3.31-6.66,1.55-2.04s-.01-.03-.02-.04c-.01-.01-.2-.16-.22-.17s-.02-.01-.04,0l-1.58,2.02-5.61,4.95-.02-.02,4.95-5.61,2.01-1.56.02-.03s0-.02,0-.02c0-.01-.17-.23-.18-.23-.02-.01-.03,0-.04,0l-2.02,1.53c-2.13,1.02-4.22,2.14-6.36,3.16-.09.05-.23.12-.32.15-.02,0-.05.02-.05,0,.03,0,.03,0,.05-.02,2.01-1.44,4.18-2.7,6.2-4.12l2.36-.99-.11-.32s-.07,0-.1.02c-.76.25-1.51.66-2.27.93-2.4.44-4.79,1.03-7.19,1.45-.05,0-.13.04-.16.01l7.1-2.39,2.53-.34-.05-.35-2.6.32c-2.45-.13-4.89-.35-7.34-.46-.02,0-.07.01-.06-.02l7.4-.47,2.6.32.05-.35-2.53-.34-7.1-2.4,7.36,1.47c.76.26,1.52.68,2.27.93.03.01.06.03.1.02l.11-.32-2.36-.99c-2.02-1.42-4.2-2.68-6.2-4.12-.02-.01-.02-.02-.05-.02,0-.03.03-.01.05,0,.09.03.23.11.32.15,2.13,1.02,4.23,2.14,6.36,3.16l2.02,1.53s.02.02.04,0c.01,0,.18-.22.18-.23,0,0,0-.01,0-.02l-.02-.03-2.01-1.56-4.95-5.61.02-.02,5.61,4.95,1.58,2.02s.02,0,.04,0,.2-.15.22-.17c.01-.01.03-.02.02-.04l-1.55-2.04-3.31-6.66.03-.02,4.11,6.21.99,2.36.33-.11-.97-2.39-1.48-7.31.03-.02,2.38,7.09.34,2.53.35-.05-.32-2.6.46-7.39.03-.02Z"/>
        <polygon class="cls-3" points="64.49 59.57 64.5 59.61 64.46 59.57 64.49 59.57"/>
        <polygon class="cls-3" points="81.71 76.78 81.7 76.81 81.66 76.77 81.71 76.78"/>
        <polygon class="cls-3" points="64.49 81.42 64.46 81.41 64.5 81.37 64.49 81.42"/>
        <polygon class="cls-3" points="81.71 64.18 81.71 64.2 81.66 64.21 81.68 64.18 81.71 64.18"/>
      </g>
    </g>
  </g>
</svg>