<?xml version="1.0" encoding="UTF-8"?>
<svg id="Layer_2" data-name="Layer 2" xmlns="http://www.w3.org/2000/svg" viewBox="0 0 223.98 97.42">
  <defs>
    <style>
      .cls-1 {
        fill: #fff;
      }

      .cls-2 {
        fill: #1e451f;
      }

      .cls-3 {
        fill: #ff671f;
      }

      .cls-4 {
        fill: #d80621;
      }
    </style>
  </defs>
  <g id="Layer_1-2" data-name="Layer 1">
    <g>
      <g>
        <g>
          <path d="M0,82.32v-21.36h4.47c.98,0,1.82.15,2.5.45.69.3,1.25.7,1.7,1.2.44.5.75,1.08.95,1.73.19.65.29,1.33.29,2.03v.78c0,.58-.04,1.07-.13,1.47-.09.4-.23.75-.41,1.05-.34.56-.86,1.04-1.56,1.44.72.34,1.25.84,1.59,1.5.34.66.51,1.56.51,2.7v1.2c0,1.88-.46,3.32-1.37,4.32s-2.37,1.5-4.37,1.5H0ZM3.06,63.83v5.88h1.38c1.02,0,1.71-.25,2.06-.77.35-.51.52-1.25.52-2.23s-.19-1.68-.58-2.16c-.39-.48-1.09-.72-2.12-.72h-1.26ZM3.06,72.42v6.84h1.32c.62,0,1.1-.09,1.46-.27.35-.18.62-.43.79-.75.18-.32.29-.7.33-1.14s.06-.92.06-1.44-.03-1.01-.09-1.41c-.06-.4-.18-.74-.36-1.02-.2-.28-.47-.48-.81-.62-.34-.13-.79-.19-1.35-.19h-1.35Z"/>
          <path d="M15.78,82.32v-21.36h4.92c3.6,0,5.4,2.09,5.4,6.27,0,1.26-.2,2.33-.58,3.21-.39.88-1.08,1.59-2.06,2.13l3.3,9.75h-3.24l-2.85-9.12h-1.83v9.12h-3.06ZM18.84,63.83v6.66h1.74c.54,0,.97-.08,1.29-.23.32-.15.57-.36.75-.65.16-.28.27-.62.33-1.04.06-.41.09-.89.09-1.43s-.03-1.01-.09-1.43c-.06-.41-.18-.77-.36-1.06-.38-.56-1.1-.84-2.16-.84h-1.59Z"/>
          <path d="M31.38,65.99c0-.86.15-1.62.45-2.28.3-.66.7-1.21,1.2-1.65.48-.42,1.03-.74,1.64-.96.61-.22,1.22-.33,1.84-.33s1.24.11,1.85.33c.61.22,1.17.54,1.67.96.48.44.87.99,1.17,1.65.3.66.45,1.42.45,2.28v11.28c0,.9-.15,1.67-.45,2.31-.3.64-.69,1.17-1.17,1.59-.5.44-1.06.77-1.67.99-.61.22-1.23.33-1.85.33s-1.24-.11-1.84-.33c-.61-.22-1.16-.55-1.64-.99-.5-.42-.9-.95-1.2-1.59-.3-.64-.45-1.41-.45-2.31v-11.28ZM34.44,77.28c0,.74.21,1.29.62,1.64s.9.52,1.46.52,1.04-.17,1.46-.52.62-.9.62-1.64v-11.28c0-.74-.21-1.29-.62-1.64-.41-.35-.89-.53-1.46-.53s-1.04.18-1.46.53c-.41.35-.62.9-.62,1.64v11.28Z"/>
          <path d="M49,82.32v-18.48h-3.54v-2.88h10.14v2.88h-3.54v18.48h-3.06Z"/>
          <path d="M59.95,82.32v-21.36h3.06v9.15h3.78v-9.15h3.06v21.36h-3.06v-9.51h-3.78v9.51h-3.06Z"/>
          <path d="M75.73,82.32v-21.36h9.12v2.88h-6.06v6.27h5.28v2.88h-5.28v6.27h6.06v3.06h-9.12Z"/>
          <path d="M89.83,82.32v-21.36h4.92c3.6,0,5.4,2.09,5.4,6.27,0,1.26-.2,2.33-.58,3.21-.39.88-1.08,1.59-2.06,2.13l3.3,9.75h-3.24l-2.85-9.12h-1.83v9.12h-3.06ZM92.89,63.83v6.66h1.74c.54,0,.97-.08,1.29-.23.32-.15.57-.36.75-.65.16-.28.27-.62.33-1.04.06-.41.09-.89.09-1.43s-.03-1.01-.09-1.43c-.06-.41-.18-.77-.36-1.06-.38-.56-1.1-.84-2.16-.84h-1.59Z"/>
          <path d="M115.52,67.1h-3.06v-.69c0-.7-.17-1.31-.5-1.82-.33-.51-.88-.77-1.67-.77-.42,0-.76.08-1.02.24-.26.16-.47.36-.63.6-.16.26-.27.56-.33.89s-.09.67-.09,1.04c0,.42.01.77.04,1.05.03.28.1.53.22.75s.29.41.53.57c.23.16.54.32.95.48l2.34.93c.68.26,1.23.57,1.65.92.42.35.75.76.99,1.22.22.48.37,1.03.45,1.64.08.61.12,1.31.12,2.09,0,.9-.09,1.74-.27,2.51-.18.77-.47,1.43-.87,1.97-.42.56-.97,1-1.65,1.32-.68.32-1.51.48-2.49.48-.74,0-1.43-.13-2.07-.39-.64-.26-1.19-.62-1.65-1.08-.46-.46-.83-1-1.1-1.61-.27-.61-.41-1.27-.41-2v-1.14h3.06v.96c0,.56.17,1.07.5,1.52.33.45.89.68,1.67.68.52,0,.93-.08,1.22-.23.29-.15.51-.36.67-.65.16-.28.25-.62.29-1.01s.04-.83.04-1.31c0-.56-.02-1.02-.06-1.38-.04-.36-.12-.65-.24-.87-.14-.22-.33-.4-.56-.54-.23-.14-.54-.29-.92-.45l-2.19-.9c-1.32-.54-2.21-1.25-2.66-2.15s-.67-2.01-.67-3.35c0-.8.11-1.56.33-2.28.22-.72.55-1.34.99-1.86.42-.52.96-.93,1.61-1.25.65-.31,1.42-.46,2.33-.46.76,0,1.46.14,2.08.42.63.28,1.17.65,1.64,1.11.92.96,1.38,2.06,1.38,3.3v1.5Z"/>
          <path d="M129.47,82.32v-21.36h3.06v21.36h-3.06Z"/>
          <path d="M138.38,82.32v-21.36h2.94l4.62,12.87h.06v-12.87h3.06v21.36h-2.88l-4.68-12.84h-.06v12.84h-3.06Z"/>
          <path d="M162.02,82.32l4.77-21.36h2.55l4.77,21.36h-3.06l-.9-4.59h-4.17l-.9,4.59h-3.06ZM169.58,74.85l-1.5-7.74h-.06l-1.5,7.74h3.06Z"/>
          <path d="M178.61,82.32v-21.36h4.92c3.6,0,5.4,2.09,5.4,6.27,0,1.26-.2,2.33-.58,3.21-.39.88-1.08,1.59-2.06,2.13l3.3,9.75h-3.24l-2.85-9.12h-1.83v9.12h-3.06ZM181.67,63.83v6.66h1.74c.54,0,.97-.08,1.29-.23.32-.15.57-.36.75-.65.16-.28.27-.62.33-1.04.06-.41.09-.89.09-1.43s-.03-1.01-.09-1.43c-.06-.41-.18-.77-.36-1.06-.38-.56-1.1-.84-2.16-.84h-1.59Z"/>
          <path d="M194.4,82.32v-21.36h2.94l3.93,11.31h.06l3.9-11.31h2.97v21.36h-3.06v-12.99h-.06l-3.03,9.18h-1.53l-3-9.18h-.06v12.99h-3.06Z"/>
          <path d="M223.98,67.1h-3.06v-.69c0-.7-.17-1.31-.5-1.82-.33-.51-.88-.77-1.67-.77-.42,0-.76.08-1.02.24-.26.16-.47.36-.63.6-.16.26-.27.56-.33.89s-.09.67-.09,1.04c0,.42.01.77.04,1.05.03.28.1.53.22.75s.29.41.53.57c.23.16.54.32.95.48l2.34.93c.68.26,1.23.57,1.65.92.42.35.75.76.99,1.22.22.48.37,1.03.45,1.64.08.61.12,1.31.12,2.09,0,.9-.09,1.74-.27,2.51-.18.77-.47,1.43-.87,1.97-.42.56-.97,1-1.65,1.32-.68.32-1.51.48-2.49.48-.74,0-1.43-.13-2.07-.39-.64-.26-1.19-.62-1.65-1.08-.46-.46-.83-1-1.1-1.61-.27-.61-.41-1.27-.41-2v-1.14h3.06v.96c0,.56.17,1.07.5,1.52.33.45.89.68,1.67.68.52,0,.93-.08,1.22-.23.29-.15.51-.36.67-.65.16-.28.25-.62.29-1.01s.04-.83.04-1.31c0-.56-.02-1.02-.06-1.38-.04-.36-.12-.65-.24-.87-.14-.22-.33-.4-.56-.54-.23-.14-.54-.29-.92-.45l-2.19-.9c-1.32-.54-2.21-1.25-2.66-2.15s-.67-2.01-.67-3.35c0-.8.11-1.56.33-2.28.22-.72.55-1.34.99-1.86.42-.52.96-.93,1.61-1.25.65-.31,1.42-.46,2.33-.46.76,0,1.46.14,2.08.42.63.28,1.17.65,1.64,1.11.92.96,1.38,2.06,1.38,3.3v1.5Z"/>
        </g>
        <g>
          <path class="cls-4" d="M37.54,97.12c0,.09-.03.14-.08.14-.22,0-.5-.01-.81-.03-.31-.02-.56-.03-.76-.03s-.45,0-.74.03c-.31.02-.57.03-.79.03-.06,0-.09-.05-.09-.14,0-.08.03-.13.08-.13.39-.05.66-.12.8-.22s.21-.28.21-.55v-.08l-.21-4.84-2.41,6.04c-.02.05-.07.08-.14.08s-.12-.03-.13-.08l-2.27-5.81-.36,4.61c0,.06,0,.11,0,.15,0,.22.08.38.23.48s.43.17.82.21c.05,0,.07.05.07.14,0,.09-.03.14-.09.14-.17,0-.41-.01-.71-.03-.28-.02-.49-.03-.65-.03-.17,0-.39,0-.68.03-.28.02-.49.03-.64.03-.05,0-.07-.05-.07-.14,0-.08.03-.13.09-.13.42-.05.71-.13.87-.24.16-.11.25-.31.28-.61l.52-4.71c0-.06,0-.11,0-.16,0-.22-.08-.37-.23-.47s-.43-.17-.83-.22c-.05,0-.07-.05-.07-.14,0-.03,0-.06.03-.09.02-.03.04-.04.06-.04.12,0,.3.01.52.03.19.02.33.03.43.03.12,0,.28-.01.5-.03.22-.02.4-.03.52-.03l2.14,5.55,2.22-5.55c.13,0,.31.01.52.03.2.02.35.03.46.03.14,0,.31-.01.5-.03.2-.02.38-.03.52-.03.06,0,.09.05.09.14s-.03.14-.08.14c-.39.05-.66.12-.8.22s-.21.28-.21.55v.08l.23,4.71c0,.23.05.4.11.49.06.09.17.17.32.22.15.06.37.1.64.13.05,0,.08.05.08.13Z"/>
          <path class="cls-4" d="M50.14,95.61c-.27.58-.49,1.13-.66,1.65-1.26-.04-2.15-.06-2.69-.06s-1.42.02-2.68.06c-.05,0-.08-.05-.08-.14,0-.08.03-.13.08-.13.28-.03.49-.08.63-.13.15-.05.25-.13.31-.22.06-.09.09-.26.09-.49v-4.71c0-.23-.03-.39-.08-.49-.05-.09-.16-.17-.3-.23-.15-.06-.36-.1-.64-.14-.05,0-.08-.05-.08-.14s.03-.14.08-.14c.84.04,1.7.06,2.58.06s1.75-.02,2.58-.06c.08.52.19,1.03.33,1.53,0,.07-.06.1-.17.1-.06,0-.09-.02-.11-.07-.25-.79-.77-1.18-1.58-1.18h-1.01c-.39,0-.58.2-.58.6v2.23h1.26c.34,0,.56-.08.68-.23s.2-.43.25-.81c0-.05.05-.08.14-.08s.14.03.14.08c0,.17,0,.38-.03.63-.02.24-.03.44-.03.6s0,.36.03.6c.02.26.03.47.03.64,0,.05-.05.08-.14.08s-.14-.03-.14-.08c-.05-.41-.14-.69-.26-.85-.12-.16-.35-.25-.67-.25h-1.26v2.46c0,.39.19.59.58.59h1.09c.4,0,.79-.13,1.18-.39.39-.26.68-.58.86-.97.01-.03.04-.05.08-.05.05,0,.09.01.12.04.04.02.05.06.05.09Z"/>
          <path class="cls-4" d="M65.77,97.12c0,.09-.03.14-.08.14-.22,0-.5-.01-.81-.03-.31-.02-.56-.03-.76-.03s-.45,0-.74.03c-.31.02-.57.03-.79.03-.06,0-.09-.05-.09-.14,0-.08.03-.13.08-.13.39-.05.66-.12.8-.22s.21-.28.21-.55v-.08l-.21-4.84-2.41,6.04c-.02.05-.07.08-.14.08s-.12-.03-.13-.08l-2.27-5.81-.36,4.61c0,.06,0,.11,0,.15,0,.22.08.38.23.48s.43.17.82.21c.05,0,.07.05.07.14,0,.09-.03.14-.09.14-.17,0-.41-.01-.71-.03-.28-.02-.49-.03-.65-.03-.17,0-.39,0-.68.03-.28.02-.49.03-.64.03-.05,0-.07-.05-.07-.14,0-.08.03-.13.09-.13.42-.05.71-.13.87-.24.16-.11.25-.31.28-.61l.52-4.71c0-.06,0-.11,0-.16,0-.22-.08-.37-.23-.47s-.43-.17-.83-.22c-.05,0-.07-.05-.07-.14,0-.03,0-.06.03-.09.02-.03.04-.04.06-.04.12,0,.3.01.52.03.19.02.33.03.43.03.12,0,.28-.01.5-.03.22-.02.4-.03.52-.03l2.14,5.55,2.22-5.55c.13,0,.31.01.52.03.2.02.35.03.46.03.14,0,.31-.01.5-.03.2-.02.38-.03.52-.03.06,0,.09.05.09.14s-.03.14-.08.14c-.39.05-.66.12-.8.22s-.21.28-.21.55v.08l.23,4.71c0,.23.05.4.11.49.06.09.17.17.32.22.15.06.37.1.64.13.05,0,.08.05.08.13Z"/>
          <path class="cls-4" d="M79.79,93.82c0,1.06-.34,1.92-1.02,2.59-.68.67-1.57,1.01-2.67,1.01s-1.98-.34-2.66-1.01c-.68-.67-1.02-1.54-1.02-2.59s.34-1.94,1.02-2.63c.68-.69,1.57-1.04,2.66-1.04s1.98.35,2.66,1.04c.68.69,1.03,1.57,1.03,2.63ZM78.69,93.82c0-.98-.24-1.79-.71-2.41-.48-.62-1.1-.94-1.87-.94s-1.4.31-1.87.94c-.47.62-.71,1.43-.71,2.41s.23,1.77.7,2.37c.47.6,1.09.91,1.88.91s1.41-.3,1.88-.91.71-1.4.71-2.37Z"/>
          <path class="cls-4" d="M93.49,97.12c0,.09-.03.14-.08.14-.12,0-.33-.01-.61-.04-.2-.02-.34-.02-.4-.02-.1,0-.25,0-.46.03-.21.02-.36.03-.46.03l-1.51-2.47c-.21-.34-.39-.56-.52-.66-.13-.1-.4-.15-.79-.15v2.15c0,.23.03.39.09.49.06.09.16.17.31.22.15.06.36.1.64.13.06,0,.08.05.08.13,0,.09-.03.14-.08.14-.22,0-.49-.01-.8-.03-.3-.02-.55-.03-.75-.03s-.45,0-.75.03c-.31.02-.57.03-.79.03-.05,0-.08-.05-.08-.14,0-.08.03-.13.08-.13.28-.03.49-.08.63-.13.15-.05.25-.13.31-.22.06-.09.09-.26.09-.49v-4.71c0-.23-.03-.39-.08-.49-.05-.09-.16-.17-.3-.23-.15-.06-.36-.1-.64-.14-.05,0-.08-.05-.08-.14s.03-.14.08-.14c.22,0,.49.01.79.03.29.02.54.03.75.03s.45-.01.75-.03c.31-.02.58-.03.8-.03.74,0,1.32.16,1.72.47.41.31.61.75.61,1.31,0,.36-.13.69-.4.99-.27.3-.63.54-1.09.7l1.54,2.51c.13.22.31.38.52.49.21.1.48.18.82.22.05,0,.07.05.07.13ZM90.94,92.11c0-.98-.43-1.46-1.28-1.46-.28,0-.49.02-.64.07-.14.04-.24.12-.29.21-.05.1-.07.27-.07.51v2.23c.19.03.44.04.73.04.54,0,.93-.13,1.17-.38.25-.25.37-.66.37-1.22Z"/>
          <path class="cls-4" d="M103.4,97.12c0,.09-.03.14-.08.14-.22,0-.49-.01-.79-.03-.29-.02-.54-.03-.75-.03s-.45,0-.75.03c-.31.02-.58.03-.8.03-.05,0-.08-.05-.08-.14,0-.08.03-.13.08-.13.4-.05.68-.12.82-.23.15-.1.22-.31.22-.62v-4.71c0-.23-.03-.4-.09-.49s-.16-.17-.31-.23-.36-.1-.64-.13c-.05,0-.08-.05-.08-.14s.03-.14.08-.14c.23,0,.5.01.8.03.29.02.54.03.75.03s.45-.01.75-.03c.31-.02.57-.03.79-.03.05,0,.08.05.08.14s-.03.14-.08.14c-.28.03-.49.08-.64.13-.15.06-.25.13-.31.22s-.08.26-.08.5v4.71c0,.23.03.39.08.49s.16.17.3.23c.15.06.36.1.64.13.06,0,.08.05.08.13Z"/>
          <path class="cls-4" d="M117.31,97.12c0,.09-.03.14-.08.14-.23,0-.49-.01-.78-.03-.25-.02-.46-.03-.64-.03-.2,0-.46,0-.75.03-.32.02-.59.03-.81.03-.05,0-.08-.05-.08-.14s.02-.14.06-.14c.3-.01.51-.05.64-.12s.2-.17.2-.3c0-.09-.03-.23-.1-.42l-.57-1.67h-2.05l-.57,1.55c-.07.21-.11.37-.11.48,0,.29.27.46.81.48.04,0,.06.05.06.14s-.03.14-.08.14c-.2,0-.42-.01-.67-.03-.23-.02-.43-.03-.61-.03-.14,0-.32,0-.54.03-.23.02-.42.03-.58.03-.05,0-.07-.04-.07-.12,0-.09.04-.14.11-.15.28-.03.5-.1.66-.23.16-.13.33-.39.5-.78l2.34-5.74c.02-.05.07-.08.14-.08.08,0,.13.02.15.07l2.07,5.75c.12.32.27.56.47.72s.46.25.8.29c.07,0,.1.05.1.13ZM114.28,94.15l-.88-2.55-.95,2.55h1.82Z"/>
          <path class="cls-4" d="M129.47,95.42c-.16.59-.28,1.2-.37,1.84-1.28-.04-2.19-.06-2.73-.06s-1.43.02-2.69.06c-.05,0-.08-.05-.08-.14,0-.08.03-.13.08-.13.4-.05.68-.12.82-.23.14-.1.22-.31.22-.62v-4.71c0-.23-.03-.4-.09-.49s-.16-.17-.31-.23-.36-.1-.64-.13c-.05,0-.08-.05-.08-.14s.03-.14.08-.14c.22,0,.49.01.8.03.3.02.55.03.75.03s.45-.01.75-.03c.31-.02.57-.03.79-.03.05,0,.08.05.08.14s-.03.14-.08.14c-.28.03-.49.08-.64.13-.15.06-.25.13-.3.22s-.08.26-.08.5v4.86c0,.39.19.59.58.59h.99c.41,0,.76-.11,1.04-.33s.56-.63.84-1.22c.01-.03.04-.04.09-.04.04,0,.08.01.12.04.04.03.06.06.06.09Z"/>
          <path class="cls-4" d="M149.96,92.35c0,.59-.23,1.08-.68,1.48s-1.01.6-1.67.6c-.4,0-.79-.02-1.18-.05v1.77c0,.23.03.4.09.49.06.09.16.17.3.22.14.06.36.1.64.13.05,0,.08.05.08.13,0,.09-.03.14-.08.14-.22,0-.49-.01-.79-.03-.29-.02-.54-.03-.75-.03s-.45,0-.75.03c-.31.02-.58.03-.8.03-.05,0-.08-.05-.08-.14,0-.08.03-.13.08-.13.4-.05.68-.12.82-.23.14-.1.22-.31.22-.62v-4.71c0-.23-.03-.4-.09-.49s-.16-.17-.31-.23-.36-.1-.64-.13c-.05,0-.08-.05-.08-.14s.03-.14.08-.14c.22,0,.49.01.8.03.3.02.55.03.75.03s.45-.01.74-.03c.31-.02.57-.03.79-.03.82,0,1.44.17,1.87.52.42.35.64.85.64,1.52ZM148.85,92.35c0-.54-.13-.95-.39-1.25-.26-.3-.61-.45-1.04-.45-.26,0-.46.02-.6.06-.14.04-.24.11-.3.2-.06.09-.09.27-.09.54v2.3c0,.14.04.24.13.29s.29.07.58.07c.54,0,.96-.16,1.26-.47.3-.31.44-.74.44-1.28Z"/>
          <path class="cls-4" d="M163.17,97.12c0,.09-.03.14-.08.14-.23,0-.49-.01-.78-.03-.25-.02-.46-.03-.64-.03-.2,0-.46,0-.75.03-.32.02-.59.03-.81.03-.05,0-.08-.05-.08-.14s.02-.14.06-.14c.3-.01.51-.05.64-.12s.2-.17.2-.3c0-.09-.03-.23-.1-.42l-.57-1.67h-2.05l-.57,1.55c-.07.21-.11.37-.11.48,0,.29.27.46.81.48.04,0,.06.05.06.14s-.03.14-.08.14c-.2,0-.42-.01-.67-.03-.23-.02-.43-.03-.61-.03-.14,0-.32,0-.54.03-.23.02-.42.03-.58.03-.05,0-.07-.04-.07-.12,0-.09.04-.14.11-.15.28-.03.5-.1.66-.23.16-.13.33-.39.5-.78l2.34-5.74c.02-.05.07-.08.14-.08.08,0,.13.02.15.07l2.07,5.75c.12.32.27.56.47.72s.46.25.8.29c.07,0,.1.05.1.13ZM160.14,94.15l-.88-2.55-.95,2.55h1.82Z"/>
          <path class="cls-4" d="M176.43,97.12c0,.09-.03.14-.08.14-.12,0-.33-.01-.61-.04-.2-.02-.34-.02-.4-.02-.1,0-.25,0-.46.03-.21.02-.36.03-.46.03l-1.51-2.47c-.21-.34-.39-.56-.52-.66-.13-.1-.4-.15-.79-.15v2.15c0,.23.03.39.09.49.06.09.16.17.31.22.15.06.36.1.64.13.06,0,.08.05.08.13,0,.09-.03.14-.08.14-.22,0-.49-.01-.8-.03-.3-.02-.55-.03-.75-.03s-.45,0-.75.03c-.31.02-.57.03-.79.03-.05,0-.08-.05-.08-.14,0-.08.03-.13.08-.13.28-.03.49-.08.63-.13.15-.05.25-.13.31-.22.06-.09.09-.26.09-.49v-4.71c0-.23-.03-.39-.08-.49-.05-.09-.16-.17-.3-.23-.15-.06-.36-.1-.64-.14-.05,0-.08-.05-.08-.14s.03-.14.08-.14c.22,0,.49.01.79.03.29.02.54.03.75.03s.45-.01.75-.03c.31-.02.58-.03.8-.03.74,0,1.32.16,1.72.47.41.31.61.75.61,1.31,0,.36-.13.69-.4.99-.27.3-.63.54-1.09.7l1.54,2.51c.13.22.31.38.52.49.21.1.48.18.82.22.05,0,.07.05.07.13ZM173.88,92.11c0-.98-.43-1.46-1.28-1.46-.28,0-.49.02-.64.07-.14.04-.24.12-.29.21-.05.1-.07.27-.07.51v2.23c.19.03.44.04.73.04.54,0,.93-.13,1.17-.38.25-.25.37-.66.37-1.22Z"/>
          <path class="cls-4" d="M190.39,97.12c0,.09-.03.14-.08.14-.22,0-.49-.01-.8-.03-.3-.02-.55-.03-.75-.03s-.47,0-.82.03c-.36.02-.66.03-.88.03-.05,0-.08-.05-.08-.14,0-.08.02-.13.07-.13.45-.05.67-.16.67-.33,0-.09-.07-.21-.22-.36l-1.99-2.02c-.11-.11-.2-.18-.28-.21s-.19-.05-.32-.05v2.12c0,.23.03.39.09.49.06.09.16.17.31.22.15.06.36.1.64.13.06,0,.08.05.08.13,0,.09-.03.14-.08.14-.22,0-.49-.01-.8-.03-.3-.02-.55-.03-.75-.03s-.45,0-.74.03c-.31.02-.58.03-.8.03-.05,0-.08-.05-.08-.14,0-.08.03-.13.08-.13.4-.05.68-.12.82-.23.14-.1.22-.31.22-.62v-4.71c0-.23-.03-.4-.09-.49s-.16-.17-.31-.23-.36-.1-.64-.13c-.05,0-.08-.05-.08-.14s.03-.14.08-.14c.22,0,.49.01.8.03.29.02.54.03.74.03s.46-.01.75-.03c.31-.02.58-.03.8-.03.05,0,.08.05.08.14s-.03.14-.08.14c-.28.03-.5.08-.65.13-.15.06-.25.13-.31.23-.06.09-.09.26-.09.49v2.27c.13,0,.24-.02.32-.05.08-.03.17-.1.28-.21l2.2-2.17c.18-.17.27-.3.27-.37,0-.09-.04-.16-.13-.2-.08-.05-.26-.08-.51-.12-.05,0-.08-.05-.08-.14s.03-.14.09-.14c.16,0,.36.01.62.03.27.02.5.03.68.03s.38-.01.6-.04c.18-.02.34-.02.47-.02.05,0,.07.05.07.14s-.03.14-.08.14c-.32.04-.57.11-.75.2-.18.09-.4.26-.66.5l-2.29,2.17,2.83,2.88c.2.21.39.35.58.44s.48.16.86.21c.06,0,.09.05.09.13Z"/>
        </g>
      </g>
      <g>
        <rect class="cls-2" x="87.31" width="48.71" height="48.71"/>
        <path class="cls-1" d="M126.32,16.83c-3.29,2.04-7.04,3.42-11.06,3.94.52-4.02,1.89-7.77,3.94-11.06h-15.06c2.04,3.29,3.42,7.04,3.94,11.06-4.02-.52-7.77-1.89-11.06-3.94v15.06c3.29-2.04,7.04-3.42,11.06-3.94-.52,4.02-1.89,7.77-3.94,11.06h15.06c-2.04-3.29-3.42-7.04-3.94-11.06,4.02.52,7.77,1.89,11.06,3.94v-15.06Z"/>
        <rect class="cls-4" x="39.28" width="48.71" height="48.71"/>
        <g>
          <path class="cls-1" d="M63.58,36.27l-7.42,2.44c-.14.05-.27-.1-.2-.23l1.75-3.7c.05-.1-.01-.22-.12-.24l-9.55-1.7c-.13-.02-.18-.19-.09-.28l2.14-2.14c.06-.06.07-.15.02-.22l-4.43-6.11c-.08-.11,0-.27.14-.27h6.78c.09,0,.17-.08.17-.17v-3.28c0-.14.17-.22.27-.13l3.92,3.25c.13.1.31-.01.27-.17l-2.58-10.02c-.04-.14.1-.25.23-.19l4.12,1.91c.08.04.18,0,.22-.08l4.26-8.51c.06-.12.24-.12.3,0l4.26,8.51c.04.08.14.12.22.08l4.12-1.91c.13-.06.27.06.23.19l-2.58,10.02c-.04.16.14.27.27.17l3.92-3.25c.11-.09.27-.01.27.13v3.28c0,.09.08.17.17.17h6.78c.14,0,.22.16.14.27l-4.43,6.11c-.05.07-.04.16.02.22l2.14,2.14c.1.1.04.26-.09.28l-9.55,1.7c-.11.02-.17.14-.12.24l1.75,3.7c.06.13-.06.28-.2.23l-7.42-2.44s-.07-.01-.1,0Z"/>
          <polygon class="cls-1" points="64.06 36.25 64.53 42.37 62.74 42.37 63.21 36.25 64.06 36.25 64.06 36.25"/>
        </g>
        <rect class="cls-3" x="136.03" width="48.67" height="48.71"/>
        <g>
          <path class="cls-1" d="M159.17,21.36c-1.65.66-2.45,2.54-1.79,4.19s2.53,2.45,4.18,1.79c1.65-.66,2.45-2.54,1.79-4.19-.66-1.65-2.53-2.45-4.18-1.79Z"/>
          <path class="cls-1" d="M160.36,6.85c-9.64,0-17.49,7.85-17.49,17.5s7.85,17.5,17.49,17.5,17.49-7.85,17.49-17.5-7.85-17.5-17.49-17.5ZM175.52,27.53c-.14.69-.35,1.36-.58,2.02-.38.06-.73.3-.89.68-.17.39-.1.81.12,1.13-.32.63-.68,1.24-1.08,1.81-.38-.04-.78.1-1.04.42-.26.33-.31.74-.19,1.11-.47.52-.97,1.02-1.51,1.47-.36-.14-.78-.11-1.12.14-.34.25-.49.65-.47,1.04-.59.38-1.21.72-1.84,1.02-.32-.23-.72-.3-1.11-.16-.4.15-.65.5-.72.89-.66.21-1.35.37-2.04.5-.24-.3-.62-.49-1.03-.45-.42.05-.75.31-.93.66-.24.01-.48.04-.73.04-.46,0-.92-.03-1.37-.07-.15-.36-.47-.64-.89-.71-.41-.06-.81.11-1.07.41-.69-.15-1.36-.36-2.01-.6-.06-.38-.29-.73-.67-.9-.39-.17-.81-.11-1.14.11-.63-.33-1.23-.7-1.8-1.11.04-.38-.09-.77-.41-1.04-.32-.26-.74-.31-1.1-.19-.52-.48-1.02-.98-1.47-1.52.15-.36.12-.78-.13-1.13-.24-.34-.63-.5-1.02-.48-.37-.59-.71-1.21-1-1.85.23-.31.31-.73.17-1.12-.15-.4-.5-.66-.89-.73-.21-.66-.35-1.35-.47-2.05.3-.24.49-.61.45-1.03-.04-.42-.3-.75-.64-.93,0-.19-.03-.37-.03-.56,0-.52.03-1.03.08-1.54.36-.15.65-.46.72-.88.07-.41-.09-.81-.39-1.07.16-.69.37-1.36.62-2.02.38-.05.73-.28.91-.66.18-.38.12-.81-.1-1.14.34-.63.72-1.22,1.14-1.79.38.05.77-.08,1.03-.39.27-.32.33-.74.21-1.11.48-.51.99-1,1.54-1.45.36.15.78.13,1.12-.11.34-.24.5-.63.49-1.02.41-.25.83-.49,1.26-.7.32.22.73.28,1.11.13.39-.16.63-.5.7-.89.66-.23,1.33-.42,2.03-.56.25.3.64.48,1.05.42.42-.05.74-.32.91-.67.35-.02.71-.05,1.07-.05s.7.03,1.04.05c.16.35.48.62.9.68.42.06.81-.13,1.06-.43.7.14,1.37.33,2.03.56.07.38.31.72.69.89.38.16.8.09,1.12-.13.63.31,1.25.66,1.83,1.05-.04.39.1.78.43,1.04.33.26.74.3,1.11.17.53.47,1.03.97,1.49,1.5-.13.36-.1.77.15,1.11.26.34.65.49,1.04.46.39.59.73,1.2,1.03,1.84-.22.32-.29.73-.14,1.11.16.39.5.64.89.71.22.66.4,1.34.53,2.03-.3.25-.48.62-.43,1.04.05.42.31.75.66.92.02.3.05.6.05.9,0,.41-.03.81-.06,1.21-.35.16-.63.48-.69.9-.06.42.12.81.42,1.07Z"/>
        </g>
      </g>
    </g>
  </g>
</svg>