<?xml version="1.0" encoding="UTF-8"?>
<svg id="Layer_2" data-name="Layer 2" xmlns="http://www.w3.org/2000/svg" viewBox="0 0 60.32 20.13">
  <defs>
    <style>
      .cls-1 {
        fill: #fff;
      }

      .cls-2 {
        fill: #1e451f;
      }

      .cls-3 {
        fill: #ff671f;
      }

      .cls-4 {
        fill: #d80621;
      }
    </style>
  </defs>
  <g id="Layer_1-2" data-name="Layer 1">
    <g>
      <rect class="cls-4" width="20.13" height="20.13"/>
      <rect class="cls-2" x="20.13" width="20.13" height="20.13"/>
      <g>
        <path class="cls-1" d="M10.06,15.55l-3.06,1.01c-.06.02-.11-.04-.08-.1l.73-1.53s0-.09-.05-.1l-3.94-.7c-.06,0-.08-.08-.04-.12l.88-.88s.03-.06,0-.09l-1.83-2.53s0-.11.06-.11h2.8s.07-.03.07-.07v-1.36c0-.06.07-.09.11-.05l1.62,1.34c.05.04.13,0,.11-.07l-1.07-4.14c-.01-.06.04-.1.1-.08l1.7.79s.07,0,.09-.03l1.76-3.52c.03-.05.1-.05.12,0l1.76,3.52s.06.05.09.03l1.7-.79c.05-.02.11.02.1.08l-1.07,4.14c-.02.07.06.11.11.07l1.62-1.34s.11,0,.11.05v1.36s.03.07.07.07h2.8c.06,0,.09.06.06.11l-1.83,2.53s-.02.07,0,.09l.88.88s.02.11-.04.12l-3.94.7s-.07.06-.05.1l.73,1.53c.03.05-.03.11-.08.1l-3.06-1.01s-.03,0-.04,0Z"/>
        <polygon class="cls-1" points="10.26 15.54 10.45 18.07 9.71 18.07 9.91 15.54 10.26 15.54 10.26 15.54"/>
      </g>
      <rect class="cls-3" x="40.25" width="20.07" height="20.13"/>
      <ellipse class="cls-1" cx="50.28" cy="9.98" rx="1.4" ry="1.41"/>
      <path class="cls-1" d="M50.28,17.6c-4.19,0-7.6-3.42-7.6-7.62s3.41-7.62,7.6-7.62,7.6,3.42,7.6,7.62-3.41,7.62-7.6,7.62ZM50.28,3.18c-3.74,0-6.78,3.05-6.78,6.8s3.04,6.8,6.78,6.8,6.78-3.05,6.78-6.8-3.04-6.8-6.78-6.8Z"/>
      <path class="cls-1" d="M27.34,16.87h5.72c-.82-1.53-1.35-3.19-1.58-4.93l-.09-.66.66.09c1.74.22,3.4.75,4.93,1.58v-5.71c-1.53.82-3.19,1.35-4.93,1.58l-.66.09.09-.66c.23-1.74.76-3.4,1.58-4.93h-5.72c.82,1.53,1.35,3.19,1.58,4.93l.09.66-.66-.09c-1.74-.22-3.4-.76-4.93-1.58v5.72c1.53-.82,3.19-1.35,4.93-1.58l.66-.09-.09.66c-.23,1.74-.76,3.4-1.58,4.93Z"/>
    </g>
  </g>
</svg>