<?xml version="1.0" encoding="UTF-8"?>
<svg id="Layer_2" data-name="Layer 2" xmlns="http://www.w3.org/2000/svg" viewBox="0 0 223.98 183.63">
  <defs>
    <style>
      .cls-1 {
        fill: #fdfdfe;
      }

      .cls-2 {
        fill: #c2332f;
      }

      .cls-3 {
        fill: #08058d;
      }

      .cls-4 {
        fill: #1e451f;
      }

      .cls-5 {
        fill: #06038d;
      }

      .cls-6 {
        fill: #fff;
        stroke-width: 1.45px;
      }

      .cls-6, .cls-7 {
        stroke: #1e451f;
        stroke-miterlimit: 10;
      }

      .cls-8 {
        fill: #d80621;
      }

      .cls-7 {
        fill: none;
        stroke-width: 5.79px;
      }
    </style>
  </defs>
  <g id="Brothers_in_arms_logo" data-name="Brothers in arms_logo">
    <g>
      <g>
        <circle class="cls-7" cx="111.16" cy="69.5" r="66.61"/>
        <circle class="cls-4" cx="111.16" cy="69.5" r="54.95"/>
        <path class="cls-2" d="M103.03,37.61c5.26-.28,11.57-.13,16.83.16"/>
        <path class="cls-2" d="M138.78,100.81s-5.67-.81-17.23-2.75c-.74-.12-1.5-.25-2.29-.39-7.16,0-17.32,1.12-17.32,1.12,0,0-16.59,2.3-16.57,2.02.26-4.95,1.92-9.38.59-10.05-6.85-7.05-12.73-13.62-21.06-21.67-.42-.4-.95-.81-.98-1.45.05-.27,4.55-.99,5.25-1.27,1.07-.42,1.21-1.07,1.07-2.15-.45-3.57-1.76-7.4-2.54-10.93-.28-1.24-.92-3.73-1.01-4.85-.05-.73.18-.77.84-.67,3.23.46,8.45,3.39,11.57,3.39,1.97,0,1.59-1.04,1.91-2.33.4-1.64.83-3.27,1.06-4.95.16-.42.69-.44,1.07-.36.09.02,1.27,1.06,1.42,1.21,2.81,2.75,5.94,6.6,9.01,9.01.67.53,1.24,1.06,1.97.43.69-.6.81-1.23.69-2.12-.81-6.38-3.02-13.28-4.16-19.71-.2-1.14-.43-2.29-.37-3.44.39-.02.75-.02,1.14.08,1.85.46,4.1,2.26,6,2.93,4.04,1.42,3.61.05,5.36-2.77,2.15-3.46,4.23-7.04,6.43-10.46.68-1.06,1.24-1.75,2.15-.39,2.63,4.12,4.91,8.49,7.53,12.61.94,1.48,1.15,2.08,3.05,1.48,2.38-.74,5.34-2.83,7.6-3.44.22-.06.72-.15.87.05.16.42.17.82.13,1.27-.31,3.05-1.35,7.4-1.97,10.53-.71,3.61-2.09,7.91-2.54,11.42-.21,1.63.95,2.75,2.46,1.69,1.36-.95,3.44-3.44,4.75-4.72.77-.75,1.7-1.4,2.46-2.16.83-.82,1.51-1.94,2.41-2.71.54-.46,1.18-1.18,1.89-.58.91.77,1.3,5.3,1.69,6.59.46.55,1.15,1.09,1.9.95,1.88-.74,3.88-1.08,5.8-1.68,1.5-.47,3.61-1.55,5-1.82,1.58-.31.99,1.51.81,2.6-.7,4.14-2.66,8.93-3.19,12.88-.08.56-.12,2.13.23,2.52.76.83,5,1.16,6.1,1.87.11.38.54,1.33.22,1.62-6.52,6.76-12.16,10.19-15.38,13.62-2.82,2.21-8.49,5.41-8.37,9.94,1.24,3.33,2.59,8,2.59,8"/>
        <path class="cls-6" d="M101.23,34.89c1.81,3.44,3.32,9.89,4.35,17.09-4.89,1.76-8.86,5.35-11.07,9.93-4.87-1.08-10.16-2.6-13.91-4.62v24.94c4.35-2.29,8.77-4.05,13.27-5.22,2.08,5.47,6.59,9.76,12.24,11.62l-1.53,14.03c3.71,3.57,2.75,10.54,1.95,19.83h11.15c-1.16-7.39-1.97-16.25,1.09-19.53l-.24-14.31c5.46-1.77,9.87-5.81,12.06-10.99,5.27.06,12.46,3.09,12.46,3.09v-22.56c-3.92,1.95-8.16,3.28-12.63,4.21-2.12-4.74-6.11-8.47-11.05-10.32.94-7.73,4.43-17.31,4.43-17.31l-22.59.12Z"/>
        <g>
          <path class="cls-5" d="M127.17,70.49c0,8.14-6.6,14.73-14.73,14.73s-14.73-6.6-14.73-14.73,6.6-14.73,14.73-14.73,14.73,6.6,14.73,14.73ZM113.55,57.8l-.74-.05h-.73s-.76.05-.76.05c.04.25-.13.51-.37.59-.34.11-.66-.11-.73-.45-.72.14-1.43.31-2.12.57,0,.07.03.14.03.22-.02.59-.82.76-1.07.22h-.02c-.65.32-1.3.66-1.89,1.1.01.06.05.09.07.15.15.47-.34.9-.79.67-.05-.03-.15-.13-.17-.13-.02,0-.03,0-.05.01-.54.46-1.05.97-1.51,1.51-.03.05.04.08.07.12.33.46-.11,1.05-.64.86-.05-.02-.1-.08-.15-.05-.42.59-.78,1.23-1.09,1.89.63.33.28,1.24-.41,1.05l-.03.02c-.25.69-.44,1.4-.57,2.12.33.05.55.39.45.71-.07.25-.34.43-.59.39l-.05.72v.78l.05.72c.25-.05.51.13.59.37.11.34-.11.66-.45.73.14.72.31,1.43.57,2.12.16-.03.29-.04.45.03.43.19.42.82,0,1.01v.02c.32.65.66,1.31,1.1,1.89.06-.01.09-.05.15-.07.47-.15.9.34.67.79-.04.07-.1.11-.14.18.45.57.98,1.07,1.53,1.55.05.03.08-.04.12-.07.46-.33,1.05.11.86.64-.02.05-.08.1-.05.15.6.42,1.23.78,1.89,1.09.33-.63,1.24-.28,1.05.41l.02.03c.69.25,1.4.44,2.12.57.14-.71,1.16-.58,1.1.14l.74.05h.75l.74-.05c-.05-.25.14-.51.37-.59.34-.11.66.11.73.45.72-.14,1.43-.31,2.12-.57-.03-.16-.04-.29.03-.45.19-.43.82-.42,1.01,0h.02c.65-.32,1.31-.66,1.89-1.1-.01-.06-.05-.09-.07-.15-.15-.47.34-.9.79-.67.07.04.11.1.18.14.57-.45,1.07-.98,1.55-1.53.03-.05-.04-.08-.07-.12-.33-.46.11-1.05.64-.86.05.02.1.08.15.05.42-.59.78-1.23,1.09-1.89-.52-.24-.39-1.03.18-1.08.06,0,.23.04.25.02.25-.69.44-1.4.57-2.12-.33-.05-.55-.39-.45-.71.07-.24.34-.43.59-.39l.05-.74v-.75l-.05-.74c-.25.05-.51-.14-.59-.37-.11-.34.11-.66.45-.73-.14-.72-.31-1.43-.57-2.12-.07,0-.14.03-.22.03-.59-.02-.76-.82-.22-1.07v-.02c-.32-.65-.66-1.31-1.1-1.89-.06.01-.09.05-.15.07-.47.15-.9-.34-.67-.79.04-.07.1-.11.14-.18-.45-.57-.98-1.07-1.53-1.55-.05-.03-.08.04-.12.07-.46.33-1.05-.11-.86-.64.02-.05.08-.1.05-.15-.59-.42-1.23-.78-1.89-1.09-.33.63-1.24.28-1.05-.41l-.02-.03c-.69-.25-1.4-.44-2.12-.57-.05.33-.39.55-.71.45-.24-.07-.43-.34-.39-.59Z"/>
          <path class="cls-1" d="M113.55,57.8c-.05.26.14.52.39.59.33.1.66-.12.71-.45.72.13,1.43.31,2.12.57l.02.03c-.2.69.72,1.04,1.05.41.66.31,1.29.67,1.89,1.09.04.05-.03.09-.05.15-.18.54.4.97.86.64.04-.03.07-.1.12-.07.55.47,1.08.98,1.53,1.55-.04.07-.1.11-.14.18-.22.45.2.94.67.79.06-.02.1-.06.15-.07.44.58.78,1.23,1.11,1.89v.02c-.54.25-.38,1.05.22,1.07.08,0,.14-.03.22-.03.26.68.44,1.4.57,2.12-.34.07-.56.39-.45.73.08.24.34.42.59.37l.05.74v.75l-.05.74c-.26-.05-.52.14-.59.39-.1.33.12.66.45.71-.13.72-.31,1.43-.57,2.12-.02.03-.19-.02-.25-.02-.58.04-.71.83-.18,1.08-.31.66-.67,1.29-1.09,1.89-.05.04-.09-.03-.15-.05-.54-.18-.97.4-.64.86.03.04.1.07.07.12-.47.55-.98,1.08-1.55,1.53-.07-.04-.11-.1-.18-.14-.45-.22-.94.2-.79.67.02.06.06.1.07.15-.58.44-1.23.79-1.89,1.11h-.02c-.19-.43-.82-.44-1.01-.01-.07.16-.06.28-.03.45-.68.26-1.4.44-2.12.57-.07-.34-.39-.56-.73-.45-.24.08-.42.34-.37.59l-.74.05h-.75l-.74-.05c.06-.72-.96-.86-1.1-.14-.72-.13-1.43-.31-2.12-.57l-.02-.03c.19-.69-.72-1.04-1.05-.41-.66-.31-1.29-.67-1.89-1.09-.04-.05.03-.09.05-.15.18-.54-.4-.97-.86-.64-.04.03-.07.1-.12.07-.55-.47-1.08-.98-1.53-1.55.04-.07.1-.11.14-.18.22-.45-.2-.94-.67-.79-.06.02-.1.06-.15.07-.44-.58-.79-1.23-1.11-1.89v-.02c.43-.19.44-.82.01-1.01-.16-.07-.28-.06-.45-.03-.26-.68-.44-1.4-.57-2.12.34-.07.56-.39.45-.73-.08-.24-.34-.42-.59-.37l-.05-.72v-.78l.05-.72c.26.05.52-.14.59-.39.1-.33-.12-.66-.45-.71.13-.72.31-1.43.57-2.12l.03-.02c.69.19,1.04-.72.41-1.05.31-.66.67-1.29,1.09-1.89.05-.04.09.03.15.05.54.18.97-.4.64-.86-.03-.04-.1-.07-.07-.12.46-.55.97-1.05,1.51-1.51.01-.01.03-.02.05-.01.02,0,.12.11.17.13.45.22.94-.2.79-.67-.02-.06-.06-.1-.07-.15.58-.44,1.23-.79,1.89-1.11h.02c.25.54,1.05.37,1.07-.22,0-.08-.03-.14-.03-.22.68-.26,1.4-.44,2.12-.57.07.34.39.56.73.45.24-.08.42-.34.37-.59l.76-.05h.73s.74.05.74.05ZM112.45,57.93l-.03.02-.46,7.39.32,2.6-.35.05-.34-2.53-2.38-7.09-.03.02,1.48,7.31.97,2.39-.33.11-.99-2.36-4.11-6.21-.03.02,3.31,6.66,1.55,2.04s-.01.03-.02.04c-.01.01-.2.16-.22.17s-.02.01-.04,0l-1.58-2.02-5.61-4.95-.02.02,4.95,5.61,2.01,1.56.02.03s0,.02,0,.02c0,.01-.17.23-.18.23-.02.01-.03,0-.04,0l-2.02-1.53c-2.13-1.02-4.22-2.14-6.36-3.16-.09-.05-.23-.12-.32-.15-.02,0-.05-.02-.05,0,.03,0,.03,0,.05.02,2.01,1.44,4.18,2.7,6.2,4.12l2.36.99-.11.32s-.07,0-.1-.02c-.76-.25-1.51-.66-2.27-.93l-7.36-1.47,7.1,2.4,2.53.34-.05.35-2.6-.32-7.4.47s.03.02.06.02c2.45.11,4.89.33,7.34.46l2.6-.32.05.35-2.53.34-7.1,2.39s.12,0,.16-.01c2.41-.42,4.79-1.02,7.19-1.45.76-.26,1.52-.68,2.27-.93.03-.01.06-.03.1-.02l.11.32-2.36.99c-2.02,1.42-4.2,2.68-6.2,4.12-.02.01-.02.02-.05.02,0,.03.03.01.05,0,.09-.03.23-.11.32-.15,2.13-1.02,4.23-2.14,6.36-3.16l2.02-1.53s.02-.02.04,0c.01,0,.18.22.18.23,0,0,0,.01,0,.02l-.02.03-2.01,1.56-4.95,5.61.02.02,5.61-4.95,1.58-2.02s.02,0,.04,0,.2.15.22.17c.01.01.03.02.02.04l-1.55,2.04-3.31,6.66.03.02,4.11-6.21.99-2.36.33.11-.97,2.39-1.48,7.31.03.02,2.38-7.09.34-2.53.35.05-.32,2.6c.2,2.39.25,4.79.45,7.18,0,.03.01.2.02.2.04.01.02-.03.02-.06.19-2.44.27-4.89.46-7.33l-.32-2.6.35-.05.34,2.53,2.38,7.1v-.1s-1.45-7.25-1.45-7.25c-.25-.76-.71-1.54-.94-2.3,0-.03-.02-.06-.01-.09l.32-.11.99,2.36c1.42,2.02,2.68,4.2,4.12,6.2.01.02.02.02.02.05v-.05s-3.31-6.68-3.31-6.68l-1.53-2.02v-.04s.25-.19.25-.19l.03.02,1.56,2.01,5.59,4.94.02-.02-4.94-5.59-2.02-1.58s0-.02,0-.04.15-.2.17-.22c.01-.01.02-.03.04-.02l2.04,1.55,6.68,3.31s-.01-.03-.03-.04c-.15-.11-.33-.22-.49-.33l-5.69-3.77-2.36-.99.11-.32s.06,0,.09.01c.75.23,1.54.69,2.3.94l7.39,1.49-7.15-2.41-2.53-.34.05-.35,2.6.32,7.41-.46s-.03-.03-.06-.03c-.06,0-.12-.01-.18-.02-2.39-.2-4.78-.25-7.17-.45l-2.62.32-.05-.35,2.53-.34,7.15-2.4h-.07s-7.33,1.47-7.33,1.47c-.76.25-1.54.71-2.3.94-.03,0-.06.02-.09.01l-.11-.32,2.36-.99,6.21-4.11-.02-.03-6.66,3.31-2.04,1.55s-.03-.01-.04-.02c-.01-.01-.16-.2-.17-.22s-.01-.02,0-.04l2.02-1.58,4.94-5.59-.02-.02-5.59,4.94-1.56,2.01-.03.02-.26-.19v-.04s1.54-2.02,1.54-2.02c1-2.05,2.05-4.08,3.05-6.14.09-.18.21-.39.28-.57,0-.01.03-.05,0-.04l-.02.06-4.13,6.21-.99,2.36-.32-.11s0-.06.01-.09c.22-.75.69-1.54.94-2.3l1.47-7.33s-.02.03-.03.04c-.05.14-.1.29-.15.43-.76,2.2-1.46,4.42-2.22,6.62l-.34,2.53-.35-.05.32-2.6-.46-7.41ZM106.15,59.57h-.03s.04.05.04.05v-.05ZM123.36,64.18h-.02s-.02.02-.02.02h.05v-.02ZM123.36,76.78h-.05s.04.03.04.03v-.03ZM106.15,81.42v-.05s-.03.04-.03.04h.03Z"/>
          <path class="cls-3" d="M112.45,57.93l.46,7.41-.32,2.6.35.05.34-2.53c.76-2.2,1.46-4.42,2.22-6.62.05-.14.09-.29.15-.43,0-.02,0-.05.03-.04l-1.47,7.33c-.24.76-.71,1.55-.94,2.3,0,.03-.02.06-.01.09l.32.11.99-2.36,4.13-6.21.02-.06s0,.03,0,.04c-.07.18-.19.39-.28.57-1,2.05-2.05,4.08-3.05,6.14l-1.53,2.02v.04s.25.19.25.19l.03-.02,1.56-2.01,5.59-4.94.02.02-4.94,5.59-2.02,1.58s0,.03,0,.04.15.2.17.22c.01.01.02.03.04.02l2.04-1.55,6.66-3.31.02.03-6.21,4.11-2.36.99.11.32s.06,0,.09-.01c.75-.23,1.54-.69,2.3-.94l7.33-1.48h.07s-7.15,2.41-7.15,2.41l-2.53.34.05.35,2.62-.32c2.39.2,4.78.25,7.17.45.06,0,.12,0,.18.02.02,0,.05,0,.06.03l-7.41.46-2.6-.32-.05.35,2.53.34,7.15,2.41-7.39-1.49c-.76-.25-1.54-.71-2.3-.94-.03,0-.06-.02-.09-.01l-.11.32,2.36.99,5.69,3.77c.16.11.33.21.49.33.02.01.04,0,.03.04l-6.68-3.31-2.04-1.55s-.03.01-.04.02c-.01.01-.16.2-.17.22s-.01.02,0,.04l2.02,1.58,4.94,5.59-.02.02-5.59-4.94-1.56-2.01-.03-.02-.26.19v.04s1.54,2.02,1.54,2.02l3.32,6.68v.05s-.01-.03-.03-.05c-1.44-2.01-2.7-4.18-4.12-6.2l-.99-2.36-.32.11s0,.06.01.09c.23.75.69,1.54.94,2.3l1.47,7.25v.1s-2.39-7.1-2.39-7.1l-.34-2.53-.35.05.32,2.6c-.19,2.44-.27,4.89-.46,7.33,0,.02.01.07-.02.06,0,0-.02-.17-.02-.2-.19-2.39-.25-4.79-.45-7.18l.32-2.6-.35-.05-.34,2.53-2.38,7.09-.03-.02,1.48-7.31.97-2.39-.33-.11-.99,2.36-4.11,6.21-.03-.02,3.31-6.66,1.55-2.04s-.01-.03-.02-.04c-.01-.01-.2-.16-.22-.17s-.02-.01-.04,0l-1.58,2.02-5.61,4.95-.02-.02,4.95-5.61,2.01-1.56.02-.03s0-.02,0-.02c0-.01-.17-.23-.18-.23-.02-.01-.03,0-.04,0l-2.02,1.53c-2.13,1.02-4.22,2.14-6.36,3.16-.09.05-.23.12-.32.15-.02,0-.05.02-.05,0,.03,0,.03,0,.05-.02,2.01-1.44,4.18-2.7,6.2-4.12l2.36-.99-.11-.32s-.07,0-.1.02c-.76.25-1.51.66-2.27.93-2.4.44-4.79,1.03-7.19,1.45-.05,0-.13.04-.16.01l7.1-2.39,2.53-.34-.05-.35-2.6.32c-2.45-.13-4.89-.35-7.34-.46-.02,0-.07.01-.06-.02l7.4-.47,2.6.32.05-.35-2.53-.34-7.1-2.4,7.36,1.47c.76.26,1.52.68,2.27.93.03.01.06.03.1.02l.11-.32-2.36-.99c-2.02-1.42-4.2-2.68-6.2-4.12-.02-.01-.02-.02-.05-.02,0-.03.03-.01.05,0,.09.03.23.11.32.15,2.13,1.02,4.23,2.14,6.36,3.16l2.02,1.53s.02.02.04,0c.01,0,.18-.22.18-.23,0,0,0-.01,0-.02l-.02-.03-2.01-1.56-4.95-5.61.02-.02,5.61,4.95,1.58,2.02s.02,0,.04,0,.2-.15.22-.17c.01-.01.03-.02.02-.04l-1.55-2.04-3.31-6.66.03-.02,4.11,6.21.99,2.36.33-.11-.97-2.39-1.48-7.31.03-.02,2.38,7.09.34,2.53.35-.05-.32-2.6.46-7.39.03-.02Z"/>
          <polygon class="cls-3" points="106.15 59.57 106.15 59.61 106.11 59.57 106.15 59.57"/>
          <polygon class="cls-3" points="123.36 76.78 123.35 76.81 123.32 76.77 123.36 76.78"/>
          <polygon class="cls-3" points="106.15 81.42 106.11 81.41 106.15 81.37 106.15 81.42"/>
          <polygon class="cls-3" points="123.36 64.18 123.36 64.2 123.32 64.21 123.34 64.18 123.36 64.18"/>
        </g>
      </g>
      <g>
        <g>
          <path d="M0,168.52v-21.36h4.47c.98,0,1.82.15,2.5.45.69.3,1.25.7,1.7,1.2.44.5.75,1.08.95,1.73.19.65.29,1.33.29,2.03v.78c0,.58-.04,1.07-.13,1.47-.09.4-.23.75-.41,1.05-.34.56-.86,1.04-1.56,1.44.72.34,1.25.84,1.59,1.5.34.66.51,1.56.51,2.7v1.2c0,1.88-.46,3.32-1.37,4.32s-2.37,1.5-4.37,1.5H0ZM3.06,150.04v5.88h1.38c1.02,0,1.71-.25,2.06-.77.35-.51.52-1.25.52-2.23s-.19-1.68-.58-2.16c-.39-.48-1.09-.72-2.12-.72h-1.26ZM3.06,158.62v6.84h1.32c.62,0,1.1-.09,1.46-.27.35-.18.62-.43.79-.75.18-.32.29-.7.33-1.14s.06-.92.06-1.44-.03-1.01-.09-1.41c-.06-.4-.18-.74-.36-1.02-.2-.28-.47-.48-.81-.62-.34-.13-.79-.19-1.35-.19h-1.35Z"/>
          <path d="M15.78,168.52v-21.36h4.92c3.6,0,5.4,2.09,5.4,6.27,0,1.26-.2,2.33-.58,3.21-.39.88-1.08,1.59-2.06,2.13l3.3,9.75h-3.24l-2.85-9.12h-1.83v9.12h-3.06ZM18.84,150.04v6.66h1.74c.54,0,.97-.08,1.29-.23.32-.15.57-.36.75-.65.16-.28.27-.62.33-1.04.06-.41.09-.89.09-1.43s-.03-1.01-.09-1.43c-.06-.41-.18-.77-.36-1.06-.38-.56-1.1-.84-2.16-.84h-1.59Z"/>
          <path d="M31.38,152.2c0-.86.15-1.62.45-2.28.3-.66.7-1.21,1.2-1.65.48-.42,1.03-.74,1.64-.96.61-.22,1.22-.33,1.84-.33s1.24.11,1.85.33c.61.22,1.17.54,1.67.96.48.44.87.99,1.17,1.65.3.66.45,1.42.45,2.28v11.28c0,.9-.15,1.67-.45,2.31-.3.64-.69,1.17-1.17,1.59-.5.44-1.06.77-1.67.99-.61.22-1.23.33-1.85.33s-1.24-.11-1.84-.33c-.61-.22-1.16-.55-1.64-.99-.5-.42-.9-.95-1.2-1.59-.3-.64-.45-1.41-.45-2.31v-11.28ZM34.44,163.48c0,.74.21,1.29.62,1.64s.9.52,1.46.52,1.04-.17,1.46-.52.62-.9.62-1.64v-11.28c0-.74-.21-1.29-.62-1.64-.41-.35-.89-.53-1.46-.53s-1.04.18-1.46.53c-.41.35-.62.9-.62,1.64v11.28Z"/>
          <path d="M49,168.52v-18.48h-3.54v-2.88h10.14v2.88h-3.54v18.48h-3.06Z"/>
          <path d="M59.95,168.52v-21.36h3.06v9.15h3.78v-9.15h3.06v21.36h-3.06v-9.51h-3.78v9.51h-3.06Z"/>
          <path d="M75.73,168.52v-21.36h9.12v2.88h-6.06v6.27h5.28v2.88h-5.28v6.27h6.06v3.06h-9.12Z"/>
          <path d="M89.83,168.52v-21.36h4.92c3.6,0,5.4,2.09,5.4,6.27,0,1.26-.2,2.33-.58,3.21-.39.88-1.08,1.59-2.06,2.13l3.3,9.75h-3.24l-2.85-9.12h-1.83v9.12h-3.06ZM92.89,150.04v6.66h1.74c.54,0,.97-.08,1.29-.23.32-.15.57-.36.75-.65.16-.28.27-.62.33-1.04.06-.41.09-.89.09-1.43s-.03-1.01-.09-1.43c-.06-.41-.18-.77-.36-1.06-.38-.56-1.1-.84-2.16-.84h-1.59Z"/>
          <path d="M115.52,153.31h-3.06v-.69c0-.7-.17-1.31-.5-1.82-.33-.51-.88-.77-1.67-.77-.42,0-.76.08-1.02.24-.26.16-.47.36-.63.6-.16.26-.27.56-.33.89s-.09.67-.09,1.04c0,.42.01.77.04,1.05.03.28.1.53.22.75s.29.41.53.57c.23.16.54.32.95.48l2.34.93c.68.26,1.23.57,1.65.92.42.35.75.76.99,1.22.22.48.37,1.03.45,1.64.08.61.12,1.31.12,2.09,0,.9-.09,1.74-.27,2.51-.18.77-.47,1.43-.87,1.97-.42.56-.97,1-1.65,1.32-.68.32-1.51.48-2.49.48-.74,0-1.43-.13-2.07-.39-.64-.26-1.19-.62-1.65-1.08-.46-.46-.83-1-1.1-1.61-.27-.61-.41-1.27-.41-2v-1.14h3.06v.96c0,.56.17,1.07.5,1.52.33.45.89.68,1.67.68.52,0,.93-.08,1.22-.23.29-.15.51-.36.67-.65.16-.28.25-.62.29-1.01s.04-.83.04-1.31c0-.56-.02-1.02-.06-1.38-.04-.36-.12-.65-.24-.87-.14-.22-.33-.4-.56-.54-.23-.14-.54-.29-.92-.45l-2.19-.9c-1.32-.54-2.21-1.25-2.66-2.15s-.67-2.01-.67-3.35c0-.8.11-1.56.33-2.28.22-.72.55-1.34.99-1.86.42-.52.96-.93,1.61-1.25.65-.31,1.42-.46,2.33-.46.76,0,1.46.14,2.08.42.63.28,1.17.65,1.64,1.11.92.96,1.38,2.06,1.38,3.3v1.5Z"/>
          <path d="M129.47,168.52v-21.36h3.06v21.36h-3.06Z"/>
          <path d="M138.38,168.52v-21.36h2.94l4.62,12.87h.06v-12.87h3.06v21.36h-2.88l-4.68-12.84h-.06v12.84h-3.06Z"/>
          <path d="M162.02,168.52l4.77-21.36h2.55l4.77,21.36h-3.06l-.9-4.59h-4.17l-.9,4.59h-3.06ZM169.58,161.05l-1.5-7.74h-.06l-1.5,7.74h3.06Z"/>
          <path d="M178.61,168.52v-21.36h4.92c3.6,0,5.4,2.09,5.4,6.27,0,1.26-.2,2.33-.58,3.21-.39.88-1.08,1.59-2.06,2.13l3.3,9.75h-3.24l-2.85-9.12h-1.83v9.12h-3.06ZM181.67,150.04v6.66h1.74c.54,0,.97-.08,1.29-.23.32-.15.57-.36.75-.65.16-.28.27-.62.33-1.04.06-.41.09-.89.09-1.43s-.03-1.01-.09-1.43c-.06-.41-.18-.77-.36-1.06-.38-.56-1.1-.84-2.16-.84h-1.59Z"/>
          <path d="M194.4,168.52v-21.36h2.94l3.93,11.31h.06l3.9-11.31h2.97v21.36h-3.06v-12.99h-.06l-3.03,9.18h-1.53l-3-9.18h-.06v12.99h-3.06Z"/>
          <path d="M223.98,153.31h-3.06v-.69c0-.7-.17-1.31-.5-1.82-.33-.51-.88-.77-1.67-.77-.42,0-.76.08-1.02.24-.26.16-.47.36-.63.6-.16.26-.27.56-.33.89s-.09.67-.09,1.04c0,.42.01.77.04,1.05.03.28.1.53.22.75s.29.41.53.57c.23.16.54.32.95.48l2.34.93c.68.26,1.23.57,1.65.92.42.35.75.76.99,1.22.22.48.37,1.03.45,1.64.08.61.12,1.31.12,2.09,0,.9-.09,1.74-.27,2.51-.18.77-.47,1.43-.87,1.97-.42.56-.97,1-1.65,1.32-.68.32-1.51.48-2.49.48-.74,0-1.43-.13-2.07-.39-.64-.26-1.19-.62-1.65-1.08-.46-.46-.83-1-1.1-1.61-.27-.61-.41-1.27-.41-2v-1.14h3.06v.96c0,.56.17,1.07.5,1.52.33.45.89.68,1.67.68.52,0,.93-.08,1.22-.23.29-.15.51-.36.67-.65.16-.28.25-.62.29-1.01s.04-.83.04-1.31c0-.56-.02-1.02-.06-1.38-.04-.36-.12-.65-.24-.87-.14-.22-.33-.4-.56-.54-.23-.14-.54-.29-.92-.45l-2.19-.9c-1.32-.54-2.21-1.25-2.66-2.15s-.67-2.01-.67-3.35c0-.8.11-1.56.33-2.28.22-.72.55-1.34.99-1.86.42-.52.96-.93,1.61-1.25.65-.31,1.42-.46,2.33-.46.76,0,1.46.14,2.08.42.63.28,1.17.65,1.64,1.11.92.96,1.38,2.06,1.38,3.3v1.5Z"/>
        </g>
        <g>
          <path class="cls-8" d="M37.54,183.33c0,.09-.03.14-.08.14-.22,0-.5-.01-.81-.03-.31-.02-.56-.03-.76-.03s-.45,0-.74.03c-.31.02-.57.03-.79.03-.06,0-.09-.05-.09-.14,0-.08.03-.13.08-.13.39-.05.66-.12.8-.22s.21-.28.21-.55v-.08l-.21-4.84-2.41,6.04c-.02.05-.07.08-.14.08s-.12-.03-.13-.08l-2.27-5.81-.36,4.61c0,.06,0,.11,0,.15,0,.22.08.38.23.48s.43.17.82.21c.05,0,.07.05.07.14,0,.09-.03.14-.09.14-.17,0-.41-.01-.71-.03-.28-.02-.49-.03-.65-.03-.17,0-.39,0-.68.03-.28.02-.49.03-.64.03-.05,0-.07-.05-.07-.14,0-.08.03-.13.09-.13.42-.05.71-.13.87-.24.16-.11.25-.31.28-.61l.52-4.71c0-.06,0-.11,0-.16,0-.22-.08-.37-.23-.47s-.43-.17-.83-.22c-.05,0-.07-.05-.07-.14,0-.03,0-.06.03-.09.02-.03.04-.04.06-.04.12,0,.3.01.52.03.19.02.33.03.43.03.12,0,.28-.01.5-.03.22-.02.4-.03.52-.03l2.14,5.55,2.22-5.55c.13,0,.31.01.52.03.2.02.35.03.46.03.14,0,.31-.01.5-.03.2-.02.38-.03.52-.03.06,0,.09.05.09.14s-.03.14-.08.14c-.39.05-.66.12-.8.22s-.21.28-.21.55v.08l.23,4.71c0,.23.05.4.11.49.06.09.17.17.32.22.15.06.37.1.64.13.05,0,.08.05.08.13Z"/>
          <path class="cls-8" d="M50.14,181.82c-.27.58-.49,1.13-.66,1.65-1.26-.04-2.15-.06-2.69-.06s-1.42.02-2.68.06c-.05,0-.08-.05-.08-.14,0-.08.03-.13.08-.13.28-.03.49-.08.63-.13.15-.05.25-.13.31-.22.06-.09.09-.26.09-.49v-4.71c0-.23-.03-.39-.08-.49-.05-.09-.16-.17-.3-.23-.15-.06-.36-.1-.64-.14-.05,0-.08-.05-.08-.14s.03-.14.08-.14c.84.04,1.7.06,2.58.06s1.75-.02,2.58-.06c.08.52.19,1.03.33,1.53,0,.07-.06.1-.17.1-.06,0-.09-.02-.11-.07-.25-.79-.77-1.18-1.58-1.18h-1.01c-.39,0-.58.2-.58.6v2.23h1.26c.34,0,.56-.08.68-.23s.2-.43.25-.81c0-.05.05-.08.14-.08s.14.03.14.08c0,.17,0,.38-.03.63-.02.24-.03.44-.03.6s0,.36.03.6c.02.26.03.47.03.64,0,.05-.05.08-.14.08s-.14-.03-.14-.08c-.05-.41-.14-.69-.26-.85-.12-.16-.35-.25-.67-.25h-1.26v2.46c0,.39.19.59.58.59h1.09c.4,0,.79-.13,1.18-.39.39-.26.68-.58.86-.97.01-.03.04-.05.08-.05.05,0,.09.01.12.04.04.02.05.06.05.09Z"/>
          <path class="cls-8" d="M65.77,183.33c0,.09-.03.14-.08.14-.22,0-.5-.01-.81-.03-.31-.02-.56-.03-.76-.03s-.45,0-.74.03c-.31.02-.57.03-.79.03-.06,0-.09-.05-.09-.14,0-.08.03-.13.08-.13.39-.05.66-.12.8-.22s.21-.28.21-.55v-.08l-.21-4.84-2.41,6.04c-.02.05-.07.08-.14.08s-.12-.03-.13-.08l-2.27-5.81-.36,4.61c0,.06,0,.11,0,.15,0,.22.08.38.23.48s.43.17.82.21c.05,0,.07.05.07.14,0,.09-.03.14-.09.14-.17,0-.41-.01-.71-.03-.28-.02-.49-.03-.65-.03-.17,0-.39,0-.68.03-.28.02-.49.03-.64.03-.05,0-.07-.05-.07-.14,0-.08.03-.13.09-.13.42-.05.71-.13.87-.24.16-.11.25-.31.28-.61l.52-4.71c0-.06,0-.11,0-.16,0-.22-.08-.37-.23-.47s-.43-.17-.83-.22c-.05,0-.07-.05-.07-.14,0-.03,0-.06.03-.09.02-.03.04-.04.06-.04.12,0,.3.01.52.03.19.02.33.03.43.03.12,0,.28-.01.5-.03.22-.02.4-.03.52-.03l2.14,5.55,2.22-5.55c.13,0,.31.01.52.03.2.02.35.03.46.03.14,0,.31-.01.5-.03.2-.02.38-.03.52-.03.06,0,.09.05.09.14s-.03.14-.08.14c-.39.05-.66.12-.8.22s-.21.28-.21.55v.08l.23,4.71c0,.23.05.4.11.49.06.09.17.17.32.22.15.06.37.1.64.13.05,0,.08.05.08.13Z"/>
          <path class="cls-8" d="M79.79,180.03c0,1.06-.34,1.92-1.02,2.59-.68.67-1.57,1.01-2.67,1.01s-1.98-.34-2.66-1.01c-.68-.67-1.02-1.54-1.02-2.59s.34-1.94,1.02-2.63c.68-.69,1.57-1.04,2.66-1.04s1.98.35,2.66,1.04c.68.69,1.03,1.57,1.03,2.63ZM78.69,180.03c0-.98-.24-1.79-.71-2.41-.48-.62-1.1-.94-1.87-.94s-1.4.31-1.87.94c-.47.62-.71,1.43-.71,2.41s.23,1.77.7,2.37c.47.6,1.09.91,1.88.91s1.41-.3,1.88-.91.71-1.4.71-2.37Z"/>
          <path class="cls-8" d="M93.49,183.33c0,.09-.03.14-.08.14-.12,0-.33-.01-.61-.04-.2-.02-.34-.02-.4-.02-.1,0-.25,0-.46.03-.21.02-.36.03-.46.03l-1.51-2.47c-.21-.34-.39-.56-.52-.66-.13-.1-.4-.15-.79-.15v2.15c0,.23.03.39.09.49.06.09.16.17.31.22.15.06.36.1.64.13.06,0,.08.05.08.13,0,.09-.03.14-.08.14-.22,0-.49-.01-.8-.03-.3-.02-.55-.03-.75-.03s-.45,0-.75.03c-.31.02-.57.03-.79.03-.05,0-.08-.05-.08-.14,0-.08.03-.13.08-.13.28-.03.49-.08.63-.13.15-.05.25-.13.31-.22.06-.09.09-.26.09-.49v-4.71c0-.23-.03-.39-.08-.49-.05-.09-.16-.17-.3-.23-.15-.06-.36-.1-.64-.14-.05,0-.08-.05-.08-.14s.03-.14.08-.14c.22,0,.49.01.79.03.29.02.54.03.75.03s.45-.01.75-.03c.31-.02.58-.03.8-.03.74,0,1.32.16,1.72.47.41.31.61.75.61,1.31,0,.36-.13.69-.4.99-.27.3-.63.54-1.09.7l1.54,2.51c.13.22.31.38.52.49.21.1.48.18.82.22.05,0,.07.05.07.13ZM90.94,178.31c0-.98-.43-1.46-1.28-1.46-.28,0-.49.02-.64.07-.14.04-.24.12-.29.21-.05.1-.07.27-.07.51v2.23c.19.03.44.04.73.04.54,0,.93-.13,1.17-.38.25-.25.37-.66.37-1.22Z"/>
          <path class="cls-8" d="M103.4,183.33c0,.09-.03.14-.08.14-.22,0-.49-.01-.79-.03-.29-.02-.54-.03-.75-.03s-.45,0-.75.03c-.31.02-.58.03-.8.03-.05,0-.08-.05-.08-.14,0-.08.03-.13.08-.13.4-.05.68-.12.82-.23.15-.1.22-.31.22-.62v-4.71c0-.23-.03-.4-.09-.49s-.16-.17-.31-.23-.36-.1-.64-.13c-.05,0-.08-.05-.08-.14s.03-.14.08-.14c.23,0,.5.01.8.03.29.02.54.03.75.03s.45-.01.75-.03c.31-.02.57-.03.79-.03.05,0,.08.05.08.14s-.03.14-.08.14c-.28.03-.49.08-.64.13-.15.06-.25.13-.31.22s-.08.26-.08.5v4.71c0,.23.03.39.08.49s.16.17.3.23c.15.06.36.1.64.13.06,0,.08.05.08.13Z"/>
          <path class="cls-8" d="M117.31,183.33c0,.09-.03.14-.08.14-.23,0-.49-.01-.78-.03-.25-.02-.46-.03-.64-.03-.2,0-.46,0-.75.03-.32.02-.59.03-.81.03-.05,0-.08-.05-.08-.14s.02-.14.06-.14c.3-.01.51-.05.64-.12s.2-.17.2-.3c0-.09-.03-.23-.1-.42l-.57-1.67h-2.05l-.57,1.55c-.07.21-.11.37-.11.48,0,.29.27.46.81.48.04,0,.06.05.06.14s-.03.14-.08.14c-.2,0-.42-.01-.67-.03-.23-.02-.43-.03-.61-.03-.14,0-.32,0-.54.03-.23.02-.42.03-.58.03-.05,0-.07-.04-.07-.12,0-.09.04-.14.11-.15.28-.03.5-.1.66-.23.16-.13.33-.39.5-.78l2.34-5.74c.02-.05.07-.08.14-.08.08,0,.13.02.15.07l2.07,5.75c.12.32.27.56.47.72s.46.25.8.29c.07,0,.1.05.1.13ZM114.28,180.36l-.88-2.55-.95,2.55h1.82Z"/>
          <path class="cls-8" d="M129.47,181.63c-.16.59-.28,1.2-.37,1.84-1.28-.04-2.19-.06-2.73-.06s-1.43.02-2.69.06c-.05,0-.08-.05-.08-.14,0-.08.03-.13.08-.13.4-.05.68-.12.82-.23.14-.1.22-.31.22-.62v-4.71c0-.23-.03-.4-.09-.49s-.16-.17-.31-.23-.36-.1-.64-.13c-.05,0-.08-.05-.08-.14s.03-.14.08-.14c.22,0,.49.01.8.03.3.02.55.03.75.03s.45-.01.75-.03c.31-.02.57-.03.79-.03.05,0,.08.05.08.14s-.03.14-.08.14c-.28.03-.49.08-.64.13-.15.06-.25.13-.3.22s-.08.26-.08.5v4.86c0,.39.19.59.58.59h.99c.41,0,.76-.11,1.04-.33s.56-.63.84-1.22c.01-.03.04-.04.09-.04.04,0,.08.01.12.04.04.03.06.06.06.09Z"/>
          <path class="cls-8" d="M149.96,178.55c0,.59-.23,1.08-.68,1.48s-1.01.6-1.67.6c-.4,0-.79-.02-1.18-.05v1.77c0,.23.03.4.09.49.06.09.16.17.3.22.14.06.36.1.64.13.05,0,.08.05.08.13,0,.09-.03.14-.08.14-.22,0-.49-.01-.79-.03-.29-.02-.54-.03-.75-.03s-.45,0-.75.03c-.31.02-.58.03-.8.03-.05,0-.08-.05-.08-.14,0-.08.03-.13.08-.13.4-.05.68-.12.82-.23.14-.1.22-.31.22-.62v-4.71c0-.23-.03-.4-.09-.49s-.16-.17-.31-.23-.36-.1-.64-.13c-.05,0-.08-.05-.08-.14s.03-.14.08-.14c.22,0,.49.01.8.03.3.02.55.03.75.03s.45-.01.74-.03c.31-.02.57-.03.79-.03.82,0,1.44.17,1.87.52.42.35.64.85.64,1.52ZM148.85,178.55c0-.54-.13-.95-.39-1.25-.26-.3-.61-.45-1.04-.45-.26,0-.46.02-.6.06-.14.04-.24.11-.3.2-.06.09-.09.27-.09.54v2.3c0,.14.04.24.13.29s.29.07.58.07c.54,0,.96-.16,1.26-.47.3-.31.44-.74.44-1.28Z"/>
          <path class="cls-8" d="M163.17,183.33c0,.09-.03.14-.08.14-.23,0-.49-.01-.78-.03-.25-.02-.46-.03-.64-.03-.2,0-.46,0-.75.03-.32.02-.59.03-.81.03-.05,0-.08-.05-.08-.14s.02-.14.06-.14c.3-.01.51-.05.64-.12s.2-.17.2-.3c0-.09-.03-.23-.1-.42l-.57-1.67h-2.05l-.57,1.55c-.07.21-.11.37-.11.48,0,.29.27.46.81.48.04,0,.06.05.06.14s-.03.14-.08.14c-.2,0-.42-.01-.67-.03-.23-.02-.43-.03-.61-.03-.14,0-.32,0-.54.03-.23.02-.42.03-.58.03-.05,0-.07-.04-.07-.12,0-.09.04-.14.11-.15.28-.03.5-.1.66-.23.16-.13.33-.39.5-.78l2.34-5.74c.02-.05.07-.08.14-.08.08,0,.13.02.15.07l2.07,5.75c.12.32.27.56.47.72s.46.25.8.29c.07,0,.1.05.1.13ZM160.14,180.36l-.88-2.55-.95,2.55h1.82Z"/>
          <path class="cls-8" d="M176.43,183.33c0,.09-.03.14-.08.14-.12,0-.33-.01-.61-.04-.2-.02-.34-.02-.4-.02-.1,0-.25,0-.46.03-.21.02-.36.03-.46.03l-1.51-2.47c-.21-.34-.39-.56-.52-.66-.13-.1-.4-.15-.79-.15v2.15c0,.23.03.39.09.49.06.09.16.17.31.22.15.06.36.1.64.13.06,0,.08.05.08.13,0,.09-.03.14-.08.14-.22,0-.49-.01-.8-.03-.3-.02-.55-.03-.75-.03s-.45,0-.75.03c-.31.02-.57.03-.79.03-.05,0-.08-.05-.08-.14,0-.08.03-.13.08-.13.28-.03.49-.08.63-.13.15-.05.25-.13.31-.22.06-.09.09-.26.09-.49v-4.71c0-.23-.03-.39-.08-.49-.05-.09-.16-.17-.3-.23-.15-.06-.36-.1-.64-.14-.05,0-.08-.05-.08-.14s.03-.14.08-.14c.22,0,.49.01.79.03.29.02.54.03.75.03s.45-.01.75-.03c.31-.02.58-.03.8-.03.74,0,1.32.16,1.72.47.41.31.61.75.61,1.31,0,.36-.13.69-.4.99-.27.3-.63.54-1.09.7l1.54,2.51c.13.22.31.38.52.49.21.1.48.18.82.22.05,0,.07.05.07.13ZM173.88,178.31c0-.98-.43-1.46-1.28-1.46-.28,0-.49.02-.64.07-.14.04-.24.12-.29.21-.05.1-.07.27-.07.51v2.23c.19.03.44.04.73.04.54,0,.93-.13,1.17-.38.25-.25.37-.66.37-1.22Z"/>
          <path class="cls-8" d="M190.39,183.33c0,.09-.03.14-.08.14-.22,0-.49-.01-.8-.03-.3-.02-.55-.03-.75-.03s-.47,0-.82.03c-.36.02-.66.03-.88.03-.05,0-.08-.05-.08-.14,0-.08.02-.13.07-.13.45-.05.67-.16.67-.33,0-.09-.07-.21-.22-.36l-1.99-2.02c-.11-.11-.2-.18-.28-.21s-.19-.05-.32-.05v2.12c0,.23.03.39.09.49.06.09.16.17.31.22.15.06.36.1.64.13.06,0,.08.05.08.13,0,.09-.03.14-.08.14-.22,0-.49-.01-.8-.03-.3-.02-.55-.03-.75-.03s-.45,0-.74.03c-.31.02-.58.03-.8.03-.05,0-.08-.05-.08-.14,0-.08.03-.13.08-.13.4-.05.68-.12.82-.23.14-.1.22-.31.22-.62v-4.71c0-.23-.03-.4-.09-.49s-.16-.17-.31-.23-.36-.1-.64-.13c-.05,0-.08-.05-.08-.14s.03-.14.08-.14c.22,0,.49.01.8.03.29.02.54.03.74.03s.46-.01.75-.03c.31-.02.58-.03.8-.03.05,0,.08.05.08.14s-.03.14-.08.14c-.28.03-.5.08-.65.13-.15.06-.25.13-.31.23-.06.09-.09.26-.09.49v2.27c.13,0,.24-.02.32-.05.08-.03.17-.1.28-.21l2.2-2.17c.18-.17.27-.3.27-.37,0-.09-.04-.16-.13-.2-.08-.05-.26-.08-.51-.12-.05,0-.08-.05-.08-.14s.03-.14.09-.14c.16,0,.36.01.62.03.27.02.5.03.68.03s.38-.01.6-.04c.18-.02.34-.02.47-.02.05,0,.07.05.07.14s-.03.14-.08.14c-.32.04-.57.11-.75.2-.18.09-.4.26-.66.5l-2.29,2.17,2.83,2.88c.2.21.39.35.58.44s.48.16.86.21c.06,0,.09.05.09.13Z"/>
        </g>
      </g>
    </g>
  </g>
</svg>