<?xml version="1.0" encoding="UTF-8"?>
<svg id="Layer_2" data-name="Layer 2" xmlns="http://www.w3.org/2000/svg" viewBox="0 0 145.22 75.7">
  <defs>
    <style>
      .cls-1 {
        fill: #fff;
      }

      .cls-2 {
        fill: #1e451f;
      }

      .cls-3 {
        fill: #ff671f;
      }

      .cls-4 {
        fill: #d80621;
      }
    </style>
  </defs>
  <g id="Layer_1-2" data-name="Layer 1">
    <g>
      <g>
        <path d="M0,75.58v-13.85h2.9c.63,0,1.18.1,1.62.29s.81.45,1.1.78c.29.32.49.7.61,1.12.12.42.18.86.18,1.31v.51c0,.38-.03.69-.09.95-.06.26-.15.49-.26.68-.22.36-.56.67-1.01.93.47.22.81.54,1.03.97.22.43.33,1.01.33,1.75v.78c0,1.22-.3,2.15-.89,2.8-.59.65-1.53.97-2.83.97H0ZM1.98,63.6v3.81h.9c.66,0,1.11-.17,1.33-.5.23-.33.34-.81.34-1.45s-.13-1.09-.38-1.4c-.25-.31-.71-.47-1.37-.47h-.82ZM1.98,69.16v4.44h.86c.4,0,.72-.06.94-.17.23-.12.4-.28.52-.49.12-.21.19-.45.21-.74.03-.29.04-.6.04-.93s-.02-.65-.06-.91-.12-.48-.23-.66c-.13-.18-.3-.31-.53-.4-.22-.08-.51-.13-.88-.13h-.88Z"/>
        <path d="M10.23,75.58v-13.85h3.19c2.33,0,3.5,1.36,3.5,4.07,0,.82-.13,1.51-.38,2.08-.25.57-.7,1.03-1.33,1.38l2.14,6.32h-2.1l-1.85-5.91h-1.19v5.91h-1.98ZM12.22,63.6v4.32h1.13c.35,0,.63-.05.84-.15.21-.1.37-.24.49-.42.1-.18.17-.41.21-.67s.06-.57.06-.92-.02-.66-.06-.92c-.04-.27-.12-.5-.23-.69-.25-.36-.71-.54-1.4-.54h-1.03Z"/>
        <path d="M20.35,65c0-.56.1-1.05.29-1.48.19-.43.45-.78.78-1.07.31-.27.66-.48,1.06-.62.4-.14.79-.21,1.2-.21s.8.07,1.2.21c.4.14.76.35,1.08.62.31.29.56.64.76,1.07.19.43.29.92.29,1.48v7.31c0,.58-.1,1.08-.29,1.5-.19.42-.45.76-.76,1.03-.32.29-.68.5-1.08.64-.4.14-.79.21-1.2.21s-.8-.07-1.2-.21c-.4-.14-.75-.36-1.06-.64-.32-.27-.58-.62-.78-1.03s-.29-.91-.29-1.5v-7.31ZM22.33,72.31c0,.48.13.83.4,1.06.27.23.58.34.94.34s.68-.11.94-.34c.27-.23.4-.58.4-1.06v-7.31c0-.48-.13-.83-.4-1.06-.27-.23-.58-.34-.94-.34s-.68.11-.94.34c-.27.23-.4.58-.4,1.06v7.31Z"/>
        <path d="M31.77,75.58v-11.98h-2.3v-1.87h6.58v1.87h-2.3v11.98h-1.98Z"/>
        <path d="M38.87,75.58v-13.85h1.98v5.93h2.45v-5.93h1.98v13.85h-1.98v-6.17h-2.45v6.17h-1.98Z"/>
        <path d="M49.1,75.58v-13.85h5.91v1.87h-3.93v4.07h3.42v1.87h-3.42v4.07h3.93v1.98h-5.91Z"/>
        <path d="M58.24,75.58v-13.85h3.19c2.33,0,3.5,1.36,3.5,4.07,0,.82-.13,1.51-.38,2.08-.25.57-.7,1.03-1.33,1.38l2.14,6.32h-2.1l-1.85-5.91h-1.19v5.91h-1.98ZM60.23,63.6v4.32h1.13c.35,0,.63-.05.84-.15.21-.1.37-.24.49-.42.1-.18.17-.41.21-.67s.06-.57.06-.92-.02-.66-.06-.92c-.04-.27-.12-.5-.23-.69-.25-.36-.71-.54-1.4-.54h-1.03Z"/>
        <path d="M74.9,65.72h-1.98v-.45c0-.45-.11-.85-.32-1.18-.21-.33-.57-.5-1.08-.5-.27,0-.49.05-.66.16-.17.1-.3.23-.41.39-.1.17-.17.36-.21.57-.04.21-.06.44-.06.67,0,.27,0,.5.03.68.02.18.07.34.15.49.08.14.19.27.34.37s.35.21.61.31l1.52.6c.44.17.8.37,1.07.59.27.23.49.49.64.79.14.31.24.66.29,1.06.05.4.08.85.08,1.35,0,.58-.06,1.13-.17,1.62-.12.5-.3.92-.56,1.27-.27.36-.63.65-1.07.86-.44.21-.98.31-1.61.31-.48,0-.93-.08-1.34-.25-.42-.17-.77-.4-1.07-.7-.3-.3-.54-.65-.71-1.04-.17-.4-.26-.83-.26-1.29v-.74h1.98v.62c0,.36.11.69.32.98.21.29.57.44,1.08.44.34,0,.6-.05.79-.15.19-.1.33-.24.44-.42s.17-.4.18-.65.03-.53.03-.85c0-.36-.01-.66-.04-.9-.03-.23-.08-.42-.16-.56-.09-.14-.21-.26-.36-.35s-.35-.19-.59-.29l-1.42-.58c-.86-.35-1.43-.81-1.72-1.39-.29-.58-.44-1.3-.44-2.17,0-.52.07-1.01.21-1.48.14-.47.36-.87.64-1.21.27-.34.62-.61,1.04-.81.42-.2.92-.3,1.51-.3.49,0,.94.09,1.35.27s.76.42,1.06.72c.6.62.9,1.34.9,2.14v.97Z"/>
        <path d="M83.94,75.58v-13.85h1.98v13.85h-1.98Z"/>
        <path d="M89.72,75.58v-13.85h1.91l3,8.35h.04v-8.35h1.98v13.85h-1.87l-3.04-8.33h-.04v8.33h-1.98Z"/>
        <path d="M105.05,75.58l3.09-13.85h1.65l3.09,13.85h-1.98l-.58-2.98h-2.7l-.58,2.98h-1.98ZM109.95,70.74l-.97-5.02h-.04l-.97,5.02h1.98Z"/>
        <path d="M115.8,75.58v-13.85h3.19c2.33,0,3.5,1.36,3.5,4.07,0,.82-.13,1.51-.38,2.08-.25.57-.7,1.03-1.33,1.38l2.14,6.32h-2.1l-1.85-5.91h-1.19v5.91h-1.98ZM117.79,63.6v4.32h1.13c.35,0,.63-.05.84-.15.21-.1.37-.24.49-.42.1-.18.17-.41.21-.67s.06-.57.06-.92-.02-.66-.06-.92c-.04-.27-.12-.5-.23-.69-.25-.36-.71-.54-1.4-.54h-1.03Z"/>
        <path d="M126.04,75.58v-13.85h1.91l2.55,7.33h.04l2.53-7.33h1.93v13.85h-1.98v-8.42h-.04l-1.97,5.95h-.99l-1.95-5.95h-.04v8.42h-1.98Z"/>
        <path d="M145.22,65.72h-1.98v-.45c0-.45-.11-.85-.32-1.18-.21-.33-.57-.5-1.08-.5-.27,0-.49.05-.66.16-.17.1-.3.23-.41.39-.1.17-.17.36-.21.57-.04.21-.06.44-.06.67,0,.27,0,.5.03.68.02.18.07.34.15.49.08.14.19.27.34.37s.35.21.61.31l1.52.6c.44.17.8.37,1.07.59.27.23.49.49.64.79.14.31.24.66.29,1.06.05.4.08.85.08,1.35,0,.58-.06,1.13-.17,1.62-.12.5-.3.92-.56,1.27-.27.36-.63.65-1.07.86-.44.21-.98.31-1.61.31-.48,0-.93-.08-1.34-.25-.42-.17-.77-.4-1.07-.7-.3-.3-.54-.65-.71-1.04-.17-.4-.26-.83-.26-1.29v-.74h1.98v.62c0,.36.11.69.32.98.21.29.57.44,1.08.44.34,0,.6-.05.79-.15.19-.1.33-.24.44-.42s.17-.4.18-.65.03-.53.03-.85c0-.36-.01-.66-.04-.9-.03-.23-.08-.42-.16-.56-.09-.14-.21-.26-.36-.35s-.35-.19-.59-.29l-1.42-.58c-.86-.35-1.43-.81-1.72-1.39-.29-.58-.44-1.3-.44-2.17,0-.52.07-1.01.21-1.48.14-.47.36-.87.64-1.21.27-.34.62-.61,1.04-.81.42-.2.92-.3,1.51-.3.49,0,.94.09,1.35.27s.76.42,1.06.72c.6.62.9,1.34.9,2.14v.97Z"/>
      </g>
      <g>
        <rect class="cls-2" x="48.47" width="48.39" height="48.39"/>
        <path class="cls-1" d="M87.22,16.72c-3.27,2.03-6.99,3.4-10.99,3.91.52-3.99,1.88-7.72,3.91-10.99h-14.96c2.03,3.27,3.4,6.99,3.91,10.99-3.99-.52-7.72-1.88-10.99-3.91v14.96c3.27-2.03,6.99-3.4,10.99-3.91-.52,3.99-1.88,7.72-3.91,10.99h14.96c-2.03-3.27-3.4-6.99-3.91-10.99,3.99.52,7.72,1.88,10.99,3.91v-14.96Z"/>
        <rect class="cls-4" x=".75" width="48.39" height="48.39"/>
        <g>
          <path class="cls-1" d="M24.89,36.03l-7.37,2.42c-.14.05-.27-.1-.2-.23l1.74-3.68c.05-.1-.01-.22-.12-.24l-9.48-1.69c-.13-.02-.18-.19-.09-.28l2.12-2.12c.06-.06.07-.15.02-.22l-4.4-6.07c-.08-.11,0-.26.13-.26h6.74c.09,0,.17-.07.17-.17v-3.26c0-.14.16-.22.27-.13l3.89,3.23c.12.1.31-.01.27-.17l-2.57-9.95c-.04-.14.1-.25.23-.19l4.1,1.9c.08.04.18,0,.22-.08l4.23-8.46c.06-.12.24-.12.3,0l4.23,8.46c.04.08.14.11.22.08l4.1-1.9c.13-.06.27.06.23.19l-2.57,9.95c-.04.16.14.27.27.17l3.89-3.23c.11-.09.27-.01.27.13v3.26c0,.09.07.17.17.17h6.74c.14,0,.21.15.13.26l-4.4,6.07c-.05.07-.04.16.02.22l2.12,2.12c.1.1.04.26-.09.28l-9.48,1.69c-.11.02-.17.14-.12.24l1.74,3.68c.06.13-.06.28-.2.23l-7.37-2.42s-.07-.01-.1,0Z"/>
          <polygon class="cls-1" points="25.36 36.02 25.83 42.1 24.06 42.1 24.53 36.02 25.36 36.02 25.36 36.02"/>
        </g>
        <rect class="cls-3" x="96.86" width="48.36" height="48.39"/>
        <g>
          <path class="cls-1" d="M119.84,21.21c-1.65.66-2.45,2.54-1.79,4.19s2.53,2.45,4.18,1.79c1.65-.66,2.45-2.54,1.79-4.19-.66-1.65-2.53-2.45-4.18-1.79Z"/>
          <path class="cls-1" d="M121.04,6.69c-9.64,0-17.49,7.85-17.49,17.5s7.85,17.5,17.49,17.5,17.49-7.85,17.49-17.5-7.85-17.5-17.49-17.5ZM136.2,27.37c-.14.69-.35,1.36-.58,2.02-.38.06-.73.3-.89.68-.17.39-.1.81.12,1.13-.32.63-.68,1.24-1.08,1.81-.38-.04-.78.1-1.04.42-.26.33-.31.74-.19,1.11-.47.52-.97,1.02-1.51,1.47-.36-.14-.78-.11-1.12.14-.34.25-.49.65-.47,1.04-.59.38-1.21.72-1.84,1.02-.32-.23-.72-.3-1.11-.16-.4.15-.65.5-.72.89-.66.21-1.35.37-2.04.5-.24-.3-.62-.49-1.03-.45-.42.05-.75.31-.93.66-.24.01-.48.04-.73.04-.46,0-.92-.03-1.37-.07-.15-.36-.47-.64-.89-.71-.41-.06-.81.11-1.07.41-.69-.15-1.36-.36-2.01-.6-.06-.38-.29-.73-.67-.9-.39-.17-.81-.11-1.14.11-.63-.33-1.23-.7-1.8-1.11.04-.38-.09-.77-.41-1.04-.32-.26-.74-.31-1.1-.19-.52-.48-1.02-.98-1.47-1.52.15-.36.12-.78-.13-1.13-.24-.34-.63-.5-1.02-.48-.37-.59-.71-1.21-1-1.85.23-.31.31-.73.17-1.12-.15-.4-.5-.66-.89-.73-.21-.66-.35-1.35-.47-2.05.3-.24.49-.61.45-1.03-.04-.42-.3-.75-.64-.93,0-.19-.03-.37-.03-.56,0-.52.03-1.03.08-1.54.36-.15.65-.46.72-.88.07-.41-.09-.81-.39-1.07.16-.69.37-1.36.62-2.02.38-.05.73-.28.91-.66.18-.38.12-.81-.1-1.14.34-.63.72-1.22,1.14-1.79.38.05.77-.08,1.03-.39.27-.32.33-.74.21-1.11.48-.51.99-1,1.54-1.45.36.15.78.13,1.12-.11.34-.24.5-.63.49-1.02.41-.25.83-.49,1.26-.7.32.22.73.28,1.11.13.39-.16.63-.5.7-.89.66-.23,1.33-.42,2.03-.56.25.3.64.48,1.05.42.42-.05.74-.32.91-.67.35-.02.71-.05,1.07-.05s.7.03,1.04.05c.16.35.48.62.9.68.42.06.81-.13,1.06-.43.7.14,1.37.33,2.03.56.07.38.31.72.69.89.38.16.8.09,1.12-.13.63.31,1.25.66,1.83,1.05-.04.39.1.78.43,1.04.33.26.74.3,1.11.17.53.47,1.03.97,1.49,1.5-.13.36-.1.77.15,1.11.26.34.65.49,1.04.46.39.59.73,1.2,1.03,1.84-.22.32-.29.73-.14,1.11.16.39.5.64.89.71.22.66.4,1.34.53,2.03-.3.25-.48.62-.43,1.04.05.42.31.75.66.92.02.3.05.6.05.9,0,.41-.03.81-.06,1.21-.35.16-.63.48-.69.9-.06.42.12.81.42,1.07Z"/>
        </g>
      </g>
    </g>
  </g>
</svg>