<?xml version="1.0" encoding="UTF-8"?>
<svg id="Layer_2" data-name="Layer 2" xmlns="http://www.w3.org/2000/svg" viewBox="0 0 368.26 95.17">
  <defs>
    <style>
      .cls-1 {
        fill: #fdfdfe;
      }

      .cls-2 {
        fill: #c2332f;
      }

      .cls-3 {
        fill: #08058d;
      }

      .cls-4 {
        fill: #1e451f;
      }

      .cls-5 {
        fill: #fff;
        stroke-width: .99px;
      }

      .cls-5, .cls-6 {
        stroke: #1e451f;
        stroke-miterlimit: 10;
      }

      .cls-7 {
        fill: #06038d;
      }

      .cls-8 {
        fill: #fefefe;
      }

      .cls-6 {
        fill: none;
        stroke-width: 3.96px;
      }

      .cls-9 {
        fill: #d80621;
      }
    </style>
  </defs>
  <g id="Brothers_in_arms_logo" data-name="Brothers in arms_logo">
    <g>
      <g>
        <circle class="cls-6" cx="47.58" cy="47.58" r="45.6"/>
        <circle class="cls-4" cx="47.58" cy="47.58" r="37.62"/>
        <path class="cls-2" d="M42.02,25.75c3.6-.19,7.92-.09,11.52.11"/>
        <path class="cls-2" d="M66.5,69.02s-3.88-.55-11.79-1.88c-.51-.08-1.03-.17-1.57-.26-4.9,0-11.86.77-11.86.77,0,0-11.36,1.58-11.34,1.38.18-3.39,1.31-6.42.4-6.88-4.69-4.83-8.72-9.33-14.42-14.84-.29-.28-.65-.56-.67-.99.03-.18,3.12-.68,3.6-.87.73-.29.83-.73.74-1.47-.31-2.45-1.2-5.07-1.74-7.48-.19-.85-.63-2.56-.69-3.32-.04-.5.12-.53.58-.46,2.21.31,5.79,2.32,7.92,2.32,1.35,0,1.09-.71,1.3-1.59.27-1.13.57-2.24.72-3.39.11-.29.47-.3.73-.25.06.01.87.73.97.83,1.93,1.88,4.07,4.52,6.17,6.17.46.36.85.73,1.35.3.47-.41.55-.84.47-1.45-.55-4.37-2.07-9.09-2.85-13.49-.14-.78-.29-1.56-.26-2.36.27-.02.51-.01.78.05,1.27.31,2.81,1.55,4.11,2.01,2.77.98,2.47.03,3.67-1.9,1.47-2.37,2.9-4.82,4.4-7.16.46-.73.85-1.2,1.47-.27,1.8,2.82,3.36,5.81,5.15,8.63.64,1.02.78,1.42,2.09,1.02,1.63-.51,3.66-1.94,5.2-2.35.15-.04.49-.1.59.03.11.29.12.56.09.87-.21,2.09-.93,5.07-1.35,7.21-.49,2.47-1.43,5.41-1.74,7.82-.14,1.12.65,1.88,1.68,1.16.93-.65,2.36-2.36,3.25-3.23.53-.51,1.16-.96,1.69-1.48.57-.56,1.04-1.33,1.65-1.85.37-.32.81-.81,1.29-.4.62.52.89,3.63,1.16,4.51.31.38.78.75,1.3.65,1.29-.51,2.66-.74,3.97-1.15,1.03-.32,2.47-1.06,3.42-1.25,1.08-.21.68,1.03.56,1.78-.48,2.84-1.82,6.11-2.19,8.82-.05.39-.08,1.46.15,1.72.52.57,3.42.79,4.17,1.28.07.26.37.91.15,1.11-4.47,4.63-8.33,6.98-10.53,9.32-1.93,1.51-5.82,3.71-5.73,6.81.85,2.28,1.77,5.48,1.77,5.48"/>
        <path class="cls-5" d="M40.79,23.89c1.24,2.36,2.27,6.77,2.98,11.7-3.35,1.2-6.07,3.66-7.58,6.8-3.34-.74-6.96-1.78-9.53-3.17v17.07c2.98-1.57,6.01-2.77,9.08-3.57,1.43,3.74,4.51,6.68,8.38,7.95l-1.05,9.61c2.54,2.45,1.88,7.22,1.34,13.58h7.64c-.8-5.06-1.35-11.13.75-13.37l-.16-9.8c3.74-1.21,6.76-3.98,8.26-7.52,3.61.04,8.53,2.12,8.53,2.12v-15.44c-2.68,1.34-5.59,2.25-8.64,2.88-1.45-3.24-4.18-5.8-7.56-7.07.64-5.29,3.04-11.85,3.04-11.85l-15.46.08Z"/>
        <g>
          <path class="cls-8" d="M57.78,38.54v19.36h-19.36v-19.36h19.36ZM57.05,48.23c0-4.94-4.01-8.95-8.95-8.95s-8.95,4.01-8.95,8.95,4.01,8.95,8.95,8.95,8.95-4.01,8.95-8.95Z"/>
          <path class="cls-7" d="M57.05,48.23c0,4.94-4.01,8.95-8.95,8.95s-8.95-4.01-8.95-8.95,4.01-8.95,8.95-8.95,8.95,4.01,8.95,8.95ZM48.78,40.52l-.45-.03h-.45s-.46.03-.46.03c.03.15-.08.31-.23.36-.21.07-.4-.07-.45-.27-.44.08-.87.19-1.29.35,0,.05.02.08.02.13-.01.36-.5.46-.65.13h-.01c-.4.19-.79.4-1.15.67,0,.03.03.06.04.09.09.29-.2.54-.48.41-.03-.02-.09-.08-.1-.08-.01,0-.02,0-.03,0-.33.28-.64.59-.92.92-.02.03.03.05.04.07.2.28-.06.64-.39.53-.03-.01-.06-.05-.09-.03-.25.36-.47.75-.66,1.15.38.2.17.75-.25.64h-.02c-.15.43-.27.86-.34,1.3.2.03.33.23.27.43-.05.15-.2.26-.36.23l-.03.44v.48l.03.44c.15-.03.31.08.36.23.07.21-.07.4-.27.45.08.44.19.87.35,1.29.1-.02.18-.02.27.02.26.12.25.5,0,.61h0c.2.41.41.81.67,1.16.03,0,.06-.03.09-.04.29-.09.54.2.41.48-.02.05-.06.07-.08.11.27.35.6.65.93.94.03.02.05-.03.07-.04.28-.2.64.06.53.39-.01.03-.05.06-.03.09.36.25.75.47,1.15.66.2-.38.75-.17.64.25v.02c.43.15.86.26,1.3.34.08-.43.7-.35.67.09l.45.03h.46l.45-.03c-.03-.15.08-.31.23-.36.21-.07.4.07.45.27.44-.08.87-.19,1.29-.35-.02-.1-.02-.18.02-.27.12-.26.5-.25.61,0h.01c.4-.19.79-.4,1.15-.67,0-.03-.03-.06-.04-.09-.09-.29.2-.54.48-.41.05.02.07.06.11.08.35-.27.65-.6.94-.93.02-.03-.03-.05-.04-.07-.2-.28.06-.64.39-.53.03.01.06.05.09.03.25-.36.47-.75.66-1.15-.32-.15-.24-.63.11-.65.04,0,.14.03.15,0,.15-.42.26-.85.34-1.29-.2-.03-.33-.23-.27-.43.04-.15.21-.26.36-.23l.03-.45v-.46l-.03-.45c-.15.03-.31-.08-.36-.23-.07-.21.07-.4.27-.45-.08-.44-.19-.87-.35-1.29-.05,0-.08.02-.13.02-.36-.01-.46-.5-.13-.65h0c-.2-.41-.41-.81-.67-1.16-.03,0-.06.03-.09.04-.29.09-.54-.2-.41-.48.02-.05.06-.07.08-.11-.28-.34-.6-.65-.93-.94-.03-.02-.05.03-.07.04-.28.2-.64-.06-.53-.39.01-.03.05-.06.03-.09-.36-.25-.75-.47-1.15-.66-.2.38-.75.17-.64-.25v-.02c-.43-.15-.86-.27-1.3-.34-.03.2-.23.33-.43.27-.15-.04-.26-.21-.23-.36Z"/>
          <path class="cls-1" d="M48.78,40.52c-.03.16.09.32.23.36.2.06.4-.07.43-.27.44.08.87.19,1.29.34v.02c-.11.42.44.63.64.25.4.19.79.41,1.15.66.02.03-.02.06-.03.09-.11.33.24.59.53.39.02-.02.04-.06.07-.04.33.29.65.59.93.94-.02.04-.06.07-.08.11-.13.27.12.57.41.48.03-.01.06-.03.09-.04.27.35.48.75.67,1.15h0c-.33.16-.23.65.13.66.05,0,.09-.02.13-.02.16.42.26.85.35,1.29-.21.04-.34.24-.27.45.05.14.21.26.36.23l.03.45v.46l-.03.45c-.16-.03-.32.09-.36.23-.06.2.07.4.27.43-.08.44-.19.87-.34,1.29-.01.02-.12-.01-.15,0-.35.03-.43.51-.11.65-.19.4-.41.79-.66,1.15-.03.02-.06-.02-.09-.03-.33-.11-.59.24-.39.53.02.02.06.04.04.07-.29.33-.59.65-.94.93-.04-.02-.07-.06-.11-.08-.27-.13-.57.12-.48.41.01.03.03.06.04.09-.35.27-.75.48-1.15.67h-.01c-.11-.26-.5-.27-.61,0-.04.1-.04.17-.02.27-.42.16-.85.27-1.29.35-.04-.21-.24-.34-.45-.27-.14.05-.26.21-.23.36l-.45.03h-.46l-.45-.03c.04-.44-.59-.52-.67-.09-.44-.08-.87-.19-1.29-.34v-.02c.11-.42-.44-.63-.64-.25-.4-.19-.78-.41-1.15-.66-.02-.03.02-.06.03-.09.11-.33-.24-.59-.53-.39-.02.02-.04.06-.07.04-.33-.29-.65-.59-.93-.94.02-.04.06-.07.08-.11.13-.27-.12-.57-.41-.48-.03.01-.06.03-.09.04-.27-.35-.48-.75-.67-1.15h0c.26-.13.26-.51,0-.63-.1-.04-.17-.04-.27-.02-.16-.42-.27-.85-.35-1.29.21-.04.34-.24.27-.45-.05-.15-.21-.26-.36-.23l-.03-.44v-.48l.03-.44c.16.03.32-.08.36-.23.06-.2-.07-.4-.27-.43.08-.44.19-.87.34-1.29h.02c.42.11.63-.44.25-.64.19-.4.41-.79.66-1.15.03-.02.06.02.09.03.33.11.59-.24.39-.53-.02-.02-.06-.04-.04-.07.28-.33.59-.64.92-.92,0,0,.02-.01.03,0,0,0,.07.07.1.08.27.13.57-.12.48-.41-.01-.03-.03-.06-.04-.09.36-.27.75-.48,1.15-.67h.01c.15.33.64.23.65-.13,0-.05-.02-.09-.02-.13.42-.16.85-.26,1.29-.35.04.21.24.34.45.27.15-.05.25-.21.23-.36l.46-.03h.45s.45.03.45.03ZM48.11,40.6h-.02s-.28,4.5-.28,4.5l.19,1.58-.21.03-.21-1.54-1.45-4.31h-.02s.9,4.45.9,4.45l.59,1.45-.2.07-.6-1.44-2.5-3.77h-.02s2.01,4.06,2.01,4.06l.94,1.24s0,.02-.01.02c0,0-.12.1-.13.1s-.01,0-.02,0l-.96-1.23-3.41-3.01h-.01s3.01,3.42,3.01,3.42l1.22.95v.02s0,0,0,.01c0,0-.1.14-.11.14-.01,0-.02,0-.02,0l-1.23-.93c-1.3-.62-2.57-1.3-3.86-1.92-.06-.03-.14-.07-.2-.09,0,0-.03-.01-.03,0,.02,0,.02,0,.03.01,1.22.87,2.54,1.64,3.77,2.5l1.43.6-.07.19s-.04,0-.06-.01c-.46-.15-.92-.4-1.38-.56l-4.47-.89,4.32,1.46,1.54.21-.03.21-1.58-.19-4.49.29s.02.01.03.01c1.49.07,2.97.2,4.46.28l1.58-.19.03.21-1.54.21-4.32,1.45s.07,0,.1,0c1.46-.26,2.91-.62,4.37-.88.46-.16.92-.41,1.38-.56.02,0,.04-.02.06-.01l.07.19-1.43.6c-1.23.86-2.55,1.63-3.77,2.5-.01,0-.01.02-.03.01,0,.02.02,0,.03,0,.06-.02.14-.07.2-.09,1.3-.62,2.57-1.3,3.86-1.92l1.23-.93s.01-.01.02,0c0,0,.11.13.11.14,0,0,0,0,0,.01v.02s-1.23.95-1.23.95l-3.01,3.41h.01s3.41-3,3.41-3l.96-1.23s.01,0,.02,0,.12.09.13.1c0,0,.02.01.01.02l-.94,1.24-2.01,4.05h.02s2.5-3.76,2.5-3.76l.6-1.44.2.07-.59,1.45-.9,4.44h.02s1.45-4.29,1.45-4.29l.21-1.54.21.03-.19,1.58c.12,1.45.15,2.91.27,4.36,0,.02,0,.12.01.12.02,0,.01-.02.01-.03.12-1.48.17-2.97.28-4.45l-.19-1.58.21-.03.21,1.54,1.45,4.32v-.06s-.88-4.4-.88-4.4c-.15-.46-.43-.94-.57-1.4,0-.02-.01-.03,0-.05l.19-.07.6,1.44c.86,1.23,1.63,2.55,2.5,3.77,0,.01.02.01.01.03v-.03s-2.01-4.06-2.01-4.06l-.93-1.23v-.02s.15-.12.15-.12h.02s.95,1.23.95,1.23l3.4,3h.01s-3-3.41-3-3.41l-1.23-.96s0-.02,0-.02.09-.12.1-.13c0,0,.01-.02.02-.01l1.24.94,4.06,2.01s0-.02-.02-.02c-.09-.07-.2-.13-.3-.2l-3.46-2.29-1.44-.6.07-.19s.04,0,.05,0c.46.14.93.42,1.4.57l4.49.9-4.34-1.47-1.54-.21.03-.21,1.58.19,4.5-.28s-.02-.02-.03-.02c-.03,0-.07,0-.11,0-1.45-.12-2.9-.15-4.35-.27l-1.59.19-.03-.21,1.54-.21,4.34-1.46h-.04s-4.45.89-4.45.89c-.46.15-.94.43-1.4.57-.02,0-.03.01-.05,0l-.07-.19,1.44-.6,3.77-2.5v-.02s-4.06,2.01-4.06,2.01l-1.24.94s-.02,0-.02-.01c0,0-.1-.12-.1-.13s0-.01,0-.02l1.23-.96,3-3.4h-.01s-3.4,2.99-3.4,2.99l-.95,1.22h-.02s-.16-.11-.16-.11v-.02s.94-1.23.94-1.23c.61-1.25,1.25-2.48,1.85-3.73.05-.11.12-.24.17-.34,0,0,.02-.03,0-.03v.04s-2.52,3.77-2.52,3.77l-.6,1.44-.19-.07s0-.04,0-.05c.14-.46.42-.94.57-1.4l.89-4.45s-.01.02-.02.03c-.03.08-.06.17-.09.26-.46,1.34-.89,2.68-1.35,4.02l-.21,1.54-.21-.03.19-1.58-.28-4.5ZM44.28,41.59h-.02s.02.03.02.03v-.03ZM54.74,44.4h-.01s-.01.01-.01.01h.03ZM54.74,52.05h-.03s.02.02.02.02v-.02ZM44.28,54.87v-.03s-.02.02-.02.02h.02Z"/>
          <path class="cls-3" d="M48.11,40.6l.28,4.5-.19,1.58.21.03.21-1.54c.46-1.34.89-2.68,1.35-4.02.03-.09.06-.18.09-.26,0-.01,0-.03.02-.03l-.89,4.45c-.15.46-.43.94-.57,1.4,0,.02-.01.03,0,.05l.19.07.6-1.44,2.51-3.77v-.04s.02.02.02.03c-.04.11-.12.24-.17.34-.61,1.25-1.25,2.48-1.85,3.73l-.93,1.23v.02s.15.12.15.12h.02s.95-1.23.95-1.23l3.4-3h.01s-3,3.41-3,3.41l-1.23.96s0,.02,0,.02.09.12.1.13c0,0,.01.02.02.01l1.24-.94,4.05-2.01v.02s-3.76,2.5-3.76,2.5l-1.44.6.07.19s.04,0,.05,0c.46-.14.93-.42,1.4-.57l4.45-.9h.04s-4.34,1.46-4.34,1.46l-1.54.21.03.21,1.59-.19c1.45.12,2.9.15,4.35.27.03,0,.07,0,.11,0,.01,0,.03,0,.03.02l-4.5.28-1.58-.19-.03.21,1.54.21,4.34,1.47-4.49-.9c-.46-.15-.94-.43-1.4-.57-.02,0-.03-.01-.05,0l-.07.19,1.44.6,3.46,2.29c.1.06.2.13.3.2.01,0,.02,0,.02.02l-4.06-2.01-1.24-.94s-.02,0-.02.01c0,0-.1.12-.1.13s0,.01,0,.02l1.23.96,3,3.4h-.01s-3.4-2.99-3.4-2.99l-.95-1.22h-.02s-.16.11-.16.11v.02s.94,1.23.94,1.23l2.02,4.06v.03s0-.02-.02-.03c-.87-1.22-1.64-2.54-2.5-3.77l-.6-1.44-.19.07s0,.04,0,.05c.14.46.42.93.57,1.4l.89,4.4v.06s-1.45-4.32-1.45-4.32l-.21-1.54-.21.03.19,1.58c-.11,1.48-.17,2.97-.28,4.45,0,.01,0,.04-.01.03,0,0-.01-.1-.01-.12-.12-1.45-.15-2.91-.27-4.36l.19-1.58-.21-.03-.21,1.54-1.45,4.31h-.02s.9-4.45.9-4.45l.59-1.45-.2-.07-.6,1.44-2.5,3.77h-.02s2.01-4.06,2.01-4.06l.94-1.24s0-.02-.01-.02c0,0-.12-.1-.13-.1s-.01,0-.02,0l-.96,1.23-3.41,3.01h-.01s3.01-3.42,3.01-3.42l1.22-.95v-.02s0,0,0-.01c0,0-.1-.14-.11-.14-.01,0-.02,0-.02,0l-1.23.93c-1.3.62-2.57,1.3-3.86,1.92-.06.03-.14.07-.2.09,0,0-.03.01-.03,0,.02,0,.02,0,.03-.01,1.22-.87,2.54-1.64,3.77-2.5l1.43-.6-.07-.19s-.04,0-.06.01c-.46.15-.92.4-1.38.56-1.46.27-2.91.63-4.37.88-.03,0-.08.03-.1,0l4.32-1.45,1.54-.21-.03-.21-1.58.19c-1.49-.08-2.97-.21-4.46-.28-.01,0-.04,0-.03-.01l4.49-.29,1.58.19.03-.21-1.54-.21-4.32-1.46,4.47.89c.46.16.92.41,1.38.56.02,0,.04.02.06.01l.07-.19-1.43-.6c-1.23-.86-2.55-1.63-3.77-2.5-.01,0-.01-.02-.03-.01,0-.02.02,0,.03,0,.06.02.14.07.2.09,1.3.62,2.57,1.3,3.86,1.92l1.23.93s.01.01.02,0c0,0,.11-.13.11-.14,0,0,0,0,0-.01v-.02s-1.23-.95-1.23-.95l-3.01-3.41h.01s3.41,3,3.41,3l.96,1.23s.01,0,.02,0,.12-.09.13-.1c0,0,.02-.01.01-.02l-.94-1.24-2.01-4.05h.02s2.5,3.76,2.5,3.76l.6,1.44.2-.07-.59-1.45-.9-4.44h.02s1.45,4.29,1.45,4.29l.21,1.54.21-.03-.19-1.58.28-4.49h.02Z"/>
          <polygon class="cls-3" points="44.28 41.59 44.28 41.62 44.26 41.6 44.28 41.59"/>
          <polygon class="cls-3" points="54.74 52.05 54.73 52.07 54.71 52.05 54.74 52.05"/>
          <polygon class="cls-3" points="44.28 54.87 44.26 54.87 44.28 54.84 44.28 54.87"/>
          <polygon class="cls-3" points="54.74 44.4 54.74 44.41 54.71 44.41 54.72 44.4 54.74 44.4"/>
        </g>
      </g>
      <g>
        <g>
          <path d="M110.36,54.41v-24.6h5.15c1.13,0,2.09.17,2.88.52.8.35,1.44.81,1.95,1.38.51.58.87,1.24,1.09,1.99.22.75.33,1.53.33,2.33v.9c0,.67-.05,1.23-.16,1.69-.1.46-.26.86-.47,1.21-.39.64-.99,1.2-1.8,1.66.83.39,1.44.97,1.83,1.73.39.76.59,1.8.59,3.11v1.38c0,2.17-.52,3.82-1.57,4.98s-2.72,1.73-5.03,1.73h-4.8ZM113.88,33.13v6.77h1.59c1.18,0,1.96-.29,2.37-.88.4-.59.6-1.44.6-2.57s-.22-1.94-.67-2.49c-.45-.55-1.26-.83-2.44-.83h-1.45ZM113.88,43.01v7.88h1.52c.71,0,1.27-.1,1.68-.31.4-.21.71-.49.92-.86.21-.37.33-.81.38-1.31s.07-1.06.07-1.66-.03-1.16-.1-1.62c-.07-.46-.21-.85-.41-1.17-.23-.32-.54-.56-.93-.71-.39-.15-.91-.22-1.56-.22h-1.55Z"/>
          <path d="M128.53,54.41v-24.6h5.67c4.15,0,6.22,2.41,6.22,7.22,0,1.45-.22,2.68-.67,3.7-.45,1.01-1.24,1.83-2.37,2.45l3.8,11.23h-3.73l-3.28-10.5h-2.11v10.5h-3.52ZM132.05,33.13v7.67h2c.62,0,1.12-.09,1.49-.26.37-.17.66-.42.86-.74.18-.32.31-.72.38-1.19.07-.47.1-1.02.1-1.64s-.03-1.17-.1-1.64c-.07-.47-.21-.88-.41-1.23-.44-.64-1.27-.97-2.49-.97h-1.83Z"/>
          <path d="M146.49,35.62c0-.99.17-1.87.52-2.63.35-.76.81-1.39,1.38-1.9.55-.48,1.18-.85,1.88-1.11.7-.25,1.41-.38,2.12-.38s1.42.13,2.13.38c.7.25,1.34.62,1.92,1.11.55.51,1,1.14,1.35,1.9.35.76.52,1.64.52,2.63v12.99c0,1.04-.17,1.92-.52,2.66-.35.74-.79,1.35-1.35,1.83-.58.51-1.22.89-1.92,1.14-.7.25-1.41.38-2.13.38s-1.42-.13-2.12-.38c-.7-.25-1.33-.63-1.88-1.14-.58-.48-1.04-1.09-1.38-1.83-.35-.74-.52-1.62-.52-2.66v-12.99ZM150.02,48.61c0,.85.24,1.48.71,1.88.47.4,1.03.6,1.68.6s1.2-.2,1.68-.6.71-1.03.71-1.88v-12.99c0-.85-.24-1.48-.71-1.88-.47-.4-1.03-.6-1.68-.6s-1.2.2-1.68.6c-.47.4-.71,1.03-.71,1.88v12.99Z"/>
          <path d="M166.77,54.41v-21.28h-4.08v-3.32h11.68v3.32h-4.08v21.28h-3.52Z"/>
          <path d="M179.38,54.41v-24.6h3.52v10.54h4.35v-10.54h3.52v24.6h-3.52v-10.95h-4.35v10.95h-3.52Z"/>
          <path d="M197.56,54.41v-24.6h10.5v3.32h-6.98v7.22h6.08v3.32h-6.08v7.22h6.98v3.52h-10.5Z"/>
          <path d="M213.79,54.41v-24.6h5.67c4.15,0,6.22,2.41,6.22,7.22,0,1.45-.22,2.68-.67,3.7-.45,1.01-1.24,1.83-2.37,2.45l3.8,11.23h-3.73l-3.28-10.5h-2.11v10.5h-3.52ZM217.32,33.13v7.67h2c.62,0,1.12-.09,1.49-.26.37-.17.66-.42.86-.74.18-.32.31-.72.38-1.19.07-.47.1-1.02.1-1.64s-.03-1.17-.1-1.64c-.07-.47-.21-.88-.41-1.23-.44-.64-1.27-.97-2.49-.97h-1.83Z"/>
          <path d="M243.37,36.9h-3.52v-.79c0-.81-.19-1.5-.57-2.09-.38-.59-1.02-.88-1.92-.88-.48,0-.88.09-1.18.28-.3.18-.54.41-.73.69-.18.3-.31.64-.38,1.02s-.1.78-.1,1.19c0,.48.02.89.05,1.21.03.32.12.61.26.86s.34.47.6.66c.26.18.63.37,1.09.55l2.69,1.07c.78.3,1.42.65,1.9,1.05.48.4.86.87,1.14,1.4.25.55.43,1.18.52,1.88.09.7.14,1.5.14,2.4,0,1.04-.1,2-.31,2.88-.21.89-.54,1.64-1,2.26-.48.64-1.12,1.15-1.9,1.52-.78.37-1.74.55-2.87.55-.85,0-1.65-.15-2.38-.45-.74-.3-1.37-.71-1.9-1.24-.53-.53-.95-1.15-1.26-1.85-.31-.7-.47-1.47-.47-2.3v-1.31h3.52v1.11c0,.64.19,1.23.57,1.74.38.52,1.02.78,1.92.78.6,0,1.07-.09,1.4-.26.33-.17.59-.42.78-.74.18-.32.29-.71.33-1.16s.05-.95.05-1.5c0-.64-.02-1.17-.07-1.59-.05-.41-.14-.75-.28-1-.16-.25-.37-.46-.64-.62-.26-.16-.62-.33-1.05-.52l-2.52-1.04c-1.52-.62-2.54-1.44-3.06-2.47-.52-1.02-.78-2.31-.78-3.85,0-.92.13-1.8.38-2.63.25-.83.63-1.54,1.14-2.14.48-.6,1.1-1.08,1.85-1.43.75-.36,1.64-.54,2.68-.54.87,0,1.68.16,2.4.48.73.32,1.35.75,1.88,1.28,1.06,1.11,1.59,2.37,1.59,3.8v1.73Z"/>
          <path d="M259.43,54.41v-24.6h3.52v24.6h-3.52Z"/>
          <path d="M269.69,54.41v-24.6h3.39l5.32,14.82h.07v-14.82h3.52v24.6h-3.32l-5.39-14.79h-.07v14.79h-3.52Z"/>
          <path d="M296.92,54.41l5.49-24.6h2.94l5.49,24.6h-3.52l-1.04-5.29h-4.8l-1.04,5.29h-3.52ZM305.62,45.81l-1.73-8.91h-.07l-1.73,8.91h3.52Z"/>
          <path d="M316.02,54.41v-24.6h5.67c4.15,0,6.22,2.41,6.22,7.22,0,1.45-.22,2.68-.67,3.7-.45,1.01-1.24,1.83-2.37,2.45l3.8,11.23h-3.73l-3.28-10.5h-2.11v10.5h-3.52ZM319.55,33.13v7.67h2c.62,0,1.12-.09,1.49-.26.37-.17.66-.42.86-.74.18-.32.31-.72.38-1.19.07-.47.1-1.02.1-1.64s-.03-1.17-.1-1.64c-.07-.47-.21-.88-.41-1.23-.44-.64-1.27-.97-2.49-.97h-1.83Z"/>
          <path d="M334.2,54.41v-24.6h3.39l4.53,13.03h.07l4.49-13.03h3.42v24.6h-3.52v-14.96h-.07l-3.49,10.57h-1.76l-3.46-10.57h-.07v14.96h-3.52Z"/>
          <path d="M368.26,36.9h-3.52v-.79c0-.81-.19-1.5-.57-2.09-.38-.59-1.02-.88-1.92-.88-.48,0-.88.09-1.18.28-.3.18-.54.41-.73.69-.18.3-.31.64-.38,1.02s-.1.78-.1,1.19c0,.48.02.89.05,1.21.03.32.12.61.26.86s.34.47.6.66c.26.18.63.37,1.09.55l2.69,1.07c.78.3,1.42.65,1.9,1.05.48.4.86.87,1.14,1.4.25.55.43,1.18.52,1.88.09.7.14,1.5.14,2.4,0,1.04-.1,2-.31,2.88-.21.89-.54,1.64-1,2.26-.48.64-1.12,1.15-1.9,1.52-.78.37-1.74.55-2.87.55-.85,0-1.65-.15-2.38-.45-.74-.3-1.37-.71-1.9-1.24-.53-.53-.95-1.15-1.26-1.85-.31-.7-.47-1.47-.47-2.3v-1.31h3.52v1.11c0,.64.19,1.23.57,1.74.38.52,1.02.78,1.92.78.6,0,1.07-.09,1.4-.26.33-.17.59-.42.78-.74.18-.32.29-.71.33-1.16s.05-.95.05-1.5c0-.64-.02-1.17-.07-1.59-.05-.41-.14-.75-.28-1-.16-.25-.37-.46-.64-.62-.26-.16-.62-.33-1.05-.52l-2.52-1.04c-1.52-.62-2.54-1.44-3.06-2.47-.52-1.02-.78-2.31-.78-3.85,0-.92.13-1.8.38-2.63.25-.83.63-1.54,1.14-2.14.48-.6,1.1-1.08,1.85-1.43.75-.36,1.64-.54,2.68-.54.87,0,1.68.16,2.4.48.73.32,1.35.75,1.88,1.28,1.06,1.11,1.59,2.37,1.59,3.8v1.73Z"/>
        </g>
        <g>
          <path class="cls-9" d="M153.58,71.46c0,.11-.03.16-.09.16-.26,0-.57-.01-.94-.03-.35-.02-.65-.03-.88-.03s-.52.01-.85.03c-.35.02-.66.03-.92.03-.07,0-.1-.05-.1-.16,0-.1.03-.15.09-.16.45-.05.76-.14.92-.25s.25-.32.25-.63v-.09l-.24-5.58-2.78,6.96c-.02.06-.08.09-.16.09s-.14-.03-.16-.09l-2.61-6.68-.41,5.31c0,.07-.01.12-.01.17,0,.26.09.44.26.55s.49.19.94.24c.05,0,.08.06.08.16,0,.11-.03.16-.1.16-.2,0-.47-.01-.82-.03-.32-.02-.57-.03-.74-.03-.19,0-.45.01-.78.03-.32.02-.56.03-.74.03-.05,0-.08-.05-.08-.16,0-.1.03-.15.1-.16.48-.06.82-.15,1-.27.19-.12.29-.36.32-.7l.6-5.42c0-.07,0-.13,0-.18,0-.25-.09-.43-.27-.54s-.5-.2-.96-.25c-.05,0-.08-.05-.08-.16,0-.04.01-.07.03-.11.02-.03.05-.05.07-.05.14,0,.34.01.6.03.22.02.39.03.49.03.13,0,.33-.01.58-.03.26-.02.46-.03.6-.03l2.47,6.39,2.55-6.39c.15,0,.35.01.6.03.22.02.4.03.53.03.16,0,.35-.01.58-.03.23-.02.44-.03.6-.03.07,0,.1.05.1.16s-.03.16-.09.16c-.45.05-.75.14-.92.25s-.25.32-.25.63v.1l.27,5.42c.01.27.05.46.12.56.07.11.19.19.37.26.17.06.42.11.74.15.06,0,.09.06.09.16Z"/>
          <path class="cls-9" d="M168.09,69.72c-.31.66-.56,1.3-.76,1.9-1.45-.05-2.48-.07-3.09-.07s-1.63.02-3.09.07c-.06,0-.09-.05-.09-.16,0-.1.03-.15.09-.16.32-.04.56-.09.73-.15.17-.06.29-.15.35-.26.07-.11.1-.3.1-.56v-5.42c0-.26-.03-.45-.1-.56-.06-.11-.18-.2-.35-.26-.17-.07-.42-.12-.74-.16-.06,0-.09-.05-.09-.16s.03-.16.09-.16c.97.05,1.96.07,2.97.07s2.01-.02,2.98-.07c.09.59.22,1.18.39,1.76,0,.08-.07.12-.2.12-.07,0-.11-.03-.12-.08-.28-.91-.89-1.36-1.82-1.36h-1.16c-.45,0-.67.23-.67.69v2.56h1.45c.39,0,.65-.09.78-.26s.23-.49.29-.94c0-.06.05-.09.16-.09s.16.03.16.09c0,.19-.01.43-.03.73-.02.28-.03.51-.03.69s.01.41.03.69c.02.3.03.55.03.74,0,.06-.05.09-.16.09s-.16-.03-.16-.09c-.06-.47-.16-.8-.3-.98-.14-.19-.4-.28-.77-.28h-1.45v2.83c0,.45.22.68.67.68h1.25c.46,0,.91-.15,1.36-.45.45-.3.78-.67.99-1.11.02-.03.05-.05.1-.05.05,0,.1.01.14.04.04.03.06.06.06.11Z"/>
          <path class="cls-9" d="M186.08,71.46c0,.11-.03.16-.09.16-.26,0-.57-.01-.94-.03-.35-.02-.65-.03-.88-.03s-.52.01-.85.03c-.35.02-.66.03-.92.03-.07,0-.1-.05-.1-.16,0-.1.03-.15.09-.16.45-.05.76-.14.92-.25s.25-.32.25-.63v-.09l-.24-5.58-2.78,6.96c-.02.06-.08.09-.16.09s-.14-.03-.16-.09l-2.61-6.68-.41,5.31c0,.07-.01.12-.01.17,0,.26.09.44.26.55s.49.19.94.24c.05,0,.08.06.08.16,0,.11-.03.16-.1.16-.2,0-.47-.01-.82-.03-.32-.02-.57-.03-.74-.03-.19,0-.45.01-.78.03-.32.02-.56.03-.74.03-.05,0-.08-.05-.08-.16,0-.1.03-.15.1-.16.48-.06.82-.15,1-.27.19-.12.29-.36.32-.7l.6-5.42c0-.07,0-.13,0-.18,0-.25-.09-.43-.27-.54s-.5-.2-.96-.25c-.05,0-.08-.05-.08-.16,0-.04.01-.07.03-.11.02-.03.05-.05.07-.05.14,0,.34.01.6.03.22.02.39.03.49.03.13,0,.33-.01.58-.03.26-.02.46-.03.6-.03l2.47,6.39,2.55-6.39c.15,0,.35.01.6.03.22.02.4.03.53.03.16,0,.35-.01.58-.03.23-.02.44-.03.6-.03.07,0,.1.05.1.16s-.03.16-.09.16c-.45.05-.75.14-.92.25s-.25.32-.25.63v.1l.27,5.42c.01.27.05.46.12.56.07.11.19.19.37.26.17.06.42.11.74.15.06,0,.09.06.09.16Z"/>
          <path class="cls-9" d="M202.23,67.66c0,1.22-.39,2.21-1.18,2.98-.78.77-1.81,1.16-3.07,1.16s-2.28-.39-3.07-1.16c-.78-.77-1.17-1.77-1.17-2.98s.39-2.23,1.18-3.03c.79-.8,1.81-1.19,3.06-1.19s2.28.4,3.06,1.19c.79.8,1.18,1.8,1.18,3.03ZM200.97,67.66c0-1.13-.27-2.06-.82-2.78-.55-.72-1.27-1.08-2.16-1.08s-1.61.36-2.16,1.08c-.54.72-.82,1.64-.82,2.78s.27,2.04.81,2.73c.54.7,1.26,1.04,2.16,1.04s1.62-.35,2.16-1.04.81-1.61.81-2.73Z"/>
          <path class="cls-9" d="M218.01,71.46c0,.11-.03.16-.09.16-.14,0-.37-.01-.7-.04-.23-.02-.39-.03-.47-.03-.11,0-.29.01-.52.03-.24.02-.41.03-.52.03l-1.74-2.84c-.25-.39-.45-.65-.6-.76-.15-.11-.46-.17-.91-.17v2.48c0,.26.03.45.1.56.07.11.19.2.36.26.17.06.42.11.73.15.07,0,.1.06.1.16,0,.11-.03.16-.09.16-.26,0-.56-.01-.92-.03-.34-.02-.63-.03-.86-.03s-.52.01-.86.03c-.35.02-.66.03-.92.03-.06,0-.09-.05-.09-.16,0-.1.03-.15.09-.16.32-.04.56-.09.73-.15.17-.06.29-.15.35-.26.07-.11.1-.3.1-.56v-5.42c0-.26-.03-.45-.1-.56-.06-.11-.18-.2-.35-.26-.17-.07-.42-.12-.74-.16-.06,0-.09-.05-.09-.16s.03-.16.09-.16c.26,0,.56.01.92.03.34.02.62.03.86.03s.52-.01.86-.03c.36-.02.66-.03.92-.03.86,0,1.52.18,1.99.54.47.36.7.86.7,1.51,0,.41-.16.79-.46,1.14-.31.35-.73.62-1.25.81l1.77,2.89c.15.25.35.44.59.56.24.12.56.2.94.25.05,0,.08.06.08.16ZM215.07,65.69c0-1.12-.49-1.69-1.47-1.69-.32,0-.57.03-.73.08-.17.05-.28.13-.33.25-.06.11-.08.31-.08.59v2.57c.22.03.5.05.84.05.62,0,1.07-.15,1.35-.44.28-.29.43-.76.43-1.4Z"/>
          <path class="cls-9" d="M229.41,71.46c0,.11-.03.16-.09.16-.26,0-.56-.01-.92-.03-.34-.02-.62-.03-.86-.03s-.52.01-.86.03c-.36.02-.67.03-.93.03-.06,0-.09-.05-.09-.16,0-.1.03-.15.09-.16.46-.05.78-.14.95-.26.17-.12.25-.36.25-.71v-5.42c0-.27-.03-.46-.1-.57s-.19-.2-.35-.26-.42-.11-.74-.15c-.06,0-.09-.05-.09-.16s.03-.16.09-.16c.26,0,.57.01.93.03.34.02.62.03.86.03s.52-.01.86-.03c.35-.02.66-.03.92-.03.06,0,.09.05.09.16s-.03.16-.09.16c-.32.04-.57.09-.74.15-.17.06-.29.15-.35.26s-.1.3-.1.57v5.42c0,.26.03.45.1.56s.18.2.35.26c.17.06.41.11.73.15.07,0,.1.06.1.16Z"/>
          <path class="cls-9" d="M245.44,71.46c0,.11-.03.16-.09.16-.27,0-.56-.01-.9-.03-.29-.02-.53-.03-.74-.03-.23,0-.52.01-.87.03-.37.02-.68.03-.93.03-.06,0-.09-.05-.09-.16s.02-.16.07-.16c.34-.02.59-.06.74-.14s.22-.19.22-.35c0-.1-.04-.26-.12-.48l-.66-1.93h-2.36l-.66,1.78c-.08.24-.13.42-.13.56,0,.34.31.52.93.56.05,0,.07.05.07.16s-.03.16-.09.16c-.23,0-.49-.01-.77-.03-.26-.02-.5-.03-.71-.03-.17,0-.37.01-.62.03-.26.02-.48.03-.67.03-.06,0-.09-.05-.09-.14,0-.11.04-.17.13-.17.32-.03.57-.12.76-.26.19-.15.38-.44.58-.89l2.69-6.61c.02-.06.08-.09.16-.09.09,0,.15.03.17.09l2.38,6.62c.13.37.32.65.54.82s.53.29.92.33c.08,0,.12.06.12.16ZM241.95,68.04l-1.01-2.93-1.09,2.93h2.1Z"/>
          <path class="cls-9" d="M259.44,69.5c-.18.68-.32,1.38-.43,2.12-1.47-.05-2.52-.07-3.14-.07s-1.65.02-3.1.07c-.06,0-.09-.05-.09-.16,0-.1.03-.15.09-.16.46-.05.78-.14.95-.26.17-.12.25-.36.25-.71v-5.42c0-.27-.03-.46-.1-.57s-.19-.2-.35-.26-.42-.11-.74-.15c-.06,0-.09-.05-.09-.16s.03-.16.09-.16c.26,0,.56.01.92.03.34.02.63.03.86.03s.52-.01.86-.03c.35-.02.66-.03.92-.03.06,0,.09.05.09.16s-.03.16-.09.16c-.32.04-.57.09-.74.15-.17.06-.29.15-.35.26s-.1.3-.1.57v5.59c0,.45.22.68.67.68h1.14c.47,0,.87-.13,1.2-.38s.65-.72.97-1.41c.01-.03.05-.05.11-.05.05,0,.1.02.14.05.04.03.07.07.07.1Z"/>
          <path class="cls-9" d="M283.03,65.96c0,.68-.26,1.24-.78,1.7s-1.16.69-1.93.69c-.46,0-.91-.02-1.36-.06v2.04c0,.27.03.46.1.56.07.11.18.19.35.26.17.06.41.11.73.15.06,0,.09.06.09.16,0,.11-.03.16-.09.16-.26,0-.56-.01-.92-.03-.34-.02-.62-.03-.86-.03s-.52.01-.86.03c-.36.02-.66.03-.92.03-.06,0-.09-.05-.09-.16,0-.1.03-.15.09-.16.46-.05.78-.14.95-.26.17-.12.25-.36.25-.71v-5.42c0-.27-.03-.46-.1-.57s-.19-.2-.35-.26-.42-.11-.74-.15c-.06,0-.09-.05-.09-.16s.03-.16.09-.16c.26,0,.56.01.92.03.34.02.63.03.86.03s.52-.01.86-.03c.35-.02.66-.03.91-.03.94,0,1.66.2,2.15.6.49.4.73.98.73,1.75ZM281.75,65.96c0-.62-.15-1.1-.45-1.44-.3-.35-.7-.52-1.2-.52-.3,0-.53.02-.69.07-.16.05-.28.12-.35.23-.07.1-.1.31-.1.62v2.65c0,.17.05.28.16.33s.33.08.67.08c.63,0,1.11-.18,1.45-.54.34-.36.51-.85.51-1.48Z"/>
          <path class="cls-9" d="M298.24,71.46c0,.11-.03.16-.09.16-.27,0-.56-.01-.9-.03-.29-.02-.53-.03-.74-.03-.23,0-.52.01-.87.03-.37.02-.68.03-.93.03-.06,0-.09-.05-.09-.16s.02-.16.07-.16c.34-.02.59-.06.74-.14s.22-.19.22-.35c0-.1-.04-.26-.12-.48l-.66-1.93h-2.36l-.66,1.78c-.08.24-.13.42-.13.56,0,.34.31.52.93.56.05,0,.07.05.07.16s-.03.16-.09.16c-.23,0-.49-.01-.77-.03-.26-.02-.5-.03-.71-.03-.17,0-.37.01-.62.03-.26.02-.48.03-.67.03-.06,0-.09-.05-.09-.14,0-.11.04-.17.13-.17.32-.03.57-.12.76-.26.19-.15.38-.44.58-.89l2.69-6.61c.02-.06.08-.09.16-.09.09,0,.15.03.17.09l2.38,6.62c.13.37.32.65.54.82s.53.29.92.33c.08,0,.12.06.12.16ZM294.75,68.04l-1.01-2.93-1.09,2.93h2.1Z"/>
          <path class="cls-9" d="M313.51,71.46c0,.11-.03.16-.09.16-.14,0-.37-.01-.7-.04-.23-.02-.39-.03-.47-.03-.11,0-.29.01-.52.03-.24.02-.41.03-.52.03l-1.74-2.84c-.25-.39-.45-.65-.6-.76-.15-.11-.46-.17-.91-.17v2.48c0,.26.03.45.1.56.07.11.19.2.36.26.17.06.42.11.73.15.07,0,.1.06.1.16,0,.11-.03.16-.09.16-.26,0-.56-.01-.92-.03-.34-.02-.63-.03-.86-.03s-.52.01-.86.03c-.35.02-.66.03-.92.03-.06,0-.09-.05-.09-.16,0-.1.03-.15.09-.16.32-.04.56-.09.73-.15.17-.06.29-.15.35-.26.07-.11.1-.3.1-.56v-5.42c0-.26-.03-.45-.1-.56-.06-.11-.18-.2-.35-.26-.17-.07-.42-.12-.74-.16-.06,0-.09-.05-.09-.16s.03-.16.09-.16c.26,0,.56.01.92.03.34.02.62.03.86.03s.52-.01.86-.03c.36-.02.66-.03.92-.03.86,0,1.52.18,1.99.54.47.36.7.86.7,1.51,0,.41-.16.79-.46,1.14-.31.35-.73.62-1.25.81l1.77,2.89c.15.25.35.44.59.56.24.12.56.2.94.25.05,0,.08.06.08.16ZM310.58,65.69c0-1.12-.49-1.69-1.47-1.69-.32,0-.57.03-.73.08-.17.05-.28.13-.33.25-.06.11-.08.31-.08.59v2.57c.22.03.5.05.84.05.62,0,1.07-.15,1.35-.44.28-.29.43-.76.43-1.4Z"/>
          <path class="cls-9" d="M329.58,71.46c0,.11-.03.16-.09.16-.26,0-.56-.01-.92-.03-.34-.02-.63-.03-.86-.03s-.54.01-.94.03c-.42.02-.76.03-1.01.03-.06,0-.09-.05-.09-.16,0-.1.03-.15.08-.16.52-.06.78-.19.78-.37,0-.11-.08-.25-.25-.41l-2.29-2.33c-.12-.12-.23-.2-.32-.24s-.21-.06-.37-.06v2.44c0,.26.03.45.1.56.07.11.19.2.36.26.17.06.41.11.73.15.07,0,.1.06.1.16,0,.11-.03.16-.09.16-.26,0-.56-.01-.92-.03-.34-.02-.63-.03-.87-.03s-.52.01-.85.03c-.36.02-.66.03-.92.03-.06,0-.09-.05-.09-.16,0-.1.03-.15.09-.16.46-.05.78-.14.95-.26.17-.12.25-.36.25-.71v-5.42c0-.27-.03-.46-.1-.57s-.19-.2-.35-.26-.42-.11-.74-.15c-.06,0-.09-.05-.09-.16s.03-.16.09-.16c.26,0,.56.01.92.03.34.02.62.03.85.03s.52-.01.87-.03c.36-.02.66-.03.92-.03.06,0,.09.05.09.16s-.03.16-.09.16c-.33.04-.57.09-.74.15-.17.06-.29.15-.35.26-.07.11-.1.3-.1.57v2.61c.15,0,.27-.02.36-.06.09-.04.2-.12.33-.24l2.53-2.49c.21-.2.31-.34.31-.43,0-.1-.05-.18-.15-.23-.1-.05-.29-.1-.59-.14-.06,0-.09-.05-.09-.16s.03-.16.1-.16c.18,0,.42.01.71.03.31.02.58.03.78.03s.44-.01.69-.04c.21-.02.39-.03.54-.03.05,0,.08.05.08.16s-.03.16-.09.16c-.37.05-.66.12-.87.23-.21.1-.46.3-.76.58l-2.63,2.5,3.26,3.32c.23.24.45.41.67.51s.55.18.99.24c.07,0,.1.06.1.16Z"/>
        </g>
      </g>
    </g>
  </g>
</svg>