<?xml version="1.0" encoding="UTF-8"?>
<svg id="Layer_2" data-name="Layer 2" xmlns="http://www.w3.org/2000/svg" viewBox="0 0 322 93.17">
  <defs>
    <style>
      .cls-1 {
        fill: #f4eddc;
      }

      .cls-2 {
        fill: #5c3d14;
      }
    </style>
  </defs>
  <g id="OBJECTS">
    <g>
      <path class="cls-1" d="M239.77,76.55c2.96-.76,6.01-.99,8.96-1.84,3.2-.92,6.31-1.98,9.34-3.36.42-.19.53-.53.65-.93.73-2.31.5-4.73.66-7.09.12-1.86,0-15.07-.3-16.97-.35-2.23-.79-4.45-.87-6.73-.07-1.92.06-3.83.05-5.74-.02-3.9.08-7.81-.03-11.71-.07-2.66.92-5.15,1.01-7.78.07-1.96.34-3.92-.55-5.8-.28-.59-.55-.56-.98-.24-.65.49-1.19,1.09-1.98,1.47-1.64.79-3.38,1.25-5.07,1.86-3.3,1.19-6.73,1.87-10.17,2.41-2.77.43-5.58.47-8.36.87-3.55.52-7.15.43-10.72.64-2.58.16-5.18.05-7.77,0-3.33-.06-6.65.01-9.98-.46-3.05-.44-6.03-1.28-9.15-1.32-1.56-.02-3.13-.32-4.68-.62-1.5-.29-3.02-.09-4.51-.36-3.78-.69-7.57-1.31-11.39-1.73-.48-.05-.88-.27-1.35-.32-3.72-.39-7.45-.77-11.16-1.26-2.67-.35-5.3-1.05-7.97-1.23-2.77-.19-5.38-1.05-8.08-1.49-1.85-.31-3.72-.61-5.56-1.03-1.7-.39-3.43-.15-5.15-.34-1.65-.19-3.27-.56-4.93-.73-2.61-.26-5.26-.39-7.81-.95-4.02-.89-8.07-1.27-12.16-1.3-1.99-.01-3.99.3-5.99.25-2.74-.08-5.46-.1-8.2-.05-2.75.05-5.47.4-8.21.54-1.77.02-3.61.14-5.24.59-2.99.83-6.09,1-9.06,1.87-3.15.92-6.25,1.96-9.23,3.35-.32.15-.47.4-.58.73-.55,1.66-.67,3.43-.74,5.12-.14,3.48.1,6.96.72,10.41.15.87.42,1.74.41,2.65-.02,2.36,0,4.73,0,7.09.01,3.9-.05,7.81.06,11.71.07,2.7-.92,16.5-1.01,19.16-.06,1.96-.38,3.91.51,5.8.31.65.58.61,1.04.25.61-.49,1.13-1.06,1.89-1.41,1.62-.74,3.3-1.24,4.98-1.82,3.62-1.25,7.33-2.09,11.12-2.52,2.03-.23,4.13-.22,6.11-.58,4.02-.74,8.08-.56,12.11-.89,2.61-.21,5.25,0,7.87-.02,3.84,0,7.69-.03,11.48.71,4.01.79,8.07,1.13,12.11,1.7,1.57.22,3.16.1,4.73.38,3.78.67,7.57,1.35,11.39,1.72.48.05.87.27,1.35.32,3.65.37,7.31.75,10.95,1.23,2.7.36,5.37,1.08,8.08,1.25,2.77.18,5.4,1,8.09,1.48,2.31.42,4.62,1.07,6.95,1.15,3.58.12,7.09.77,10.63,1.14,2.38.25,4.77.52,7.13,1.03,2.49.53,5.02.88,7.59.94,2.18.04,4.34.21,6.51-.12.94-.14,1.93-.1,2.89-.04,2.2.15,4.41.2,6.61.11,2.95-.12,5.89-.43,8.84-.51,2.06-.05,4.19-.18,6.1-.67ZM255.52,63.67c-3.27,2.03-6.99,2.38-10.67,2.84-1.07.03-2.12.01-3.15-.22-.27-.06-.62-.1-.63-.48-.01-.41.34-.4.62-.44,4.52-.59,8.9-1.85,13.32-2.91.43-.1.93-.23,1.16.25.27.57-.28.72-.64.94ZM241.31,49.05c-.03-.47.41-.45.7-.5,2.1-.33,4.17-.87,6.19-1.49,1.68-.51,3.37-.98,5.04-1.5.61-.19,1.49-.64,1.8.19.29.77-.62,1-1.18,1.28-2.77,1.43-5.67,2.45-8.8,2.72-.18.02-.36-.03-.54,0-.82-.1-1.65-.09-2.47-.22-.3-.05-.72-.05-.75-.49ZM256.4,41.61c.38.87-.62,1.03-1.16,1.23-3.1,1.18-6.22,2.32-9.57,2.56-.28.02-.57,0-.85,0-1.09.07-2.14-.29-3.21-.37-.28-.02-.51-.15-.5-.46,0-.34.26-.37.53-.38,4.47-.28,8.73-1.55,13.01-2.71.6-.16,1.42-.64,1.75.13ZM256,36.6c.24.54-.08.92-.51,1.16-1.2.68-2.51,1.12-3.83,1.39-2.45.51-4.93.92-7.44.81-1.73-.08-3.48-.02-5.2-.32-.38-.07-.79-.05-1.15-.58,1.56-.14,3.01-.27,4.47-.39,4.32-.34,8.61-.85,12.72-2.31.36-.13.75-.2.94.23ZM247.35,32.9c2.21-.31,4.2-1.23,6.26-1.98.5-.18,1-.34,1.31.28.32.65-.21.9-.62,1.18-1.26.88-2.74,1.27-4.17,1.74-2.31.75-4.74.91-7.15.9-1.01,0-2.01.01-3.02,0-.35,0-.81,0-.8-.5,0-.47.45-.41.76-.4,2.56.09,4.94-.87,7.43-1.21ZM240.31,29.77c-.01-.33.33-.35.56-.4,1.31-.28,2.62-.54,3.93-.82,2.44-.52,4.81-1.26,7.14-2.14.34-.13.69-.22,1.04-.33.37-.11.74-.12.94.28.23.47-.08.79-.43.98-.89.48-1.82.87-2.79,1.19-1.31.42-2.63.79-3.97,1.09-1.35.29-2.68.6-4.19.47-.47,0-1.05.02-1.63,0-.23,0-.58.04-.59-.31ZM253.97,22.79c-2.13,1.28-4.55,1.78-6.91,2.4-2.88.76-5.79,1.26-8.78.91-.3-.04-.67.09-.88-.28.13-.41.52-.37.81-.42,3.66-.61,7.25-1.49,10.84-2.47,1.5-.41,2.85-1.17,4.35-1.51.53-.12,1.29-.69,1.6.18.26.72-.56.9-1.02,1.18ZM235.87,22.03c2.16-.26,4.31-.51,6.42-1.06,3.06-.8,6.17-1.47,8.92-3.13.77-.47,1.46-1.06,2.21-1.57.4-.27.88-.54,1.27-.07.34.42.17.86-.17,1.27-1.05,1.25-2.42,2.04-3.84,2.76-2.38,1.19-5.01,1.61-7.52,2.4-1.32.41-2.74.09-4.1.16-1.05,0-2.1,0-3.15,0-.28,0-.66.04-.69-.35-.04-.43.39-.38.64-.41ZM66.3,18.47c-.32-.54-.04-1.06.39-1.32.83-.49,1.71-.94,2.62-1.26,4.06-1.44,8.19-2.56,12.69-2.66.15.04.68-.26.73.27.05.44-.47.35-.75.43-3.15.9-6.32,1.74-9.46,2.69-1.71.52-3.44,1.02-4.99,1.97-.42.26-.9.42-1.23-.13ZM66.89,22.08c-.14-.55.32-.72.71-.92,3.06-1.55,6.33-2.57,9.67-3.24,2.31-.46,4.68-.59,6.98-.86.37.1.88-.13.91.42.03.44-.44.44-.73.49-3.77.68-7.42,1.83-11.13,2.77-1.51.38-2.92,1.04-4.34,1.65-.33.14-.65.31-1.03.29-.45-.02-.92-.07-1.05-.59ZM83.32,43.76c-3.59,1.1-7.17,2.21-10.75,3.31-1.27.39-2.53.79-3.69,1.14-.56-.03-1.05-.03-1.17-.58-.14-.64.35-.95.81-1.14,1.4-.56,2.81-1.13,4.26-1.57,3.39-1.04,6.84-1.83,10.41-1.93.31,0,.83-.24.88.3.03.4-.44.37-.75.46ZM81.45,34.94c-2.09.54-4.18,1.11-6.29,1.58-1.83.41-3.55,1.12-5.33,1.68-.34.11-.67.25-.82.3-.65.04-1-.07-1.13-.55-.13-.51.12-.85.53-1.08,1.36-.74,2.8-1.3,4.3-1.7,2.65-.7,5.28-1.49,8.07-1.38.18,0,.36,0,.54,0,.37.02.78.05.84.51.08.52-.4.54-.72.62ZM82.57,38.83c.08.81-.9.62-1.43.79-2.64.85-5.43,1.05-8.1,1.84-1.12.33-2.23.63-3.33,1.04-.5.19-1.2.27-1.5-.44-.17-.4.01-.74.44-.97,2.41-1.31,9.66-2.91,12.46-2.73.5.12,1.39-.23,1.45.47ZM83.97,29.95c-1.53.09-3.01.43-4.5.74-3.65.74-7.37,1.25-10.86,2.66-.59.24-1.23.27-1.48-.4-.25-.67.3-1.08.86-1.3.84-.33,1.7-.6,2.57-.84,4.4-1.2,8.84-2.14,13.45-1.78.34.03.76-.11.84.44-.12.47-.55.46-.87.48ZM88.17,23.42c-3.29.21-6.54.7-9.79,1.21-3.19.5-6.36,1.15-9.37,2.42-.52.22-1.13.43-1.4-.26-.25-.65.36-.87.81-1.07,2.6-1.19,5.3-2.03,8.15-2.38,1.87-.23,3.71-.61,6.47-.72,1.12-.15,3.1-.13,5.09-.03.34.02.81-.12.85.41.04.62-.5.41-.8.43Z"/>
      <path class="cls-1" d="M82,86.82c-3.42.11-6.84.3-10.22-.54-4.83-1.2-9.58-2.67-14.42-3.85-3.85-.93-7.7-1.89-11.66-2.05-4.05-.16-8.06-.54-12.07-1.1-.26-.04-.68.13-.7-.3-.02-.4.39-.36.66-.38,3.11-.16,6.15-.91,9.31-.76,3.46.17,6.9.51,10.25,1.31,4.12.98,8.19,2.17,12.26,3.34,3.67,1.05,7.25,2.41,11.1,2.68,1.32.09,2.62.4,4.23.11-.98-.71-1.73-1.23-2.62-1.54-.85-.29-1.63-.69-2.38-1.2-1.42-.97-2.84-2.03-4.74-1.51-.07.02-.14,0-.22-.01-2.35-.22-4.58-.92-6.72-1.86-.63-.28-1.25-.55-1.9-.72-6.77-1.75-13.75-2.38-20.59-3.77-.28-.06-.77.04-.74-.44.03-.5.47-.33.77-.32,4.74.11,9.47.23,14.15,1.15,3.34.65,6.61,1.49,9.76,2.78.95.39,1.92.68,3.22.9-.82-.95-1.56-1.48-2.43-1.82-1.38-.54-2.72-1.34-3.73-2.27-.9-.83-1.73-1.26-2.83-1.49-.53-.11-1.04-.32-1.56-.47-2.71-.77-5.47-1.32-8.27-1.64-1-.11-1.98-.38-2.97-.58-.26-.05-.49-.19-.46-.51.02-.3.22-.44.52-.45,1.19-.03,2.39-.2,3.57-.08,3.15.31,6.35.44,9.27,1.92.51.26.63.05.54-.48-.12-.73-.31-1.47-.13-2.23.09-.37-.12-.48-.47-.54-3.42-.54-6.86-1.03-10.18-2.09-.3-.1-.75-.03-.7-.49.06-.54.52-.39.86-.36,2.88.25,5.76.46,8.59,1.07q1.78.39,1.92-1.42c.02-.22,0-.45.07-.64.33-.84,0-1.12-.83-1.13-1,0-2.01-.1-3.01-.13-1.8-.05-3.49-.5-5.1-1.28-.29-.14-.79-1.07-.62-1.55.15-.43.56-.19.86-.14,2.71.48,5.49,1.06,8.2,1.53.64.11.98-11.29,1.12-12.04.39-2.14.34-2.24-1.78-2.16-.14,0-.29.03-.43.04-1.54.01-3-.35-4.46-.79-.2-.06-.45-.12-.39-.42.05-.22.25-.26.43-.24,2.04.23,4.03-.56,6.06-.28.52.07.71-.05.8-.65.26-1.82-.13-3.63,0-5.44.04-.52-.4-.52-.77-.48-2.28.23-4.45-.32-6.64-.82-2.32-.53-4.56-1.32-6.86-1.89-4.14-1.03-8.33-1.87-12.51-2.71-2.6-.52-5.24-.92-7.91-.93-.9,0-1.77.15-2.69.1-2.55-.12-5.12-.27-7.61.66-1.02.38-2.07.72-3.08,1.12-1.45.57-2.85,1.27-4.34,1.94.66.6,1.43.62,2.05.99,2.43,1.44,4.6,3.25,7.08,4.64,2.11,1.18,3.92,2.87,5.89,4.31,1.91,1.4,3.36,14.5,4.78,16.37.5.66.61,1.21.14,1.86-.87,1.22-1.48,2.59-2.48,3.74-1.25,1.44-2.53,2.88-4.06,4-3.04,2.23-6.21,4.3-9.31,6.44-1.61,1.11-3.21,2.24-4.81,3.36-1.85,1.3-2.88,3.21-3.83,5.18-.09.19-.33.38-.17.58.18.22.49.14.71.02.48-.26.96-.48,1.49-.61,2.09-.54,4.09-1.4,6.18-1.99,2.67-.75,5.35-1.49,8.08-1.87,3.56-.49,7.14-.93,10.76-.92,1.64,0,3.2.48,4.82.47,2.39,0,4.75.37,7.05.92,2.79.67,5.61,1.19,8.38,1.96,2.06.57,4.2.76,6.27,1.39,1.48.45,2.88,1.31,4.41,1.42,2.33.16,4.43,1.44,6.82,1.27,1.28-.09,2.54.42,3.85.34,2.73-.18,5.46,0,8.18.16,2.78.16,5.56-.17,8.35.04-2.03-1-3.94-2.18-5.87-3.33-.5-.3-.96-.41-1.52-.39Z"/>
      <path class="cls-1" d="M311.95,80.14c-2.79-1.83-5.49-3.79-8.25-5.65-2.28-1.54-4.57-3.08-6.51-5.12-1.68-1.76-2.93-3.77-4.2-5.8-.19-.31-.16-.75.08-1.04,1.38-1.7,2.59-14.81,4.36-16.18,3.19-2.47,6.48-4.8,9.88-6.98,1.89-1.21,3.67-2.61,6.04-3.49-1.88-.75-3.46-1.48-5.07-2.16-2.74-1.17-5.5-1.89-8.48-1.67-1.04.08-2.11.2-3.13.05-2.22-.32-4.4.04-6.56.35-2.8.41-5.54,1.29-8.34,1.71-3.35.5-6.58,1.49-9.83,2.35-3.46.92-6.85,2.06-10.5,1.82-.52-.03-.68.12-.58.69.18,1.1.3,2.21.35,3.32.03.68.25.78.86.61.91-.24,1.83-.46,2.76-.57,2.52-.29,5.05-.52,7.58-.77.48-.05,1.27-.36,1.34.16.09.74-.8.53-1.26.58-3.47.38-6.81,1.35-10.21,2.06-.37.08-.69.21-.67.57.04.63.18,1.26.33,1.88.03.15.24.01.37-.04,2.49-1.06,5.17-1.22,7.8-1.57,1.47-.19,2.96-.14,4.44.11.28.05.63.04.65.44.02.36-.24.49-.55.55-.43.08-.85.2-1.28.25-3.17.4-6.38.58-9.44,1.67-2.06.74-2.06,11.91-2.02,14.12.01.76.21.78.87.59,2.82-.79,5.67-1.47,8.63-1.49.36,0,.8-.11.87.4.06.43-.34.46-.65.57-2.82,1.02-5.82,1.34-8.66,2.34-1.08.38-1.28,1-1.26,1.92,0,.17.13.36.08.5-.39,1.16.27,1.1.99.81,1.95-.79,3.91-1.47,6.01-1.77,2.54-.36,5.08-.64,7.65-.46.26.02.54.01.59.34.05.32-.19.45-.45.52-.24.07-.5.11-.74.17-3.72.89-7.58,1.05-11.24,2.32-1.62.56-3.14.85-3.74,2.81-.29.93-.91,1.98-1.9,2.39-1.35.57-2.31,1.72-3.71,2.19.38,0,.73-.07,1.05-.2,3.03-1.24,6.19-2.15,9.23-3.32,4.76-1.83,9.68-1.76,14.61-1.98.26-.01.55-.01.62.3.09.43-.27.43-.55.5-1.97.46-3.93,1.01-5.92,1.36-4.33.76-8.56,1.9-12.74,3.22-2.51.79-5,1.63-7.5,2.45-2.15.71-4.47.96-6.45,2.15-1.63.98-3.28,1.9-5.03,2.66-.57.25-1.31.6-1.64,1.4.37-.06.69-.09,1-.17,3.59-.82,7.23-1.35,10.84-2.07,5.33-1.07,10.48-2.68,15.56-4.52,4.32-1.56,8.78-2.36,13.32-2.77.37-.03.91-.16,1,.37.11.59-.48.51-.83.61-2.93.86-5.87,1.66-8.78,2.57-2.46.77-4.87,1.7-7.33,2.49-3.81,1.22-7.71,2.06-11.62,2.9-3.09.66-6.25.91-9.32,1.66-2.05.5-4.17.74-6.27,1.03-2.22.3-3.92,1.75-5.9,2.67,2.85-.26,5.71.14,8.57-.08,3.32-.25,6.67-.05,9.99-.32,1.72-.14,3.52.03,5.18-.63,2.08-.83,4.35-.83,6.44-1.74,2.89-1.26,6.1-1.52,9.16-2.22,3.07-.7,6.13-1.48,9.26-1.99,2.53-.42,5.07-.51,7.6-.82,2.67-.32,5.37.02,8.07.23,5.03.4,9.87,1.54,14.66,2.98,1.9.57,3.73,1.34,5.6,2.01.23.08.51.22.72.03.27-.25-.07-.44-.15-.65-1.06-2.92-3.23-4.9-5.73-6.54Z"/>
      <path class="cls-1" d="M69.56,71.79c-.15.09-.34.1-.63.18,4.66,2.98,9.68,5.07,14.25,7.96,2.63,1.66,5.57,2.79,8.21,4.45.23.15.67.38.64-.02-.06-.78.06-1.61-.95-2.16-3.2-1.74-6.37-3.52-9.63-5.15-3.18-1.58-6.29-3.34-9.34-5.16-.95-.57-1.67-.62-2.55-.1Z"/>
      <path class="cls-1" d="M90.9,87.18c-2.18-1.3-4.38-2.57-6.58-3.86-1.12-.65-2.18-1.44-3.37-1.93-3.23-1.33-6.1-3.3-9.15-4.94-1.6-.86-3.03-2.05-4.79-2.58-.41-.13-1-.85-1.29-.22-.22.49.64.69,1.05.93,3.08,1.8,6.16,3.61,9.28,5.33,2.64,1.46,5.1,3.21,7.77,4.64,2.5,1.35,4.94,2.83,7.39,4.27.72.43.88.13.83-.58.38-1.1-.68-.8-1.14-1.07Z"/>
      <path class="cls-1" d="M248.85,77.49c-1.75.29-3.38.62-4.97,1.63-1.9,1.21-3.56-3.32-5.58-2.26-2.5,1.31-5.41-.81-7.88.53-.85.46-.65,10.25-.43,10.8.23.57.71-.08,1.05-.19.44-.15.83-.43,1.22-.69,3.44-2.23,7.14-4,10.59-6.22,1.96-1.26,4-2.4,6-3.6Z"/>
      <path class="cls-1" d="M74.69,70.28c.3.47.71.68,1.1.82,1.43.51,2.74,1.27,4,2.07,3.73,2.35,7.58,4.48,11.43,6.63.25.14.73.29.68.02-.11-.52.08-1.28-.53-1.55-2.32-1.06-4.43-2.47-6.64-3.7-2.49-1.39-5.13-2.52-7.48-4.15-.84-.58-1.63-.68-2.55-.12Z"/>
      <path class="cls-1" d="M80.52,69.3c3.48,2.45,7.19,4.26,10.79,6.37.17-1.07-.53-2.04-1.68-2.5-2.48-.98-4.62-2.58-6.94-3.87-.82-.46-1.37-.43-2.17,0Z"/>
      <path class="cls-1" d="M90.67,69.66c-.52-.33-1.03-.68-1.58-.94-1.03-.48-2.06-1.23-3.33-.31,1.68,1.32,3.64,1.94,5.37,3.06.21-1.2.15-1.43-.46-1.82Z"/>
      <path class="cls-2" d="M318.97,83.88c-1.69-2.92-4.41-4.77-7.1-6.62-2.13-1.46-4.23-2.96-6.38-4.4-2.21-1.48-4.44-3-6.35-4.9-1.15-1.14-2.34-2.24-3.3-3.55-.27-.37-.35-.71-.03-1.21,1.29-2.04,3.15-14.8,4.94-16.34,1.43-1.23,3.02-2.28,4.53-3.42,1.58-1.19,3.11-2.42,4.86-3.37,1.33-.72,2.66-1.46,3.93-2.28,1.53-.98,1.56-3.02,0-3.9-.72-.4-1.38-.91-2.16-1.22-1.68-.66-3.29-1.56-5.01-2.02-2.17-.58-4.35-1.32-6.65-1.18-1.33.08-2.65.14-3.97.09-2.94-.11-5.83.03-8.71.78-3.25.84-6.62,1.2-9.84,2.22-2.75.87-5.62,1.27-8.34,2.25-2.46.88-5.08.94-7.65,1.28-.75.1-.99-.39-.99-1.09.05-4.24-.16-8.47.06-12.71.06-1.18.08-2.35.38-3.53.66-2.6.55-5.29.54-7.95,0-1.86-.93-3.34-2.02-4.77-.66-.87-1.4-1.12-2.18-.37-1.53,1.46-3.29,2.48-5.32,3.06-2.18.62-4.32,1.41-6.56,1.8-1.7.3-3.45.41-5.08.93-1.92.61-3.9.58-5.84.9-1.74.29-3.52.35-5.29.44-3.18.17-6.35.3-9.54.21-1.94-.06-3.91-.23-5.86.04-2.74.39-5.48.04-8.22-.1-2.75-.14-5.4-.91-8.11-1.26-2.71-.35-5.44-.63-8.15-1.01-1.6-.23-3.2-.62-4.82-.58-1.74.04-3.42-.24-5.12-.49-1.46-.21-2.87-.72-4.3-.86-2.74-.28-5.32-1.26-8.1-1.42-3.02-.18-6.01-.98-9.02-1.38-3.64-.49-7.3-.78-10.93-1.36-1.8-.29-3.64-.37-5.42-.72-3.72-.71-7.48-1.05-11.23-1.49-3.08-.37-6.18-.53-9.23-1.21-2.21-.49-4.51-.55-6.73-.99-1.27-.25-2.48.04-3.73-.05-2.15-.17-4.33-.12-6.49-.12-2.26,0-4.53-.03-6.78.15-1.64.14-3.28.15-4.91.21-2.1.08-4.15.49-6.23.66-2.83.23-5.67.4-8.46.99-2.85.6-5.65,1.38-8.45,2.21-2.84.84-5.31,2.18-7.59,3.97-.14.11-.32.26-.34.41-.12,1.06-.7,1.96-1,2.95-.45,1.52-.48,3.09-.57,4.66-.17,2.91-.2,5.82.29,8.69.6,3.51.78,7.05.82,10.6.01,1.23-.17,1.32-1.42,1.17-2.78-.33-5.55-.59-8.24-1.57-2.16-.79-4.45-1.23-6.7-1.73-.87-.19-1.63-.67-2.52-.81-3.13-.51-6.22-1.21-9.32-1.87-1.02-.21-2.04-.56-3.15-.51-2.36.1-4.75.25-7.08.02-2.78-.28-5.36.44-7.91,1.21-2.29.7-4.54,1.64-6.62,2.88-.92.55-1.56,1.13-1.47,2.37.08,1.09.69,1.6,1.5,2.07,1.87,1.09,3.8,2.09,5.58,3.31,2.56,1.75,5.12,3.55,7.48,5.56,1.71,1.45,3.48,14.18,4.72,16.13.34.53.36.94-.01,1.4-1.63,2.03-3.51,3.81-5.56,5.39-1.86,1.43-3.74,2.83-5.73,4.09-1.36.86-2.68,1.81-3.97,2.78-1.77,1.33-3.69,2.47-5.3,4.02-2.34,2.24-3.69,5.11-5.1,7.95-.39.78-.69,1.48.03,2.23.79.83,1.61.54,2.46.14,1.66-.78,3.32-1.56,5.04-2.2,2.84-1.07,5.67-2.16,8.64-2.78,4.38-.92,8.76-1.79,13.29-1.57,2.03.1,4.09.09,6.07.44,3.35.6,6.75.84,10.08,1.64,2.73.66,5.47,1.27,8.22,1.85,2.97.63,5.76,1.93,8.82,2.43,3.74.61,7.49,1.04,11.27,1.23,2.32.12,4.66-.28,6.97.26.62.14,1.28.18,1.92.15,2.01-.09,4.03.1,6.04-.16.47,0,.97.1,1.41-.02,1.49-.38,3.15-.6,3.63-2.46.25-.97.62-1.94.55-2.97-.19-2.87-.19-5.74-.63-8.6-.31-2.04-.51-4.1-.58-6.19-.05-1.42-.18-2.88-.34-4.31-.09-.83.3-1,.94-1.03.83-.03,1.66-.05,2.48-.06,1.64-.02,3.27-.08,4.9-.04,2.02.04,4.05.26,6.07.03,2.78-.31,5.55-.11,8.33.08,2.6.17,5.12.94,7.68,1.22,4.97.54,9.88,1.48,14.9,1.67,2.66.1,5.29.8,7.92,1.28,2.72.5,5.38,1.3,8.2,1.47,3.06.19,6.08.98,9.13,1.4,3.71.51,7.44.83,11.14,1.37,1.63.24,3.28.28,4.89.62,3.74.8,7.54,1.11,11.33,1.55,3.08.36,6.18.53,9.23,1.19,2.21.48,4.51.56,6.73,1,1.33.26,2.62-.09,3.94.09,1.97.26,3.98.16,5.96.13,3.14-.05,6.31.1,9.44-.43.45-.08,1.05.17.94.76-.16.83,0,1.65-.09,2.44-.24,1.95-.38,3.87.05,5.83.43,1.98,1.58,3.22,3.62,3.31,2.73.13,5.49.3,8.21.11,2.65-.19,5.28-.46,7.93-.32,2.83.14,5.6-.51,8.41-.68,1.95-.12,3.92-.46,5.81-1.04,2.03-.62,4.08-1.18,6.08-1.92,1.27-.46,2.65-.5,3.97-.83,2.72-.68,5.46-1.36,8.26-1.73,3.26-.43,6.49-1.07,9.79-1.24,3.16-.16,6.3-.24,9.46.21,5.64.8,11.06,2.32,16.33,4.46,1.63.66,3.12,1.67,4.86,2.06,1.08.24,2.21-1.03,1.75-2.01-.9-1.88-1.88-3.72-2.92-5.53ZM81.05,90.5c-2.72-.15-5.45-.34-8.18-.16-1.31.08-2.57-.43-3.85-.34-2.39.17-4.48-1.11-6.82-1.27-1.53-.1-2.92-.96-4.41-1.42-2.07-.63-4.21-.82-6.27-1.39-2.77-.77-5.59-1.29-8.38-1.96-2.29-.55-4.66-.92-7.05-.92-1.62,0-3.18-.47-4.82-.47-3.62,0-7.2.43-10.76.92-2.73.38-5.41,1.12-8.08,1.87-2.09.59-4.08,1.44-6.18,1.99-.53.14-1.02.35-1.49.61-.22.12-.53.21-.71-.02-.16-.2.08-.39.17-.58.94-1.97,1.97-3.88,3.83-5.18,1.6-1.12,3.2-2.25,4.81-3.36,3.11-2.14,6.27-4.21,9.31-6.44,1.53-1.12,2.8-2.56,4.06-4,1-1.15,1.61-2.53,2.48-3.74.47-.65.35-1.2-.14-1.86-1.41-1.87-2.86-14.97-4.78-16.37-1.96-1.44-3.78-3.13-5.89-4.31-2.48-1.39-4.65-3.21-7.08-4.64-.61-.36-1.39-.39-2.05-.99,1.48-.67,2.88-1.37,4.34-1.94,1.02-.4,2.06-.74,3.08-1.12,2.49-.93,5.06-.79,7.61-.66.92.04,1.79-.11,2.69-.1,2.67.01,5.3.41,7.91.93,4.19.84,8.37,1.68,12.51,2.71,2.3.57,4.54,1.36,6.86,1.89,2.19.5,4.36,1.04,6.64.82.37-.04.81-.04.77.48-.13,1.81.26,3.62,0,5.44-.09.6-.28.73-.8.65-2.04-.28-4.02.51-6.06.28-.18-.02-.39.02-.43.24-.06.3.19.36.39.42,1.45.44,2.92.81,4.46.79.14,0,.29-.03.43-.04,2.12-.08,2.17.03,1.78,2.16-.14.75-.49,12.15-1.12,12.04-2.71-.47-5.49-1.05-8.2-1.53-.3-.05-.71-.29-.86.14-.17.48.32,1.4.62,1.55,1.61.78,3.31,1.23,5.1,1.28,1,.03,2.01.12,3.01.13.83,0,1.16.29.83,1.13-.08.19-.05.43-.07.64q-.14,1.8-1.92,1.42c-2.83-.62-5.71-.83-8.59-1.07-.34-.03-.81-.18-.86.36-.05.47.4.4.7.49,3.32,1.06,6.75,1.55,10.18,2.09.35.06.57.16.47.54-.18.76,0,1.49.13,2.23.09.53-.03.74-.54.48-2.92-1.48-6.12-1.61-9.27-1.92-1.18-.12-2.38.05-3.57.08-.3,0-.49.15-.52.45-.03.32.2.45.46.51.99.21,1.97.47,2.97.58,2.8.32,5.56.86,8.27,1.64.52.15,1.03.36,1.56.47,1.09.23,1.93.66,2.83,1.49,1.01.93,2.35,1.73,3.73,2.27.87.34,1.61.87,2.43,1.82-1.3-.22-2.27-.51-3.22-.9-3.15-1.28-6.42-2.12-9.76-2.78-4.68-.92-9.41-1.04-14.15-1.15-.3,0-.75-.18-.77.32-.03.48.46.38.74.44,6.84,1.39,13.82,2.02,20.59,3.77.65.17,1.27.45,1.9.72,2.14.94,4.37,1.64,6.72,1.86.07,0,.15.03.22.01,1.91-.52,3.32.54,4.74,1.51.75.51,1.53.91,2.38,1.2.89.31,1.64.83,2.62,1.54-1.61.29-2.92-.02-4.23-.11-3.85-.27-7.44-1.63-11.1-2.68-4.07-1.16-8.14-2.36-12.26-3.34-3.35-.8-6.79-1.14-10.25-1.31-3.16-.16-6.2.59-9.31.76-.27.01-.68-.02-.66.38.02.43.44.26.7.3,4,.57,8.02.94,12.07,1.1,3.96.16,7.81,1.11,11.66,2.05,4.84,1.17,9.59,2.65,14.42,3.85,3.38.84,6.8.65,10.22.54.56-.02,1.02.09,1.52.39,1.93,1.15,3.84,2.33,5.87,3.33-2.79-.21-5.56.12-8.35-.04ZM91.21,88.83c-2.45-1.45-4.88-2.93-7.39-4.27-2.66-1.43-5.12-3.18-7.77-4.64-3.12-1.72-6.2-3.53-9.28-5.33-.42-.24-1.27-.44-1.05-.93.29-.63.88.09,1.29.22,1.76.54,3.19,1.72,4.79,2.58,3.05,1.64,5.92,3.6,9.15,4.94,1.19.49,2.25,1.28,3.37,1.93,2.19,1.28,4.39,2.56,6.58,3.86.46.28,1.52-.03,1.14,1.07.05.71-.11,1.01-.83.58ZM89.62,73.18c1.15.45,1.86,1.43,1.68,2.5-3.6-2.12-7.31-3.93-10.79-6.37.8-.43,1.35-.45,2.17,0,2.31,1.29,4.45,2.89,6.94,3.87ZM85.76,68.41c1.27-.93,2.3-.17,3.33.31.55.26,1.06.61,1.58.94.6.39.66.62.46,1.82-1.73-1.12-3.69-1.74-5.37-3.06ZM84.72,74.56c2.21,1.24,4.33,2.65,6.64,3.7.61.28.42,1.03.53,1.55.06.27-.42.12-.68-.02-3.84-2.15-7.7-4.27-11.43-6.63-1.26-.79-2.57-1.56-4-2.07-.4-.14-.8-.35-1.1-.82.92-.56,1.71-.46,2.55.12,2.35,1.63,4.99,2.76,7.48,4.15ZM81.45,77.05c3.26,1.62,6.43,3.4,9.63,5.15,1.01.55.89,1.38.95,2.16.03.41-.41.17-.64.02-2.64-1.67-5.58-2.79-8.21-4.45-4.58-2.89-9.59-4.98-14.25-7.96.29-.08.48-.09.63-.18.88-.52,1.6-.47,2.55.1,3.06,1.82,6.16,3.57,9.34,5.16ZM224.83,77.74c-2.2.09-4.4.04-6.61-.11-.96-.07-1.94-.1-2.89.04-2.17.33-4.34.17-6.51.12-2.57-.05-5.11-.4-7.59-.94-2.36-.51-4.75-.78-7.13-1.03-3.54-.37-7.05-1.02-10.63-1.14-2.32-.08-4.64-.73-6.95-1.15-2.69-.49-5.31-1.3-8.09-1.48-2.71-.17-5.38-.9-8.08-1.25-3.64-.48-7.29-.86-10.95-1.23-.48-.05-.87-.27-1.35-.32-3.83-.37-7.61-1.05-11.39-1.72-1.57-.28-3.15-.16-4.73-.38-4.04-.57-8.1-.91-12.11-1.7-3.79-.75-7.64-.72-11.48-.71-2.62,0-5.27-.2-7.87.02-4.03.33-8.09.15-12.11.89-1.99.37-4.08.35-6.11.58-3.8.44-7.5,1.27-11.12,2.52-1.67.58-3.36,1.07-4.98,1.82-.76.35-1.27.93-1.89,1.41-.47.37-.74.4-1.04-.25-.89-1.89-.58-3.84-.51-5.8.09-2.66,1.08-16.46,1.01-19.16-.1-3.9-.05-7.8-.06-11.71,0-2.36-.03-4.73,0-7.09,0-.91-.26-1.78-.41-2.65-.62-3.45-.86-6.94-.72-10.41.07-1.69.19-3.46.74-5.12.11-.33.26-.58.58-.73,2.98-1.39,6.07-2.43,9.23-3.35,2.97-.87,6.07-1.03,9.06-1.87,1.62-.45,3.47-.57,5.24-.59,2.74-.15,5.46-.5,8.21-.54,2.74-.05,5.47-.02,8.2.05,1.99.06,3.99-.26,5.99-.25,4.09.03,8.14.41,12.16,1.3,2.55.56,5.2.7,7.81.95,1.66.16,3.27.54,4.93.73,1.72.19,3.45-.05,5.15.34,1.84.42,3.72.72,5.56,1.03,2.7.45,5.31,1.3,8.08,1.49,2.67.18,5.31.88,7.97,1.23,3.71.48,7.44.87,11.16,1.26.47.05.87.27,1.35.32,3.82.42,7.61,1.04,11.39,1.73,1.5.27,3.01.08,4.51.36,1.54.3,3.12.6,4.68.62,3.12.03,6.1.88,9.15,1.32,3.33.48,6.65.4,9.98.46,2.59.05,5.19.15,7.77,0,3.57-.22,7.17-.13,10.72-.64,2.78-.4,5.6-.44,8.36-.87,3.44-.54,6.87-1.22,10.17-2.41,1.69-.61,3.44-1.07,5.07-1.86.78-.38,1.32-.97,1.98-1.47.43-.33.7-.36.98.24.89,1.88.62,3.84.55,5.8-.09,2.62-1.08,5.11-1.01,7.78.1,3.9,0,7.81.03,11.71,0,1.91-.12,3.82-.05,5.74.08,2.27.52,4.5.87,6.73.3,1.9.42,15.11.3,16.97-.16,2.36.07,4.77-.66,7.09-.12.39-.23.73-.65.93-3.02,1.38-6.14,2.44-9.34,3.36-2.95.85-6,1.07-8.96,1.84-1.91.49-4.04.62-6.1.67-2.95.08-5.89.39-8.84.51ZM237.47,79.41c-2.41,1.72-5.09,2.96-7.51,4.67-.24-1.32.23-2.05,1.48-2.5,1-.36,1.88-1.07,2.79-1.67,1-.65,2.08-.71,3.24-.5ZM231.04,87.99c-.34.12-.82.77-1.05.19-.22-.55-.44-1.35.41-1.81,2.48-1.34,4.93-2.74,7.43-4.05,2.03-1.06,4.16-2.01,6.06-3.21,1.59-1.01,3.22-1.34,4.97-1.63-2,1.2-4.04,2.34-6,3.6-3.44,2.22-7.15,3.99-10.59,6.22-.39.25-.79.54-1.22.69ZM317.82,87.33c-.21.2-.49.06-.72-.03-1.87-.67-3.7-1.44-5.6-2.01-4.79-1.44-9.63-2.59-14.66-2.98-2.7-.21-5.4-.55-8.07-.23-2.53.3-5.07.4-7.6.82-3.13.52-6.19,1.29-9.26,1.99-3.06.7-6.27.95-9.16,2.22-2.09.91-4.36.92-6.44,1.74-1.66.66-3.46.49-5.18.63-3.31.28-6.67.07-9.99.32-2.87.22-5.72-.18-8.57.08,1.98-.93,3.67-2.37,5.9-2.67,2.1-.28,4.22-.52,6.27-1.03,3.08-.76,6.23-1,9.32-1.66,3.91-.84,7.81-1.68,11.62-2.9,2.46-.79,4.87-1.72,7.33-2.49,2.91-.91,5.85-1.71,8.78-2.57.35-.1.94-.02.83-.61-.1-.53-.63-.4-1-.37-4.55.41-9,1.21-13.32,2.77-5.08,1.84-10.23,3.45-15.56,4.52-3.61.72-7.25,1.25-10.84,2.07-.31.07-.63.11-1,.17.33-.8,1.08-1.15,1.64-1.4,1.75-.76,3.4-1.68,5.03-2.66,1.98-1.19,4.29-1.44,6.45-2.15,2.5-.82,4.99-1.66,7.5-2.45,4.18-1.32,8.41-2.46,12.74-3.22,1.99-.35,3.95-.9,5.92-1.36.27-.06.64-.06.55-.5-.07-.31-.36-.31-.62-.3-4.93.22-9.85.15-14.61,1.98-3.04,1.17-6.2,2.08-9.23,3.32-.32.13-.66.21-1.05.2,1.4-.47,2.36-1.62,3.71-2.19.99-.42,1.62-1.47,1.9-2.39.61-1.96,2.12-2.25,3.74-2.81,3.66-1.27,7.52-1.43,11.24-2.32.25-.06.5-.09.74-.17.25-.07.5-.2.45-.52-.05-.33-.33-.33-.59-.34-2.57-.18-5.11.11-7.65.46-2.1.29-4.06.98-6.01,1.77-.72.29-1.37.36-.99-.81.05-.14-.08-.33-.08-.5-.02-.92.17-1.53,1.26-1.92,2.83-1,5.84-1.32,8.66-2.34.31-.11.71-.14.65-.57-.07-.5-.51-.4-.87-.4-2.96.02-5.81.69-8.63,1.49-.65.18-.85.17-.87-.59-.04-2.2-.04-13.38,2.02-14.12,3.07-1.09,6.27-1.27,9.44-1.67.43-.05.85-.17,1.28-.25.31-.06.58-.19.55-.55-.02-.39-.37-.39-.65-.44-1.47-.25-2.97-.3-4.44-.11-2.63.34-5.31.51-7.8,1.57-.13.05-.34.19-.37.04-.15-.62-.29-1.25-.33-1.88-.02-.36.3-.49.67-.57,3.4-.71,6.74-1.68,10.21-2.06.46-.05,1.35.16,1.26-.58-.07-.52-.86-.2-1.34-.16-2.53.25-5.05.48-7.58.77-.93.11-1.85.32-2.76.57-.61.16-.83.07-.86-.61-.05-1.11-.16-2.22-.35-3.32-.1-.57.06-.72.58-.69,3.65.24,7.04-.9,10.5-1.82,3.25-.86,6.48-1.85,9.83-2.35,2.8-.42,5.54-1.31,8.34-1.71,2.15-.31,4.33-.68,6.56-.35,1.02.15,2.09.03,3.13-.05,2.99-.22,5.75.5,8.48,1.67,1.6.68,3.18,1.41,5.07,2.16-2.38.88-4.15,2.28-6.04,3.49-3.4,2.18-6.69,4.51-9.88,6.98-1.77,1.37-2.98,14.48-4.36,16.18-.23.29-.27.73-.08,1.04,1.26,2.03,2.51,4.04,4.2,5.8,1.94,2.04,4.24,3.58,6.51,5.12,2.76,1.87,5.47,3.82,8.25,5.65,2.5,1.64,4.66,3.62,5.73,6.54.08.21.41.4.15.65Z"/>
      <path class="cls-2" d="M235.93,22.79c1.05.01,2.1,0,3.15,0,1.36-.07,2.78.25,4.1-.16,2.51-.79,5.14-1.21,7.52-2.4,1.42-.71,2.79-1.51,3.84-2.76.34-.41.51-.85.17-1.27-.39-.47-.87-.2-1.27.07-.75.51-1.44,1.1-2.21,1.57-2.75,1.66-5.86,2.33-8.92,3.13-2.11.55-4.26.8-6.42,1.06-.25.03-.68-.02-.64.41.03.39.42.35.69.35Z"/>
      <path class="cls-2" d="M88.12,22.58c-1.99-.11-3.97-.12-5.09.03-2.75.11-4.6.49-6.47.72-2.85.35-5.55,1.19-8.15,2.38-.45.21-1.07.43-.81,1.07.27.69.88.48,1.4.26,3-1.27,6.18-1.91,9.37-2.42,3.25-.51,6.5-1,9.79-1.21.3-.02.84.18.8-.43-.03-.54-.5-.4-.85-.41Z"/>
      <path class="cls-2" d="M84,29.04c-4.61-.36-9.05.58-13.45,1.78-.87.24-1.73.51-2.57.84-.56.22-1.11.63-.86,1.3.25.67.89.64,1.48.4,3.49-1.41,7.21-1.92,10.86-2.66,1.48-.3,2.97-.65,4.5-.74.33-.02.76,0,.87-.48-.08-.55-.49-.41-.84-.44Z"/>
      <path class="cls-2" d="M68.96,22.38c1.42-.61,2.84-1.26,4.34-1.65,3.7-.94,7.35-2.1,11.13-2.77.29-.05.76-.05.73-.49-.03-.55-.54-.32-.91-.42-2.3.27-4.68.4-6.98.86-3.34.67-6.6,1.69-9.67,3.24-.4.2-.85.37-.71.92.13.51.59.57,1.05.59.38.02.7-.15,1.03-.29Z"/>
      <path class="cls-2" d="M83.19,43c-3.57.1-7.02.89-10.41,1.93-1.44.44-2.85,1.01-4.26,1.57-.46.18-.95.5-.81,1.14.12.55.61.54,1.17.58,1.16-.36,2.42-.75,3.69-1.14,3.58-1.11,7.17-2.22,10.75-3.31.3-.09.78-.06.75-.46-.05-.54-.57-.31-.88-.3Z"/>
      <path class="cls-2" d="M253.4,21.43c-1.5.34-2.85,1.1-4.35,1.51-3.58.98-7.17,1.86-10.84,2.47-.29.05-.68.01-.81.42.21.36.58.24.88.28,2.99.35,5.9-.15,8.78-.91,2.36-.62,4.78-1.12,6.91-2.4.47-.28,1.28-.46,1.02-1.18-.31-.87-1.07-.3-1.6-.18Z"/>
      <path class="cls-2" d="M237.87,39.06c.36.54.77.52,1.15.58,1.72.3,3.46.24,5.2.32,2.51.12,5-.3,7.44-.81,1.32-.27,2.63-.72,3.83-1.39.43-.25.75-.62.51-1.16-.19-.43-.58-.36-.94-.23-4.12,1.46-8.4,1.96-12.72,2.31-1.45.12-2.91.25-4.47.39Z"/>
      <path class="cls-2" d="M67.53,18.59c1.55-.95,3.28-1.45,4.99-1.97,3.14-.96,6.31-1.79,9.46-2.69.28-.08.8,0,.75-.43-.06-.53-.58-.23-.73-.27-4.5.1-8.63,1.22-12.69,2.66-.91.32-1.79.77-2.62,1.26-.44.26-.71.78-.39,1.32.32.54.8.38,1.23.13Z"/>
      <path class="cls-2" d="M81.33,33.81c-.18-.01-.36,0-.54,0-2.79-.11-5.42.68-8.07,1.38-1.5.4-2.94.95-4.3,1.7-.41.22-.66.57-.53,1.08.13.48.48.59,1.13.55.15-.05.48-.2.82-.3,1.78-.56,3.5-1.27,5.33-1.68,2.11-.48,4.19-1.04,6.29-1.58.33-.08.8-.1.72-.62-.07-.46-.47-.49-.84-.51Z"/>
      <path class="cls-2" d="M255,62.47c-4.42,1.06-8.8,2.31-13.32,2.91-.29.04-.63.02-.62.44.01.38.36.42.63.48,1.04.23,2.09.24,3.15.22,3.68-.47,7.4-.82,10.67-2.84.36-.22.91-.38.64-.94-.23-.48-.73-.36-1.16-.25Z"/>
      <path class="cls-2" d="M239.17,34.52c0,.51.45.5.8.5,1,.02,2.01,0,3.02,0,2.41.01,4.84-.14,7.15-.9,1.43-.46,2.91-.85,4.17-1.74.41-.29.94-.53.62-1.18-.31-.62-.81-.46-1.31-.28-2.06.75-4.05,1.67-6.26,1.98-2.48.35-4.87,1.31-7.43,1.21-.3-.01-.75-.07-.76.4Z"/>
      <path class="cls-2" d="M244.53,49.75c.18-.03.36.02.54,0,3.13-.27,6.03-1.3,8.8-2.72.56-.29,1.48-.52,1.18-1.28-.32-.83-1.19-.38-1.8-.19-1.67.53-3.37.99-5.04,1.5-2.02.62-4.09,1.16-6.19,1.49-.3.05-.73.03-.7.5.03.43.45.44.75.49.82.13,1.65.12,2.47.22Z"/>
      <path class="cls-2" d="M254.65,41.47c-4.28,1.17-8.54,2.43-13.01,2.71-.28.02-.53.04-.53.38,0,.31.23.44.5.46,1.07.08,2.12.44,3.21.37.28,0,.57.02.85,0,3.35-.24,6.47-1.38,9.57-2.56.53-.2,1.53-.36,1.16-1.23-.33-.77-1.15-.3-1.75-.13Z"/>
      <path class="cls-2" d="M81.12,38.36c-2.8-.19-10.05,1.42-12.46,2.73-.43.23-.61.57-.44.97.29.71,1,.62,1.5.44,1.1-.41,2.21-.71,3.33-1.04,2.67-.78,5.46-.99,8.1-1.84.52-.17,1.5.02,1.43-.79-.06-.7-.95-.35-1.45-.47Z"/>
      <path class="cls-2" d="M242.53,30.09c1.51.13,2.85-.18,4.19-.47,1.34-.29,2.66-.67,3.97-1.09.97-.31,1.9-.7,2.79-1.19.36-.19.66-.51.43-.98-.2-.41-.57-.4-.94-.28-.35.1-.7.2-1.04.33-2.33.88-4.7,1.62-7.14,2.14-1.31.28-2.62.54-3.93.82-.23.05-.57.08-.56.4.01.35.36.3.59.31.58.02,1.16,0,1.63,0Z"/>
    </g>
  </g>
</svg>